<svg width="228" height="241" viewBox="0 0 228 241" fill="none" xmlns="http://www.w3.org/2000/svg">
<g clip-path="url(#clip0_3059_2277)">
<g clip-path="url(#clip1_3059_2277)">
<g clip-path="url(#clip2_3059_2277)">
<mask id="mask0_3059_2277" style="mask-type:luminance" maskUnits="userSpaceOnUse" x="-13" y="0" width="334" height="309">
<path d="M-12.5125 0.31543H320.513V308.315H-12.5125V0.31543Z" fill="white"/>
</mask>
<g mask="url(#mask0_3059_2277)">
<path d="M131.663 201.667L120.957 185.405M131.663 201.667L137.973 220.799M131.663 201.667L134.387 203.415M131.663 201.667L127.484 195.637M120.957 185.405L119.535 183.247M120.957 185.405L122.851 187.317M137.973 220.799L139.213 241.29M137.973 220.799L133.351 214.895M137.973 220.799L141.588 222.087M134.387 203.415L141.588 222.087M134.387 203.415L136.737 202.296M134.387 203.415L122.851 187.317M127.484 195.637L116.83 179.139M127.484 195.637L133.351 214.895M127.484 195.637L117.073 191.105M119.535 183.247L116.83 179.139M119.535 183.247L124.658 187.167M122.851 187.317L124.658 187.167M116.83 179.139L111.645 174.655M116.83 179.139L106.828 175.192M124.658 187.167L136.737 202.296M124.658 187.167L126.251 184.484M111.645 174.655L110.814 173.936M111.645 174.655L126.251 184.484M106.828 175.192L105.012 173.618L104.991 173.6L92.7437 162.989M106.828 175.192L90.7918 176.759M106.828 175.192L117.073 191.105M110.814 173.936L103.668 167.756M110.814 173.936L112.151 170.578M126.251 184.484L138.773 197.949M126.251 184.484L127.628 179.503M103.668 167.756L103.418 167.539L102.202 166.487M103.668 167.756L112.151 170.578M112.151 170.578L127.628 179.503M112.151 170.578L113.437 166.069M102.202 166.487L95.6505 163.512M102.202 166.487L92.7437 162.989M95.6505 163.512L88.9707 160.477M95.6505 163.512L96.6255 161.327M92.7437 162.989L75.8114 155.295M92.7437 162.989L78.7355 166.255M88.9707 160.477L84.6308 158.507L80.6047 157.041M88.9707 160.477L96.6255 161.327M96.6255 161.327L113.437 166.069M96.6255 161.327L98.0673 156.332M80.6047 157.041L75.8114 155.295M80.6047 157.041L81.5816 154.629M75.8114 155.295L72.6082 154.827M75.8114 155.295L64.2162 159.623M81.5816 154.629L72.6082 154.827M81.5816 154.629L98.0673 156.332M81.5816 154.629L83.6058 147.607M72.6082 154.827L66.6176 153.949M64.2162 159.623L48.205 157.259M64.2162 159.623L56.2351 167.417L56.2063 167.446L51.2715 172.266M64.2162 159.623L78.7355 166.255M66.6176 153.949L57.1948 152.57M66.6176 153.949L68.9363 146.998M68.9363 146.998L83.6058 147.607M68.9363 146.998L71.6024 138.479M68.9363 146.998L56.6105 147.602M54.8087 152.858L57.1957 152.57L48.205 157.259M54.8087 152.858L45.9797 153.924M54.8087 152.858L56.6105 147.602M48.205 157.259L40.3308 158.205L40.2538 158.214L40.1248 158.23L31.8127 159.229M48.205 157.259L39.7196 170.526M45.9797 153.924L41.4319 154.472L41.4021 154.476M45.9797 153.924L47.4841 149.36M56.6105 147.602L59.9071 137.095M56.6105 147.602L47.4841 149.36M41.4021 154.476L41.2721 154.493M41.4021 154.476L42.1259 152.12M47.4841 149.36L51.3851 136.18M47.4841 149.36L42.1259 152.12M41.2721 154.493L41.1345 154.509M41.2721 154.493L42.1259 152.12M42.1259 152.12L46.5668 135.786M41.1345 154.509L38.1613 154.867M41.1345 154.509L45.7266 135.935M38.1613 154.867L19.9576 162.063M38.1613 154.867L31.8127 159.229M45.7266 135.935L46.5668 135.786M45.7266 135.935L49.8971 115.892M19.9576 162.063L3.76157 173.654L2.18307 175.408M19.9576 162.063L16.1412 165.419M31.8127 159.229L16.1412 165.419M31.8127 159.229L27.8683 171.926M2.18307 175.408L-9.15614 188.512M2.18307 175.408L6.47582 183.587M2.18307 175.408L16.1412 165.419M16.1412 165.419L16.5638 176.376M-9.15614 188.512L-9.39003 188.854L-18.6271 206.688M-9.15614 188.512L-17.1141 203.877M-9.15614 188.512L-1.71794 193.057M6.47582 183.587L-1.71794 193.057M6.47582 183.587L16.1586 197.099M6.47582 183.587L16.5638 176.376M-18.6271 206.688L-23.3357 226.007M-18.6271 206.688L-17.1141 203.877M-17.1141 203.877L-21.1701 220.535L-10.3804 216.209M-17.1141 203.877L-7.45541 204.149M-1.71794 193.057L-7.45637 204.149M-1.71794 193.057L11.9794 201.929M-23.3357 226.007L-23.2452 245.547L-18.2489 264.014M-23.3357 226.007L-21.172 220.535L-21.0883 237.367M-18.2489 264.014L-8.62773 280.162M-18.2489 264.014L-16.782 253.231M-23.2443 245.547L-21.0883 237.367M-21.0883 237.367L-16.782 253.231M-21.0883 237.367L-10.2986 228.378L-10.3804 216.209M-8.62773 280.162L-2.74397 287.792L11.398 300.998M-8.62773 280.162L5.00319 292.883M-8.62773 280.162L-8.49876 267.085M-16.782 253.231L-8.49876 267.085M-16.782 253.231L-7.17339 239.78M11.398 300.998L28.7981 309.685M11.398 300.998L5.00319 292.883M5.00319 292.883L21.7757 301.235M5.00319 292.883L3.22257 277.973M-8.49876 267.085L3.22257 277.973M-8.49876 267.085L-1.1828 249.723M28.7981 309.685L39.7706 314.019L58.7723 317.517M28.7981 309.685L48.2839 313.187M28.7981 309.685L21.7757 301.235M58.7723 317.517L78.2802 315.696M58.7723 317.517L48.2839 313.187M48.2839 313.187L68.5012 311.275M48.2839 313.187L40.5666 304.584M21.7757 301.235L40.5666 304.584M21.7757 301.235L17.6216 285.091M78.2802 315.696L89.3442 313.961L106.9 307.057M78.2802 315.696L96.9354 308.555M78.2802 315.696L68.5012 311.275M106.9 307.057L122.088 295.491M106.9 307.057L96.9354 308.555M96.9354 308.555L88.0323 303.952M96.9354 308.555L113.408 296.564M68.5012 311.275L88.0323 303.952M68.5012 311.275L60.063 302.711M122.088 295.491L129.961 288.11L140.411 273.803M122.088 295.491L133.845 280.057M122.088 295.491L113.408 296.564M140.411 273.803L146.132 261.279L151.194 246.312M140.411 273.803L146.599 256.85M140.411 273.803L133.845 280.057M133.845 280.057L126.527 280.573M133.845 280.057L141.306 261.806M113.408 296.564L105.469 291.708M113.408 296.564L126.527 280.573M151.194 246.312L154.589 231.953M151.194 246.312L151.632 230.007M151.194 246.312L146.599 256.85M146.599 256.85L141.306 261.806M146.599 256.85L148.059 238.418M154.589 231.953L157.457 214.705M154.589 231.953L154.255 218.193M151.632 230.007L148.059 238.418M151.632 230.007L154.255 218.193M151.632 230.007L147.43 213.499M157.457 214.705L158.958 200.732L162.275 204.127L167.185 208.754M157.457 214.705L156.443 203.983M154.255 218.193L156.443 203.983M154.255 218.193L149.441 204.209M167.185 208.754L154.778 195.596M167.185 208.754L173.355 211.719M156.443 203.983L156.952 198.678M156.443 203.983L151.105 192.995M88.0323 303.952L105.469 291.708M88.0323 303.952L78.8953 295.624M60.063 302.711L78.8953 295.624M60.063 302.711L50.4967 286.26M60.063 302.711L40.5666 304.584M40.5666 304.584L33.7617 287.916M105.469 291.708L119.565 275.426M105.469 291.708L95.715 283.796M78.8953 295.624L95.715 283.796M78.8953 295.624L66.6311 280.149M50.4967 286.26L33.7617 287.916M50.4967 286.26L66.6311 280.149M50.4967 286.26L41.2654 263.307M126.527 280.573L119.565 275.426M126.527 280.573L135.338 261.699M119.565 275.426L129.289 256.256M119.565 275.426L109.32 268.078M95.715 283.796L109.32 268.078M95.715 283.796L81.0513 269.985M66.6311 280.149L81.0513 269.985M66.6311 280.149L52.8086 258.897M141.306 261.806L135.338 261.699M141.306 261.806L143.926 242.018M135.338 261.699L129.289 256.256M135.338 261.699L139.213 241.29M129.289 256.256L133.958 235.586M129.289 256.256L118.717 249.585M109.32 268.078L118.717 249.585M109.32 268.078L92.7245 256.498M81.0513 269.985L92.7245 256.498M81.0513 269.985L63.1353 251.594M139.213 241.29L133.958 235.586M139.213 241.29L143.926 242.018M133.958 235.586L133.351 214.895M133.958 235.586L123.249 229.641M118.717 249.585L123.249 229.641M118.717 249.585L100.801 240.646L104.73 223.526M92.7245 256.498L100.802 240.646L77.3043 230.582M92.7245 256.498L71.5052 241.927L77.3043 230.582M143.926 242.018L148.059 238.418M143.926 242.018L141.588 222.087M133.351 214.895L122.697 209.678M123.249 229.641L122.697 209.678M123.249 229.641L104.73 223.526M148.059 238.418L144.724 219.795M141.588 222.087L144.724 219.795M122.697 209.678L117.073 191.105M122.697 209.678L104.304 206.382M104.73 223.526L104.304 206.382M104.73 223.526L80.161 218.282M144.724 219.795L147.43 213.499M144.724 219.795L136.737 202.296M136.737 202.296L138.773 197.949M117.073 191.105L99.5351 190.439M104.304 206.382L99.5351 190.439M104.304 206.382L79.903 205.952M90.7918 176.759L78.7355 166.255M90.7918 176.759L70.3079 184.657M90.7918 176.759L99.5351 190.439M99.5351 190.439L99.205 190.498L76.5372 194.509M33.7617 287.916L17.6216 285.091M33.7617 287.916L29.2361 264.544M17.6216 285.091L3.85589 278.285L3.22257 277.973M17.6216 285.091L17.6177 262.564M147.43 213.499L149.441 204.209M147.43 213.499L138.773 197.949M138.773 197.949L140.361 190.992M149.441 204.209L151.105 192.995M149.441 204.209L140.361 190.992M140.361 190.992L141.691 182.517M140.361 190.992L127.628 179.503M127.628 179.503L128.828 173.315M151.105 192.995L151.129 192.719M151.105 192.995L141.691 182.517M141.691 182.517L141.963 179.638M141.691 182.517L128.828 173.315M128.828 173.315L129.784 165.329M128.828 173.315L113.437 166.069M129.784 165.329L114.541 159.989M129.784 165.329L134.516 167.755M129.784 165.329L130.228 159.935M113.437 166.069L114.541 159.989M114.541 159.989L114.564 159.819L115.593 152.213M114.541 159.989L98.0673 156.332M115.593 152.213L99.5438 149.381M115.593 152.213L116.665 144.347M115.593 152.213L127.612 155.165M98.0673 156.332L99.5438 149.381M99.5438 149.381L101.055 142.242M99.5438 149.381L83.6058 147.607M116.665 144.347L101.055 142.242M116.665 144.347L117.56 135.62M116.665 144.347L122.339 145.14M101.055 142.242L102.4 134.18M101.055 142.242L85.833 140.261L85.6626 140.239M83.6058 147.607L85.6626 140.239M85.6626 140.239L87.5318 131.942M85.6626 140.239L71.6024 138.479M102.4 134.18L117.56 135.62M102.4 134.18L103.816 125.358M102.4 134.18L87.5318 131.942M87.5318 131.942L89.476 122.655M87.5318 131.942L74.0279 129.082M71.6024 138.479L74.0279 129.082M71.6024 138.479L59.9071 137.095M74.0279 129.082L76.4987 118.587M74.0279 129.082L62.8745 125.803M59.9071 137.095L62.8745 125.803M59.9071 137.095L51.3851 136.18M62.8745 125.803L65.8313 113.441M62.8745 125.803L54.8443 122.349M51.3851 136.18L54.8443 122.349M51.3851 136.18L46.5668 135.786M54.8443 122.349L58.2112 107.601M54.8443 122.349L50.4361 118.967M46.5668 135.786L50.4361 118.967M50.4361 118.967L54.1099 101.49M50.4361 118.967L49.8971 115.892M117.56 135.62H117.588M117.56 135.62L117.565 135.574M103.816 125.358L89.476 122.655M103.816 125.358L105.388 117.356M103.816 125.358L112.882 126.048M89.476 122.655L91.5627 114.218M89.476 122.655L76.4987 118.587M76.4987 118.587L79.0955 109.051M76.4987 118.587L65.8313 113.441M65.8313 113.441L68.8901 102.209M65.8313 113.441L58.2112 107.601M58.2112 107.601L61.6482 94.1958M58.2112 107.601L54.1099 101.49M54.1099 101.49L53.7673 95.5375M54.1099 101.49L57.8271 85.5959M49.8971 115.892L53.7673 95.5375M211.736 170.169L209.497 165.642L209.462 165.572M211.736 170.169L213.387 177.071M211.736 170.169L217.328 176.132M209.462 165.572L208.93 164.495M209.462 165.572L209.532 165.649M213.387 177.071L206.864 164.42M213.387 177.071L213.108 184.489M213.387 177.071L219.562 183.092M217.328 176.132L219.562 183.092M217.328 176.132L222.153 176.175M217.328 176.132L213.488 170.092M208.93 164.495L208.015 162.645M208.93 164.495L212.857 166.356M209.532 165.649L213.488 170.092M209.532 165.649L212.857 166.356M208.015 162.645L206.224 159.025M208.015 162.645L211.508 159.981M212.857 166.356L218.074 170.674M212.857 166.356L217.222 162.363M206.224 159.025L205.922 158.415M206.224 159.025L211.508 159.981M211.508 159.981L217.222 162.363M211.508 159.981L215.802 152.156M205.922 158.415L205.914 158.399M205.922 158.415L210.412 151.188M205.914 158.399L203.95 153.293M205.914 158.399L206.716 163.48L206.718 163.49L206.864 164.42M210.412 151.188L215.802 152.156M210.412 151.188L215.11 139.387M210.412 151.188L205.366 151.186M203.95 153.293L203.36 151.76L203.314 151.641M203.95 153.293L205.366 151.186M206.864 164.42L205.734 171.035M203.314 151.641L202.366 149.178M203.314 151.641L205.366 151.186M205.366 151.186L210.718 138.852M202.366 149.178L201.232 146.232M202.366 149.178L207.065 138.851M201.232 146.232L200.775 145.044M201.232 146.232L204.397 139.379M207.065 138.851L210.718 138.852M207.065 138.851L213.276 122.654M207.065 138.851L204.397 139.379M200.775 145.044L199.584 141.95M200.775 145.044L202.895 140.399M204.397 139.379L211.277 121.849M204.397 139.379L202.895 140.399M199.584 141.95L193.419 122.047M199.584 141.95L199.698 146.288M202.895 140.399L210.372 121.332M193.419 122.047L187.209 100.543M193.419 122.047L192.639 124.058M187.209 100.543L181.566 79.5812M187.209 100.543L185.477 99.7812M192.639 124.058L185.477 99.7802M192.639 124.058L189.524 126.904M192.639 124.058L199.698 146.287M181.566 79.5812L176.39 60.4525M181.566 79.5812L178.907 75.9545M176.39 60.4525L171.88 45.7561M176.39 60.4525L172.85 54.1096M178.907 75.9545L172.85 54.1096M178.907 75.9545L173.742 73.53M178.907 75.9545L185.477 99.7802M171.88 45.7561L168.265 35.6354L163.218 25.4396M171.88 45.7561L167.528 37.1677M172.85 54.1096L167.528 37.1677M172.85 54.1096L166.751 49.1951M163.218 25.4396L159.457 20.7484L151.154 11.5661M163.218 25.4396L155.555 17.037M163.218 25.4396L167.528 37.1677M167.528 37.1677L160.582 30.203M151.154 11.5661L140.784 4.90467M151.154 11.5661L155.555 17.037M155.555 17.037L145.789 11.0204M155.555 17.037L160.582 30.203M140.784 4.90467L129.07 1.18172M140.784 4.90467L145.648 10.8481L145.789 11.0214M129.07 1.18172L116.788 0.702393M129.07 1.18172L134.605 7.77869M116.788 0.702393L104.786 3.50712M116.788 0.702393L122.754 7.59101M134.605 7.77869L145.789 11.0204M134.605 7.77869L122.754 7.59101M134.605 7.77869L140.927 22.9679M104.786 3.50712L100.001 5.04904L88.9024 10.8289M104.786 3.50712L93.8843 9.39666M104.786 3.50712L111.063 10.4804M122.754 7.59101L111.063 10.4804M122.754 7.59101L129.575 23.2345M88.9024 10.8289L79.7615 19.3316M88.9024 10.8289L93.8843 9.39666M93.8843 9.39666L100.348 16.2333M111.063 10.4804L100.348 16.2333M111.063 10.4804L118.245 26.1576M79.7615 19.3316L73.2108 29.9865M79.7615 19.3316L84.8455 17.9812M73.2108 29.9865L68.7072 37.571L65.2326 48.9246M73.2108 29.9865L69.662 42.0524M73.2108 29.9865L78.2956 28.6698M84.8455 17.9812L78.2956 28.6698M84.8455 17.9812L91.3674 24.4617M84.8455 17.9812L93.8843 9.39569M65.2326 48.9246L61.2382 61.2831L57.6539 77.0113L53.7673 95.5375M65.2326 48.9246L65.1594 60.9241M65.2326 48.9246L69.662 42.0524M69.662 42.0524L69.4147 54.7285M69.662 42.0524L74.6439 40.7049M78.2956 28.6698L74.6439 40.7049M78.2956 28.6698L84.7434 34.5834M65.1594 60.9241L61.2921 71.8494M65.1594 60.9241L68.5186 72.7426M65.1594 60.9241L69.4137 54.7285M61.2392 61.2841L61.2921 71.8494M61.2921 71.8494L57.8271 85.5959M61.2921 71.8494L64.8871 82.3166M57.6539 77.0094L57.8271 85.5959M57.8271 85.5959L61.6482 94.1958M105.388 117.356L91.5627 114.218M105.388 117.356L108.895 117.565M105.388 117.356L106.383 112.221M91.5627 114.218L93.5696 106.087M91.5627 114.218L79.0955 109.051M79.0955 109.051L81.5835 100.077M79.0955 109.051L68.8901 102.209M68.8901 102.209L71.7978 91.9561M68.8901 102.209L61.6482 94.1958M61.6482 94.1958L64.8871 82.3166M93.5696 106.087L81.5835 100.077M93.5696 106.087L95.9296 99.2508M93.5696 106.087L104.898 109.061M81.5835 100.077L84.4402 92.6125M81.5835 100.077L71.7978 91.9561M71.7978 91.9561L75.0886 83.5611M71.7978 91.9561L64.8871 82.3166M64.8871 82.3166L68.5186 72.7426M95.9296 99.2508L84.4402 92.6125M95.9296 99.2508L100.888 100.721M95.9296 99.2508L98.2261 95.1987M84.4402 92.6125L87.5693 87.8192M84.4402 92.6125L75.0886 83.5611M75.0886 83.5611L78.6816 78.4339M75.0886 83.5611L68.5186 72.7426M68.5186 72.7426L72.4937 67.1409M87.5693 87.8192L78.6816 78.4339M87.5693 87.8192L91.0844 85.7402M87.5693 87.8192L97.7093 94.1255M78.6816 78.4339L82.7029 76.5974M78.6816 78.4339L72.4937 67.1409M72.4937 67.1409L76.9385 65.5229M72.4937 67.1409L69.4137 54.7285M69.4137 54.7285L74.1829 53.2799M91.0844 85.7402L82.7029 76.5974M91.0844 85.7402L94.4021 87.8375M91.0844 85.7402L93.6379 86.5863M82.7029 76.5974L87.6329 78.9373M82.7029 76.5974L76.9385 65.5229M76.9385 65.5229L82.4113 68.8378M76.9385 65.5229L74.1829 53.2799M74.1829 53.2799L80.0994 57.5621M74.1829 53.2799L74.6439 40.7049M74.6439 40.7049L80.8886 45.8735M87.6329 78.9373L93.1586 85.8009M87.6329 78.9373L82.4113 68.8378M82.4113 68.8378L88.5588 77.3742L93.1586 85.8009M82.4113 68.8378L80.0994 57.5621M80.0994 57.5621L86.7724 67.8127M80.0994 57.5621L80.8886 45.8735M80.8886 45.8735L87.964 57.7584M80.8886 45.8735L84.7434 34.5834M84.7434 34.5834L92.0777 47.9121M84.7434 34.5834L91.3674 24.4617M94.4021 87.8375L95.0249 88.8558M94.4021 87.8375L93.6379 86.5863M93.6379 86.5863L93.1586 85.8009M86.7724 67.8127L94.8872 83.3917M86.7724 67.8127L87.964 57.7584M87.964 57.7584L96.587 75.5551M87.964 57.7584L92.0777 47.9121M92.0777 47.9121L101.037 67.6616M92.0777 47.9121L98.8094 38.9493M91.3674 24.4617L98.8094 38.9493M91.3674 24.4617L100.348 16.2333M98.8094 38.9493L107.917 60.2552M98.8094 38.9493L107.74 31.5197M100.348 16.2333L107.74 31.5197M107.74 31.5197L116.793 53.8767M107.74 31.5197L118.245 26.1576M118.245 26.1576L127.04 48.9872M118.245 26.1576L129.575 23.2345M145.789 11.0204L151.501 25.3616L160.582 30.203M160.582 30.203L166.751 49.1931M94.8872 83.3917L95.9931 90.443L96.023 90.6297M94.8872 83.3917L104.056 103.646M94.8872 83.3917L96.587 75.557M101.037 67.6616L96.587 75.557M101.037 67.6616L111.185 92.9368M101.037 67.6616L107.917 60.2571L118.238 87.4217M116.793 53.8767L107.917 60.2542M116.793 53.8767L127.051 82.3243M116.793 53.8767L127.04 48.9872M127.04 48.9872L137 78.0152M127.04 48.9872L137.923 45.9312M129.575 23.2345L137.923 45.9332M129.575 23.2345L140.927 22.9679M140.927 22.9679L148.664 44.9399M140.927 22.9679L151.501 25.3636L158.495 46.0689L166.751 49.1951M166.751 49.1951L173.742 73.5319M96.587 75.557L106.343 98.4731M118.238 87.4217L111.185 92.9349M118.238 87.4217L129.757 117.674M118.238 87.4217L127.051 82.3243M127.051 82.3243L138.434 113.791M127.051 82.3243L137 78.0152M137 78.0152L147.986 109.947M137 78.0152L147.368 74.8014M137.923 45.9312L147.368 74.8014M137.923 45.9312L148.664 44.9379M147.368 74.8014L157.726 106.42M147.368 74.8014L157.409 72.9178M148.664 44.9379L157.409 72.9178M148.664 44.9379L158.495 46.0669L166.402 72.4953M157.409 72.9178L166.948 103.463M157.409 72.9178L166.402 72.4953M166.402 72.4953L173.742 73.53M166.402 72.4953L174.99 101.287M173.742 73.53L181.317 100.03M181.317 100.03L174.99 101.287M181.317 100.03L189.524 126.904M181.317 100.03L185.477 99.7802M104.056 103.644L104.447 108.101M104.056 103.644L114.438 126.914M104.056 103.644L106.343 98.4712M114.438 126.914L114.031 128.49M114.438 126.914L125.85 150.868M114.438 126.914L117.341 124.47M106.343 98.4712L117.341 124.47M106.343 98.4712L111.185 92.9349M117.341 124.47L129.391 151.039M117.341 124.47L122.57 121.315M111.185 92.9349L122.57 121.315M122.57 121.315L135.004 150.164M122.57 121.315L129.757 117.674M129.757 117.674L142.299 148.305M129.757 117.674L138.434 113.791M138.434 113.791L150.792 145.571M138.434 113.791L147.986 109.947M147.986 109.947L159.884 142.154M147.986 109.947L157.726 106.42M157.726 106.42L168.918 138.299M157.726 106.42L166.948 103.463M166.948 103.463L177.244 134.283M166.948 103.463L174.99 101.287M174.99 101.287L184.268 130.395M189.524 126.904L184.268 130.395M189.524 126.904L197.598 151.328M125.85 150.868L124.602 149.676M125.85 150.868L137.775 173.471L141.874 175.776M125.85 150.868L129.391 151.039M129.391 151.039L141.874 175.776M129.391 151.039L135.004 150.164M135.004 150.164L147.778 176.733M135.004 150.164L142.299 148.305M142.299 148.305L155.073 176.282M142.299 148.305L150.792 145.571M150.792 145.571L163.277 174.419M150.792 145.571L159.884 142.154M159.884 142.154L171.807 171.272M159.884 142.154L168.918 138.299M168.918 138.299L180.056 167.067M168.918 138.299L177.244 134.283M177.244 134.283L187.431 162.098M177.244 134.283L183.956 130.568L184.268 130.395M184.268 130.395L193.407 156.724L197.598 151.328M197.598 151.328L205.734 171.035M197.598 151.328L199.698 146.287M199.698 146.287L206.469 163.418L206.479 163.444L206.864 164.419M141.874 175.776L154.778 195.596M141.874 175.776L147.778 176.733M147.778 176.733L160.888 197.865M147.778 176.733L155.073 176.282M155.073 176.282L168.101 198.425M155.073 176.282L163.277 174.419M163.277 174.419L175.934 197.2M163.277 174.419L171.807 171.272M171.807 171.272L183.838 194.266M171.807 171.272L180.056 167.067M180.056 167.067L191.255 189.833M180.056 167.067L187.431 162.099M205.734 171.035L202.586 177.787M205.734 171.035L213.108 184.489M154.778 195.596L150.197 191.764M154.778 195.596L160.888 197.865M160.888 197.865L173.355 211.719M160.888 197.865L168.101 198.425M168.101 198.425L180.358 212.833M168.101 198.425L175.934 197.201M183.838 194.266L175.934 197.201M183.838 194.266L194.944 209.211M183.838 194.266L191.255 189.833M191.255 189.833L201.51 204.722M191.255 189.833L197.653 184.206M187.431 162.099L188.764 164.982L188.789 165.037L189.236 166.003L189.271 166.079L197.653 184.206M187.431 162.099L193.407 156.725L202.586 177.787M197.653 184.206L206.959 198.816M197.653 184.206L202.586 177.787M202.586 177.787L210.908 191.907M213.108 184.489L210.908 191.907M213.108 184.489L220.024 190.494M173.355 211.719L180.358 212.833M173.355 211.719L185.353 216.394L192.049 217.701M180.358 212.833L192.049 217.701M180.358 212.833L187.726 211.98M175.934 197.201L187.726 211.98M187.726 211.98L198.883 217.07M187.726 211.98L194.944 209.211M194.944 209.211L205.385 214.538M194.944 209.211L201.51 204.722M201.51 204.722L211.106 210.277M201.51 204.722L206.959 198.816M206.959 198.816L215.643 204.573M206.959 198.816L210.766 192.154L210.908 191.907M210.908 191.907L218.679 197.82M220.024 190.494L218.679 197.82M220.024 190.494L225.876 189.133M220.024 190.494L219.562 183.092M219.562 183.092L224.818 182.472M192.049 217.701L198.883 217.07M198.883 217.07L205.385 214.538M205.385 214.538L211.106 210.277M205.385 214.538L214.419 210.485L219.33 206.748M211.106 210.277L219.33 206.748M211.106 210.277L215.643 204.573M215.643 204.573L223.03 201.701M215.643 204.573L218.679 197.82M218.679 197.82L225.256 195.689M225.876 189.133L225.256 195.689M225.876 189.133L231.055 180.818M225.876 189.133L224.818 182.472M224.818 182.472L229.522 175.479M224.818 182.472L222.153 176.175M222.153 176.175L226.552 170.394M222.153 176.175L218.074 170.674M213.488 170.092L218.074 170.674M219.33 206.748L223.03 201.701M223.03 201.701L225.256 195.689M223.03 201.701L229.543 190.788M225.256 195.689L231.052 186.038M231.055 180.818L231.052 186.038M231.055 180.818L235.357 167.115M231.055 180.818L229.522 175.479M229.522 175.479L233.464 163.43M229.522 175.479L226.552 170.394M226.552 170.394L230.307 159.856M226.552 170.394L222.358 165.916M218.074 170.674L222.358 165.916M231.052 186.038L229.543 190.788M231.052 186.038L235.865 170.653M229.543 190.788L234.979 173.808L235.865 170.653M235.865 170.653L235.357 167.115M235.865 170.653L239.979 151.392M235.357 167.115L239.045 149.648M235.357 167.115L233.464 163.43M233.464 163.43L236.883 147.686M233.464 163.43L230.307 159.856M230.307 159.856L233.639 145.642M230.307 159.856L226.111 156.64M222.358 165.916L226.111 156.64M222.358 165.916L217.222 162.363M226.111 156.64L229.537 143.659M226.111 156.64L221.16 154.011M217.222 162.363L221.16 154.011M221.16 154.011L224.861 141.877M221.16 154.011L215.802 152.156M239.045 149.648L239.979 151.392M239.045 149.648L242.493 130.757M239.045 149.648L236.883 147.686M236.883 147.686L240.137 130.319M236.883 147.686L233.639 145.642M233.639 145.642L236.879 129.582M233.639 145.642L229.537 143.659M229.537 143.659L232.948 128.597M229.537 143.659L224.861 141.877M224.861 141.877L228.614 127.43M224.861 141.877L219.937 140.421M215.802 152.156L219.937 140.421M219.937 140.421L224.181 126.164M219.937 140.421L215.11 139.387M239.979 151.392L243.791 130.867M239.979 151.392L243.962 130.648M242.493 130.757L243.791 130.867M242.493 130.757L245.634 112.713M242.493 130.757L240.137 130.319M240.137 130.319L243.153 113.379M240.137 130.319L236.879 129.582M236.879 129.582L239.961 113.523M236.879 129.582L232.948 128.597M232.948 128.597L236.28 113.134M232.948 128.597L228.614 127.43M228.614 127.43L232.365 112.236M228.614 127.43L224.181 126.164M224.181 126.164L224.322 125.666L228.488 110.891M224.181 126.164L219.956 124.889M215.11 139.387L219.956 124.889M215.11 139.387L210.718 138.852M219.956 124.889L224.913 109.199M219.956 124.889L216.234 123.691M210.718 138.852L216.234 123.691M216.234 123.691L221.895 107.272M216.234 123.691L213.276 122.654M243.791 130.867L243.962 130.648M243.791 130.867L247.236 111.571M243.962 130.648L247.865 110.04M247.236 111.571L245.634 112.713M247.236 111.571L247.865 110.04M247.236 111.571L251.179 95.9379M245.634 112.713L249.346 97.7359M245.634 112.713L243.153 113.379M243.153 113.379L246.828 98.9294M243.153 113.379L239.961 113.523M239.961 113.523L243.795 99.4337M239.961 113.523L236.28 113.134M236.28 113.134L240.458 99.2152M236.28 113.134L232.365 112.236M232.365 112.236L237.046 98.2864M232.365 112.236L228.488 110.891M228.488 110.891L233.795 96.7098M228.488 110.891L224.913 109.199M224.913 109.199L225.082 108.793L230.926 94.602M224.913 109.199L221.895 107.272M221.895 107.272L228.641 92.1033M221.895 107.272L219.64 105.246M213.276 122.654L219.64 105.246M213.276 122.654L211.277 121.849M219.64 105.246L227.097 89.3852M219.64 105.246L218.296 103.26M211.277 121.849L218.296 103.26M211.277 121.849L210.372 121.332M218.296 103.26L226.395 86.6373M218.296 103.26L217.955 101.45M210.372 121.332L217.955 101.45M249.346 97.7359L251.179 95.9379M249.346 97.7359L253.697 87.5622M249.346 97.7359L246.828 98.9294M246.828 98.9294L251.242 88.7962M246.828 98.9294L243.795 99.4337M243.795 99.4337L248.473 89.2793M243.795 99.4337L240.458 99.2152M240.458 99.2152L245.578 88.979M240.458 99.2152L237.046 98.2864M237.046 98.2864L242.758 87.9136M237.046 98.2864L233.795 96.7098M233.795 96.7098L240.206 86.1541M233.795 96.7098L230.926 94.602M230.926 94.602L238.091 83.8306M230.926 94.602L228.641 92.1033M228.641 92.1033L236.563 81.0933M228.641 92.1033L227.097 89.3852M227.097 89.3852L235.731 78.1326M227.097 89.3852L226.395 86.6373M226.395 86.6373L235.643 75.1508M226.395 86.6373L226.583 84.0482M217.955 101.45L226.583 84.0482M217.955 101.45L218.637 99.94L227.646 81.793M247.865 110.04L252.196 93.7299M251.179 95.9379L255.27 86.5747M251.179 95.9379L252.196 93.7299M253.697 87.5622L254.321 87.1705L255.27 86.5747M253.697 87.5622L251.242 88.7962M251.242 88.7962L255.421 86.0752M251.242 88.7962L248.473 89.2793M248.473 89.2793L254.204 85.6141M248.473 89.2793L245.578 88.979M245.578 88.979L245.774 88.8626L252.35 84.9115M245.578 88.979L242.758 87.9136M242.758 87.9136L250.222 83.8422M242.758 87.9136L240.206 86.1541M240.206 86.1541L248.432 82.179M240.206 86.1541L238.091 83.8306M238.091 83.8306L247.097 80.0442M238.091 83.8306L236.563 81.0933M236.563 81.0933L246.313 77.5744M236.563 81.0933L235.731 78.1326M235.731 78.1326L246.137 74.94M235.731 78.1326L235.643 75.1508M235.643 75.1508L246.577 72.322M235.643 75.1508L236.312 72.3528M226.583 84.0482L236.312 72.3528M226.583 84.0482L227.646 81.793M227.646 81.793L227.774 81.6429L237.689 69.9321M236.312 72.3528L247.606 69.8994M236.312 72.3528L237.689 69.9321M252.196 93.7299L255.584 86.3774M255.27 86.5747L255.579 86.3803L255.584 86.3774M255.584 86.3774L255.822 86.2273M255.421 86.0752L255.478 86.0973L255.676 86.1724H255.679L255.822 86.2273M255.421 86.0752L255.291 86.0271L254.204 85.6141M254.204 85.6141L252.35 84.9115M252.35 84.9115L250.222 83.8422M250.222 83.8422L255.473 85.8509L255.774 85.9655L260.224 87.6662M250.222 83.8422L248.432 82.179M248.432 82.179L248.768 82.3137L255.896 85.1675L255.937 85.1839L259.186 86.4852M248.432 82.179L247.097 80.0442M247.097 80.0442L256.549 84.0963L256.62 84.1271L257.876 84.6651L258.133 84.7758L258.568 84.9616M247.097 80.0442L246.313 77.5744M246.313 77.5744L258.418 83.1954M246.313 77.5744L246.137 74.94M246.137 74.94L258.747 81.306M246.137 74.94L246.577 72.322M246.577 72.322L259.532 79.4243M246.577 72.322L247.606 69.8994M247.606 69.8994L260.72 77.6793M247.606 69.8994L249.155 67.8406M237.689 69.9321L249.155 67.8406M237.689 69.9321L239.668 68.0437M255.822 86.2273L260.63 88.0483M260.63 88.0483L272.605 99.3038M260.63 88.0483L260.224 87.6662M260.224 87.6662L259.186 86.4852M259.186 86.4852L260.718 87.9357L260.976 88.1802L272.211 98.8177M259.186 86.4852L258.568 84.9616M258.568 84.9616L272.153 98.0968M258.568 84.9616L258.531 84.5256L258.519 84.3879L258.418 83.1954M258.418 83.1954L272.439 97.1872M258.418 83.1954L258.747 81.306M258.747 81.306L273.051 96.1526M258.747 81.306L259.532 79.4243M259.532 79.4243L273.946 95.0611L275.063 93.9917M259.532 79.4243L260.72 77.6793M260.72 77.6793L275.063 93.9917M260.72 77.6793L262.23 76.1922M249.155 67.8406L262.23 76.1922M249.155 67.8406L251.108 66.2785M239.668 68.0437L251.108 66.2785M239.668 68.0437L242.126 66.8233M262.23 76.1922L276.328 93.0148M262.23 76.1922L263.956 75.0603M251.108 66.2785L251.277 66.394L263.956 75.0603M251.108 66.2785L253.34 65.3275M272.605 99.3038L277.48 104.949L286.953 115.971M272.605 99.3038L272.211 98.8177M272.211 98.8177L272.153 98.0968M272.153 98.0968L287.199 115.894M272.153 98.0968L272.439 97.1872M272.439 97.1872L287.647 115.653M272.439 97.1872L273.051 96.1526M273.051 96.1526L288.268 115.263M273.051 96.1526L273.946 95.062L289.019 114.753M275.063 93.9917L289.847 114.156M275.063 93.9917L276.328 93.0148M276.328 93.0148L290.697 113.514M276.328 93.0148L277.65 92.1957M263.956 75.0603L277.65 92.1957M263.956 75.0603L265.782 74.3664M253.34 65.3275L265.782 74.3664M253.34 65.3275L242.126 66.8233M253.34 65.3275L255.696 65.0503M253.34 65.3275L244.891 66.3536L242.126 66.8233M277.65 92.1957L291.512 112.871M277.65 92.1957L278.94 91.5951M265.782 74.3664L278.94 91.5951M265.782 74.3664L267.582 74.1556M255.696 65.0503L267.582 74.1556M255.696 65.0503L258.017 65.4642M278.94 91.5951L292.232 112.271M278.94 91.5951L280.111 91.2515M267.582 74.1556L280.111 91.2515M267.582 74.1556L269.233 74.4424M286.953 115.971L287.199 115.894M286.953 115.971L302.42 131.521L302.67 131.665M287.199 115.894L302.67 131.665M287.199 115.894L287.647 115.653M287.647 115.653L302.998 131.695M287.647 115.653L288.268 115.263M288.268 115.263L303.379 131.611M288.268 115.263L289.019 114.753M289.019 114.753L303.79 131.419M289.019 114.753L289.847 114.156M289.847 114.156L304.2 131.129M289.847 114.156L290.697 113.514M290.697 113.514L304.583 130.763M290.697 113.514L291.512 112.871M291.512 112.871L304.912 130.347M291.512 112.871L292.232 112.271M292.232 112.271L305.166 129.908M292.232 112.271L292.812 111.755M280.111 91.2515L292.812 111.755M280.111 91.2515L281.081 91.1889M269.233 74.4424L258.017 65.4642M269.233 74.4424L281.081 91.1889M269.233 74.4424L270.62 75.2076M258.017 65.4642L260.14 66.5422L270.62 75.2076M292.812 111.755L305.324 129.477M292.812 111.755L293.209 111.357M281.081 91.1889L293.209 111.357M281.081 91.1889L281.783 91.4122M270.62 75.2076L281.783 91.4122M270.62 75.2076L271.65 76.3972L282.17 91.9041M293.209 111.357L305.38 129.083M293.209 111.357L293.398 111.107M281.783 91.4122L293.398 111.107M281.783 91.4122L282.17 91.9041M282.17 91.9041L293.365 111.019M293.398 111.107L305.327 128.751M293.398 111.107L293.365 111.019M302.67 131.665L302.998 131.695M302.67 131.665L317.51 138.638M302.998 131.695L317.51 138.638M302.998 131.695L303.379 131.611M303.379 131.611L303.76 131.801L317.51 138.638M303.379 131.611L303.79 131.419M303.79 131.419L317.51 138.638M303.79 131.419L304.2 131.129M304.2 131.129L317.51 138.638M304.2 131.129L304.583 130.763M304.583 130.763L317.51 138.638M304.583 130.763L304.912 130.347M304.912 130.347L317.51 138.638M304.912 130.347L305.166 129.908M305.166 129.908L317.51 138.638M305.166 129.908L305.324 129.477M305.324 129.477L317.51 138.638M305.324 129.477L305.38 129.083M305.38 129.083L317.51 138.638M305.38 129.083L305.327 128.751M305.327 128.751L305.168 128.507M305.327 128.751L317.51 138.638M293.365 111.019L305.168 128.507M317.51 138.638L305.168 128.507M3.22257 277.973L7.27084 257.508M17.6177 262.564L7.27084 257.508M17.6177 262.564L29.2361 264.544M17.6177 262.564L21.846 237.261M7.27084 257.508L16.6129 234.739M7.27084 257.508L-1.1828 249.723M-1.1828 249.723L12.3057 230.817M-1.1828 249.723L-7.17339 239.78M29.2361 264.544L41.2654 263.307M29.2361 264.544L27.7827 238.24M21.846 237.261L16.6129 234.739M21.846 237.261L27.7817 238.24M21.846 237.261L29.0243 213.583M16.6129 234.739L29.0243 213.583M16.6129 234.739L12.3057 230.817M41.2654 263.307L52.8086 258.897M41.2654 263.307L33.9148 237.582M27.7817 238.24L29.2024 213.358M27.7817 238.24L33.9148 237.582M29.0243 213.583L29.0849 213.466M12.3057 230.817L9.24012 225.785M12.3057 230.817L29.0849 213.466M-7.17339 239.78L9.24012 225.785M-7.17339 239.78L-10.2996 228.378L7.63563 220.019M29.2024 213.358L29.0849 213.466M29.2024 213.358L7.57596 213.77M29.2024 213.358L29.109 213.246M29.2024 213.358L33.1351 190.479M29.2024 213.358L29.3198 213.25M29.2024 213.358L53.5555 214.799M29.2024 213.358L29.2957 213.47M33.9148 237.582L39.7186 235.346M33.9148 237.582L29.3304 213.59M29.0849 213.466L28.9646 213.512M9.24012 225.785L28.9646 213.512M9.24012 225.785L7.63563 220.019M28.9646 213.512L7.63563 220.019M7.63563 220.019L7.57596 213.77M7.57596 213.77L-10.3804 216.209M7.57596 213.77L9.06879 207.568M29.109 213.246L29.0772 213.126L27.0493 191.178M29.109 213.246L29.0012 213.194M29.109 213.246L16.1586 197.099M33.1351 190.479L27.0493 191.178M33.1351 190.479L39.7196 170.526M33.1351 190.479L39.0545 191.396M29.3198 213.25L29.4401 213.204M29.3198 213.25L29.3814 213.133M29.3198 213.25L48.6564 197.723M53.5555 214.799L53.4497 208.509M53.5555 214.799L80.161 218.282M53.5555 214.799L52.081 221.064M29.2957 213.47L29.3304 213.59M29.2957 213.47L29.4055 213.522M29.2957 213.47L44.9287 231.649M-10.3804 216.209L-7.45541 204.149M-7.45541 204.149L9.06879 207.568M9.06879 207.568L29.0012 213.194M9.06879 207.568L11.9794 201.929M29.0012 213.194L11.9794 201.929M11.9794 201.929L16.1586 197.099M16.1586 197.099L21.3079 193.425M21.3079 193.425L29.0753 213.126M21.3079 193.425L27.0493 191.178M21.3079 193.425L16.5638 176.376M27.0493 191.178L27.1368 189.108L27.1397 189.069L27.8683 171.926M16.5638 176.376L27.8683 171.926M27.8683 171.926L36.5491 170.9L36.5876 170.896L39.7196 170.526M39.7196 170.526L51.2715 172.266M51.2715 172.266L39.0545 191.396M51.2715 172.266L61.681 177.071M39.0545 191.396L29.3814 213.133M39.0545 191.396L44.305 193.852M78.7355 166.255L61.681 177.071M61.681 177.071L44.305 193.852M61.681 177.071L70.3079 184.657M29.3814 213.133L44.305 193.852M44.305 193.852L48.6564 197.723M70.3079 184.657L48.6574 197.723M70.3079 184.657L76.5372 194.509M29.4401 213.204L51.7826 202.731M29.4401 213.204L53.4497 208.509M48.6564 197.723L51.7826 202.731M51.7826 202.731L53.4497 208.509M51.7826 202.731L76.5372 194.509M53.4497 208.509L79.903 205.952M76.5372 194.509L79.903 205.952M79.903 205.952L80.161 218.282M80.161 218.282L77.3023 230.582M52.081 221.064L77.3043 230.582M52.081 221.064L29.4055 213.522M52.081 221.064L49.155 226.767M29.4055 213.522L49.155 226.767M49.155 226.767L71.5033 241.927L63.1353 251.594M49.155 226.767L44.9287 231.649M63.1353 251.594L44.9287 231.649M63.1353 251.594L52.8086 258.897M29.3304 213.59L39.7186 235.346M44.9287 231.649L39.7186 235.346M39.7186 235.346L52.8086 258.897" stroke="url(#paint0_linear_3059_2277)" stroke-width="0.9625" stroke-linecap="round" stroke-linejoin="round"/>
</g>
</g>
</g>
</g>
<defs>
<linearGradient id="paint0_linear_3059_2277" x1="30.8001" y1="255.859" x2="259.394" y2="-35.7783" gradientUnits="userSpaceOnUse">
<stop stop-color="#E9EBF1" stop-opacity="0"/>
<stop offset="1" stop-color="#E9EBF1"/>
</linearGradient>
<clipPath id="clip0_3059_2277">
<rect width="308" height="308" fill="white" transform="translate(0 0.31543)"/>
</clipPath>
<clipPath id="clip1_3059_2277">
<rect width="308" height="308" fill="white" transform="translate(0 0.31543)"/>
</clipPath>
<clipPath id="clip2_3059_2277">
<rect width="333.025" height="308" fill="white" transform="translate(-12.5125 0.31543)"/>
</clipPath>
</defs>
</svg>
