<svg width="228" height="241" viewBox="0 0 228 241" fill="none" xmlns="http://www.w3.org/2000/svg">
<g clip-path="url(#clip0_3059_2306)">
<path d="M243.6 247.299L244.814 245.394M243.6 247.299L242.801 246.957M243.6 247.299L236.922 251.528M243.6 247.299L257.263 251.614M257.263 251.614L236.162 264.344L223.889 260.581M257.263 251.614L269.38 253.795M257.263 251.614L271.562 228.12M223.889 260.581L219.036 263.839M223.889 260.581L234.089 253.73L248.267 242.71M269.38 253.795L247.834 266.332M269.38 253.795L279.76 253.846M271.562 228.12L265.667 226.177M271.562 228.12L283.089 230.372L269.381 253.796M271.562 228.12L272.782 218.351M219.036 263.839L224.399 264.745L247.834 266.332M219.036 263.839L218.666 264.088M248.267 242.71L260.928 231.247M248.267 242.71L252.17 230.852L235.81 243.545L228.135 223.491M260.928 231.247L271.843 219.569L280.823 207.903M260.928 231.247L266.764 217.671M280.823 207.903L284.694 201.489M280.823 207.903L289.63 190.908M292.948 230.592L301 228.816M292.948 230.592L283.089 230.373L285.1 202.466M292.948 230.592L293.726 202.835M292.948 230.592L279.76 253.846M301 228.816L288.253 251.812L279.76 253.846M301 228.816L307.139 225.122M301 228.816L300.781 201.462M285.099 202.465L284.217 202.278M293.725 202.835L285.099 202.466L284.694 201.489M293.725 202.835L300.781 201.462M293.725 202.835L289.254 193.558M284.694 201.489L287.724 196.47L292.807 186.805M292.807 186.805L300.781 201.462M292.807 186.805L295.783 181.151M247.834 266.332L257.868 266.29L266.117 264.26L288.252 251.813L294.749 247.781L299.186 241.867L311.305 219.617M247.834 266.332L236.161 264.344L219.765 263.35M218.666 264.088L202.296 273.577L185.303 282.004M218.666 264.088L217.999 255.492L199.09 266.445L189.456 247.671L189.409 247.58M311.305 219.617L313.471 212.437M311.305 219.617L307.139 225.122M311.305 219.617L309.839 193.75M279.76 253.846L257.868 266.289M313.471 212.437L313.647 203.738L311.919 180.113M313.471 212.437L311.754 187.608M307.139 225.122L306.172 198.404M307.139 225.122L294.75 247.781M309.839 193.75L311.754 187.608M309.839 193.75L298.255 176.135M311.919 180.113L310.367 171.411M311.919 180.113L311.754 187.608M311.919 180.113L302.071 167.236M311.754 187.608L300.261 171.456M310.367 171.411L307.154 161.666M310.367 171.411L303.452 162.966M302.071 167.236L300.261 171.456M302.071 167.236L302.891 165.324M307.154 161.666L304.932 156.744M307.154 161.666L304.486 158.618M304.932 156.744L305.688 153.565L305.915 142.766L302.195 118.406M304.932 156.744L303.452 162.966M303.452 162.966L302.891 165.324M302.195 118.406L299.815 108.437M302.195 118.406L284.829 99.0885M302.195 118.406L301.927 129.577M299.815 108.437L294.891 99.8165L278.07 81.5095M299.815 108.437L282.673 89.6535M300.781 201.462L306.173 198.404M306.173 198.404L309.84 193.75M306.173 198.404L295.783 181.151M295.783 181.151L297.522 177.845M298.255 176.135L297.522 177.845M298.255 176.135L300.261 171.456M297.522 177.845L289.63 190.908M297.522 177.845L293.276 154.792M302.891 165.324L298.956 141.774M222.005 56.3565L224.053 60.1805M226.939 60.6695L222.004 56.3565L209.07 45.9815M226.939 60.6695L229.517 61.1055M226.939 60.6695L224.053 60.1815L224.042 60.1795M209.07 45.9815L213.527 51.7485M209.07 45.9815L196.089 36.4855M229.517 61.1055L251.074 65.7715L262.09 69.5005M229.517 61.1055L207.528 70.5465M229.517 61.1055L239.085 64.3615M224.042 60.1795L218.394 59.2215M224.042 60.1795L213.528 51.7485M218.394 59.2215L205.917 58.7155M218.394 59.2215L198.607 68.9725M205.917 58.7155L201.353 59.0015M205.917 58.7155L188.559 68.5185M213.527 51.7485L211.51 58.9425M213.527 51.7485L202.967 44.0275M196.089 36.4855L183.254 28.0175L170.758 20.7125M196.089 36.4855L202.968 44.0275M170.758 20.7125L158.794 14.6945M170.758 20.7125L182.412 31.2465M158.794 14.6945L147.554 10.0775L163.673 22.6995L172.736 26.3985L158.794 14.6945ZM182.412 31.2465L192.542 37.1555M182.412 31.2465L172.736 26.3965L177.999 47.9675M182.412 31.2465L185.38 51.6155M147.554 10.0785L137.225 6.95154M137.225 6.95154L127.986 5.39054L104.734 5.24854L95.493 5.31854L87.841 7.26854M137.225 6.95154L155.374 20.2225M87.841 7.26854L66.566 20.7515L60.251 24.8615M87.841 7.26854L113.449 7.16754M87.841 7.26854L81.943 11.1085L60.251 24.8615M60.251 24.8615L55.908 30.9205L44.925 53.9075L42.701 61.6495L42.566 70.7435L42.562 71.0855M42.562 71.0855L45.775 94.8135L47.528 104.518M42.562 71.0855L44.554 82.0785M42.562 71.0855L53.597 48.6105M155.374 20.2225L163.672 22.6985L171.099 45.2155M155.374 20.2225L147.983 19.0255M155.374 20.2225L164.799 43.4055M47.528 104.518L51.135 115.399M47.528 104.518L44.554 82.0785M44.554 82.0785L55.772 60.0055L60.195 72.8755M44.554 82.0785L48.687 94.4575L51.135 115.399M51.135 115.399L53.575 120.738M53.575 120.738L55.809 125.626M53.575 120.738L44.151 128.599M55.809 125.626L56.089 126.238L56.559 127.268M55.809 125.626L44.151 128.599M44.151 128.599L33.091 139.197M56.559 127.268L63.727 139.918M56.559 127.268L54.921 108.01M63.727 139.918L72.518 153.11M63.727 139.918L63.174 122.492M72.518 153.11L81.525 164.942M72.518 153.11L73.31 137.633L63.174 122.492M81.525 164.942L82.781 166.593L82.876 166.705M81.525 164.942L58.886 153.137L34.044 151.237M63.174 122.492L75.571 102.131M63.174 122.492L55.017 108.176L54.921 108.01M75.571 102.131L97.671 84.4935M75.571 102.131L66.824 86.9995L54.921 108.01M75.571 102.131L86.295 117.977M82.876 166.705L80.616 170.859L98.181 190.391M82.876 166.705L94.325 180.104M94.325 180.104L100.297 186.393M94.325 180.104L98.481 168.702M100.297 186.393L100.776 186.899M100.297 186.393L98.181 190.391M98.481 168.702L85.154 153.138M98.481 168.702L112.871 150.575M98.481 168.702L113.033 184.008M100.776 186.899L105.031 191.379M100.776 186.899L102.018 191.987M98.181 190.391L97.287 192.916M98.181 190.391L98.693 192.657M202.968 44.0275L192.543 37.1575M202.968 44.0275L201.353 59.0015M201.353 59.0015L192.302 59.5715M192.302 59.5715L177.774 61.7575L175.182 62.3485M192.302 59.5715L177.559 69.1775M183.254 28.0155L192.542 37.1555M192.542 37.1555L193.124 56.0865M193.124 56.0865L197.909 59.2175M193.124 56.0865L185.38 51.6135M193.124 56.0865L191.852 59.6375M185.38 51.6155L177.998 47.9685M185.38 51.6155L183.001 60.3935L182.837 60.9955M177.998 47.9685L171.099 45.2155M177.998 47.9685L175.182 62.3485M171.099 45.2155L164.799 43.4055M171.099 45.2155L168.668 63.8325M175.182 62.3485L163.192 65.0805M163.192 65.0805L164.799 43.4055M163.192 65.0805L153.441 73.7205M147.983 19.0255L141.636 19.1475M147.983 19.0255L159.208 42.5835M147.983 19.0255L127.987 5.39054L120.01 5.45254M164.799 43.4055L159.208 42.5835M141.636 19.1475L120.01 5.45254M141.636 19.1475L154.426 42.7705L159.208 42.5835M141.636 19.1475L136.454 20.6075M120.01 5.45254L95.494 5.31854M120.01 5.45254L113.449 7.16754M159.208 42.5835L158.37 69.3535L154.843 69.8635M153.441 73.7205L165.789 70.9235M153.441 73.7205L151.091 74.4215M153.441 73.7205L152.761 77.7065M113.449 7.16754L108.446 10.5395M113.449 7.16754L136.456 20.6075M108.446 10.5395L81.943 11.1095L77.943 16.8185M108.446 10.5395L105.116 15.5425M108.446 10.5395L132.544 23.3995M136.456 20.6075L150.545 43.9775M136.456 20.6075L132.546 23.4015M150.545 43.9775L154.427 42.7715L154.844 69.8645L151.87 70.8745M150.545 43.9775L151.87 70.8745M150.545 43.9775L147.639 46.1935L132.546 23.4015M151.87 70.8745L150.037 72.3455M151.87 70.8745L150.581 73.4135L151.091 74.4215M132.546 23.4015L129.997 27.5045M151.091 74.4215L151.147 74.5285L151.777 75.7685L151.848 75.9085L152.523 77.2385L152.935 78.0475M150.581 73.4145L149.554 71.3945L149.553 71.3925L149.314 70.9225L146.763 64.3905L145.317 58.5645L129.227 39.4075M75.954 24.3395L77.943 16.8195L55.907 30.9195L53.657 38.8695M77.942 16.8175L105.116 15.5425M105.116 15.5425L103.556 22.1245M105.116 15.5425L129.722 27.3705L129.995 27.5025M145.77 49.3935L147.637 46.1915L149.551 71.3905M145.77 49.3935L144.986 53.5385M145.77 49.3935L129.996 27.5025L128.875 32.8625M145.77 49.3935L147.337 65.8645M144.986 53.5385L145.315 58.5625M144.986 53.5385L145.675 60.0155M144.986 53.5385L128.875 32.8625M128.875 32.8625L103.556 22.1235M128.875 32.8625L129.225 39.4065M103.556 22.1235L75.953 24.3375M103.556 22.1235L103.827 30.1975L129.225 39.4065M129.225 39.4065L131.062 47.0335M53.658 38.8675L75.953 24.3375M53.658 38.8675L42.7 61.6485M53.658 38.8675L53.596 48.6085M75.953 24.3375L75.954 24.4805L76.058 33.5745M76.058 33.5745L53.596 48.6085M76.058 33.5745L78.303 44.3975L55.771 60.0045L53.596 48.6085M76.059 33.5755L103.828 30.1985L105.963 39.6455M105.963 39.6455L78.304 44.3985L82.69 56.6355M105.963 39.6455L109.953 50.3155M105.963 39.6455L131.063 47.0335M157.567 85.6415L152.934 78.0455L139.125 65.0215M157.567 85.6415L161.622 91.4115M157.567 85.6415L147.37 76.9005L147.295 76.8355L145.235 75.0695M139.125 65.0215L145.235 75.0695M139.125 65.0215L134.376 55.6195M139.125 65.0215L115.756 62.0275M145.235 75.0695L152.607 85.5825L132.429 87.7175M145.235 75.0695L123.29 74.5725M161.622 91.4115L161.783 91.6395L161.864 91.7555L163.137 93.5665L168.116 99.8695M161.622 91.4115L168.424 90.4415M168.116 99.8695L169.274 101.338L169.4 101.497L169.544 101.679M168.116 99.8695L168.126 99.5305L168.424 90.4415M168.424 90.4415L177.559 69.1775M169.544 101.679L173.489 106.189L173.537 106.243L176.673 109.828M169.544 101.679L161.112 96.3615M176.673 109.828L184.395 117.859M176.673 109.828L170.591 107.204M184.395 117.859L192.564 125.623M184.395 117.859L180.869 117.897M192.564 125.623L197.199 129.649M192.564 125.623L191.748 128.236M197.199 129.649L197.211 129.659L198.735 130.982M197.199 129.649L197.135 129.231M161.112 96.3615L152.608 85.5815L163.137 93.5675M161.112 96.3615L143.014 101.213M161.112 96.3615L170.591 107.204M197.135 129.231L207.149 104.933L204.979 100.484M197.135 129.231L195.505 125.749M82.69 56.6355L109.953 50.3155M82.69 56.6355L89.176 70.0805L66.825 87.0005L60.195 72.8755M82.69 56.6355L60.195 72.8755M109.953 50.3155L115.756 62.0275M109.953 50.3155L134.376 55.6215M115.756 62.0275L89.176 70.0815L97.671 84.4935M115.756 62.0275L123.29 74.5725M134.376 55.6215L131.102 47.1365L131.063 47.0365L146.761 64.3915M134.376 55.6215L149.313 70.9205M60.195 72.8755L48.688 94.4565L54.921 108.01M97.671 84.4935L108.039 99.6025M97.671 84.4935L123.29 74.5725M123.29 74.5725L132.429 87.7175M132.429 87.7175L108.039 99.6025M132.429 87.7175L138.241 95.1275L138.248 95.1355L138.434 95.3735L143.014 101.213M86.295 117.977L108.039 99.6045M86.295 117.977L98.807 134.233M86.295 117.977L73.311 137.632L85.154 153.138M108.039 99.6025L120.096 115.116M120.096 115.116L98.807 134.233M120.096 115.116L133.617 130.727M120.096 115.116L143.014 101.213M98.807 134.233L85.154 153.138M98.807 134.233L112.871 150.574M143.014 101.213L154.847 114.795M85.154 153.138L82.781 166.592M133.617 130.727L112.871 150.575M133.617 130.727L148.336 146.117M133.617 130.727L154.847 114.795M112.871 150.575L128.211 166.667M148.336 146.117L167.699 128.193L155.102 115.062L154.847 114.795M148.336 146.117L128.212 166.666M148.336 146.117L163.959 160.973M154.847 114.795L170.591 107.204M170.591 107.204L180.869 117.897M180.869 117.897L191.748 128.236M180.869 117.897L167.698 128.194L168.131 128.604L181.319 141.141M191.748 128.236L197.728 133.429L197.909 133.586L198.591 134.179M113.033 184.008L108.794 190.513M113.033 184.008L117.352 188.117M108.794 190.513L117.352 188.117M108.794 190.513L107.413 190.899M117.352 188.117L117.666 188.029M128.212 166.666L113.033 184.006M128.212 166.666L140.9 178.736M163.959 160.973L167.059 163.654M163.959 160.973L154.017 171.82M181.319 141.141L187.713 146.685M181.319 141.141L191.748 128.237M163.959 160.974L181.32 141.142M284.939 168.401L293.275 154.792M284.939 168.401L284.635 168.013L267.789 146.541M284.939 168.401L274.056 182.348M284.939 168.401L289.63 190.908M293.276 154.792L275.897 133.609L267.789 146.541M293.276 154.792L298.956 141.774M267.789 146.541L242.881 131.475M267.789 146.541L257.254 159.806L244.458 173.151L222.283 154.588M274.056 182.348L260.799 196.365M274.056 182.348L259.967 163.446L259.951 163.424L257.254 159.805L233.555 142.999M274.056 182.348L279.324 204.267L271.844 219.569M260.799 196.365L245.397 210.173M260.799 196.365L266.764 217.672M289.63 190.908L279.323 204.268L266.764 217.672M266.764 217.672L252.17 230.853L245.397 210.173M281.465 121.248L275.896 133.609L250.107 120.237L242.881 131.476M281.465 121.248L255.137 109.486M281.465 121.248L284.444 109.677M281.465 121.248L298.956 141.774M242.881 131.476L217.214 127.397M242.881 131.476L233.555 142.999M217.214 127.397L223.123 118.394M217.214 127.397L198.184 135.134L197.875 135.258M217.214 127.397L209.648 136.61M233.555 142.999L222.283 154.588M233.555 142.999L209.649 136.609M222.283 154.588L213.516 162.28L212.571 163.11L212.4 163.259L209.259 166.016M222.283 154.588L200.551 145.862M223.123 118.394L223.333 117.957L227.288 109.766M223.123 118.394L250.108 120.237L255.137 109.486M223.123 118.394L202.529 128.38L202.392 128.446M227.288 109.766L229.658 101.663M227.288 109.766L205.61 121.897M227.288 109.766L255.137 109.486M255.137 109.486L257.91 99.4125M202.392 128.446L205.61 121.897M202.392 128.446L198.606 134.157L198.59 134.18L198.356 134.535L198.135 134.866L198.063 134.976L197.875 135.258M197.875 135.258L197.512 135.699L197.354 135.889L195.772 137.803L195.684 137.91L192.128 142.214L190.575 143.785L190.198 144.169L188.579 145.808L188.486 145.901L185.245 149.184L182.66 151.429L177.347 156.041L168.575 162.656M205.61 121.897L207.482 115.727M207.482 115.727L207.993 110.042M207.482 115.727L199.702 132.504M168.575 162.656L167.16 163.588L167.059 163.655L159.088 168.905M168.575 162.656L178.423 163.784L190.079 154.978M159.088 168.905L165.801 172.109M159.088 168.905L154.016 171.821L153.962 171.853L149.063 174.669L138.688 179.84M165.801 172.109L178.423 163.785L194.722 177.059M165.801 172.109L157.912 176.645L157.759 176.735L152.45 179.788L152.246 179.48L149.063 174.667M165.801 172.109L178.949 187.495L194.722 177.059M194.722 177.059L209.259 166.016M209.259 166.016L229.622 186.309M209.259 166.016L190.079 154.98M229.622 186.309L244.457 173.15L260.799 196.363M229.622 186.309L213.023 199.018M229.622 186.309L245.397 210.173M138.688 179.84L138.63 186.675L152.45 179.789L162.248 197.117L178.949 187.496L194.979 211.017M138.688 179.84L128.835 184.032L128.156 184.32M128.156 184.32L117.666 188.029M128.156 184.32L124.606 192.634M117.666 188.029L110.649 197.556M107.413 190.899L106.314 191.12L97.586 192.882M107.413 190.899L97.026 201.351M97.586 192.882L93.093 196.542L92.978 196.636L83.995 203.954M97.586 192.882L95.252 193.151M97.026 201.351L84.17 203.92L83.997 203.954M97.026 201.351L110.649 197.556M95.252 193.151L88.362 193.947L85.926 193.986L85.489 193.992L79.909 194.081M95.252 193.151L78.859 175.625L78.089 180.099L51.789 171.536M79.909 194.081L72.368 193.293M79.909 194.081L60.647 205.461M33.091 139.197L23.531 149.911L15.639 160.577M33.091 139.197L48.1 133.918M15.639 160.577L9.56103 171.029M15.639 160.577L34.044 151.237M23.532 149.911L40.384 142.607M40.384 142.607L48.1 133.918M40.384 142.607L34.044 151.237M40.384 142.607L63.653 146.538M9.56103 171.029L5.42303 181.097M9.56103 171.029L29.196 159.673M34.044 151.237L29.197 159.674M9.56003 171.029L-3.16397 201.935M-3.16397 201.935L-5.60397 212.892M-3.16397 201.935L5.42303 181.097M5.42303 181.097L3.32903 190.613M5.42303 181.097L25.94 167.776M-5.60397 212.892L-5.64697 223.055L-0.231973 246.903L2.31803 256.644M-5.60397 212.892L3.32903 190.613M3.32903 190.613L3.35103 199.408M3.32903 190.613L24.35 175.408M7.43903 265.185L2.31903 256.644L-3.23697 232.237M7.43903 265.185L25.516 282.257L32.936 289.196M7.43903 265.185L15.1 272.348M7.43903 265.185L1.64203 240.259M-3.23697 232.237L-3.08497 232.487L1.64203 240.259M-3.23697 232.237L5.53003 207.32L9.87303 214.196M32.936 289.196L42.69 294.663M32.936 289.196L15.1 272.348M15.1 272.348L25.226 277.971M1.64203 240.259L9.87303 214.196M1.64203 240.259L8.95803 246.953M42.69 294.663L54.65 298.525L68.637 300.678M42.69 294.663L25.226 277.971M68.637 300.678L88.951 303.163L102.753 303.496M68.637 300.678L84.426 301.047L84.711 301.084L102.753 303.496M68.637 300.678L52.296 284.068M102.753 303.496L117.849 302.246L133.965 299.417M52.296 284.068L68.823 284.354M52.296 284.068L44.536 257.668M68.823 284.354L60.352 257.787M68.823 284.354L84.426 301.046L101.741 299.592M68.823 284.354L86.98 282.732M133.965 299.417L150.797 295.046M133.965 299.417L120.266 296.317M150.797 295.046L168.022 289.207L185.303 282.004M150.797 295.046L139.652 291.261M185.303 282.004L179.464 276.183L159.517 284.508M298.956 141.774L301.927 129.577M278.07 81.5095L271.153 74.7635M278.07 81.5095L252.829 74.8525M278.07 81.5095L282.673 89.6535M282.673 89.6535L284.829 99.0885M282.673 89.6535L256.703 81.9615M284.829 99.0885L284.443 109.676M284.829 99.0885L258.421 90.1885M271.153 74.7635L262.09 69.5005M271.153 74.7635L246.912 68.9605M262.09 69.5005L239.085 64.3615M252.829 74.8525L256.703 81.9615M252.829 74.8525L246.911 68.9605M252.829 74.8525L226.005 81.7955M256.703 81.9615L258.421 90.1885M256.703 81.9615L228.982 87.5665M239.085 64.3615L246.912 68.9605M239.085 64.3615L215.163 73.2295M207.528 70.5465L215.163 73.2295M207.528 70.5465L191.156 91.6965M207.528 70.5465L198.607 68.9725M215.163 73.2295L221.363 76.9945M215.163 73.2295L196.9 93.8185M188.559 68.5185L198.607 68.9725M188.559 68.5185L177.559 69.1775M188.559 68.5185L176.791 90.0035M177.559 69.1775L165.789 70.9235M301.927 129.577L284.443 109.676M301.927 129.577L305.688 153.564M257.91 99.4125L284.443 109.676M257.91 99.4125L258.421 90.1885M257.91 99.4125L229.657 101.664M207.993 110.042L230.216 94.2235M207.993 110.042L207.148 104.933M207.993 110.042L198.734 130.982M258.421 90.1885L230.216 94.2235M229.657 101.664L230.216 94.2235M229.657 101.664L207.482 115.729M230.216 94.2235L228.982 87.5665M228.982 87.5665L226.005 81.7955M228.982 87.5665L207.148 104.935M226.005 81.7955L221.363 76.9945M226.005 81.7955L204.978 100.484M221.363 76.9945L201.539 96.7615M204.979 100.484L201.539 96.7605M204.979 100.484L195.505 125.749M195.505 125.749L192.899 122.816M195.505 125.749L196.032 128.635M201.539 96.7615L196.9 93.8185M201.539 96.7615L192.899 122.816M192.899 122.816L193.612 126.534M192.899 122.816L189.368 120.48M246.912 68.9605L221.364 76.9935M196.9 93.8185L189.368 120.48M196.9 93.8185L191.156 91.6965M189.368 120.48L185.617 119.02M189.368 120.48L189.907 123.097M191.156 91.6965L184.413 90.4195M191.156 91.6965L185.047 118.48M198.607 68.9725L184.413 90.4195M184.413 90.4195L176.791 90.0035M184.413 90.4195L180.478 113.786M176.791 90.0035L168.424 90.4425M176.791 90.0035L174.946 107.855M165.789 70.9235L160.172 89.3485M165.789 70.9235L177.774 61.7585M48.1 133.918L62.624 137.971M48.1 133.917L56.09 126.237M63.653 146.538L66.203 143.632M63.653 146.538L58.887 153.136L55.277 159.572M63.653 146.538L71.227 151.17M29.197 159.674L25.94 167.776M29.197 159.674L55.277 159.572M55.277 159.572L52.894 165.74M55.277 159.572L80.218 170.68L80.618 170.858L78.86 175.624L52.894 165.74M25.94 167.776L24.35 175.408M25.94 167.776L52.894 165.74M24.35 175.408L24.48 182.435M24.35 175.408L51.79 171.535M52.894 165.74L51.79 171.535M51.79 171.535L52 176.858M91.155 193.623L78.091 180.098L78.332 184.2L51.999 176.856M-3.23497 232.237L-5.64497 223.054L3.35203 199.407L5.53103 207.319L26.352 188.73M3.35103 199.407L24.479 182.434M24.479 182.434L26.353 188.729M24.479 182.434L51.999 176.856M51.999 176.856L53.533 181.607M79.588 187.86L78.332 184.201L87.98 193.953M79.588 187.86L81.848 191.009M79.588 187.86L85.574 193.82M9.87303 214.196L16.346 219.894M9.87303 214.196L29.965 194.171M16.346 219.894L35.285 198.65M16.346 219.894L8.95803 246.953M16.346 219.894L24.879 224.289L18.64 252.165M8.95803 246.953L18.638 252.165M29.965 194.171L26.351 188.729L53.531 181.608M29.965 194.171L35.285 198.65M29.965 194.171L55.965 185.833L56.381 185.7M53.531 181.608L56.381 185.7M53.531 181.608L79.587 187.859M35.285 198.65L42.243 202.074M35.285 198.65L60.512 189.054M56.381 185.7L60.512 189.054M56.381 185.7L81.848 191.008L85.083 193.587L85.927 193.985M60.512 189.054L65.868 191.603M60.512 189.054L85.082 193.586M25.226 277.971L18.638 252.165M25.226 277.971L37.684 281.915M18.638 252.165L30.557 255.77L37.684 281.914M15.1 272.347L8.95803 246.952M42.243 202.074L50.742 204.364L72.368 193.291L65.868 191.603M42.243 202.074L65.868 191.603M65.868 191.603L80.501 194.071M35.355 227.276L24.88 224.29L42.245 202.075M35.355 227.276L30.557 255.772L44.537 257.669M35.355 227.276L47.615 228.774L44.536 257.668M35.355 227.276L50.57 204.621L50.743 204.365L60.648 205.462M44.536 257.668L60.352 257.787M60.648 205.462L47.615 228.773L61.46 228.728M60.648 205.462L71.797 205.328M54.65 298.526L37.685 281.915L52.296 284.069M60.352 257.787L77.729 256.094M60.352 257.787L61.46 228.729M61.46 228.729L76.65 227.119M61.46 228.729L71.797 205.328M71.797 205.328L83.997 203.954M71.797 205.328L88.364 193.945M83.997 203.954L76.65 227.118M101.741 299.592L117.85 302.245M101.741 299.592L120.268 296.316M101.741 299.592L86.98 282.732M86.98 282.732L106.434 279.204M77.73 256.094L86.98 282.733M77.73 256.094L96.351 252.594M77.73 256.094L76.65 227.118M96.351 252.594L115.865 247.333M96.351 252.594L92.909 223.951M76.65 227.118L92.91 223.952M120.268 296.316L139.653 291.261M120.268 296.316L106.434 279.204M106.434 279.204L126.813 273.815M115.865 247.333L135.886 240.4M115.865 247.333L109.934 219.273L101.158 221.684L100.905 221.754L100.273 221.928L100.221 221.942L92.909 223.951M115.865 247.333L126.813 273.816M92.909 223.951L97.027 201.35M110.649 197.556L109.934 219.274L127.394 213.162M110.649 197.556L124.606 192.634M139.653 291.261L159.518 284.508M139.653 291.261L126.813 273.815M126.813 273.815L147.717 266.654M106.433 279.206L96.351 252.595M135.886 240.4L156.017 231.919L168.725 257.851L147.717 266.654M135.886 240.4L127.394 213.161M127.394 213.162L144.949 205.729L156.017 231.92L175.85 222.06L189.41 247.58M127.394 213.162L124.607 192.635M124.606 192.634L138.631 186.674L138.74 187.004L144.949 205.728L162.25 197.115M159.518 284.508L168.023 289.206M159.518 284.508L147.717 266.654M147.717 266.654L135.887 240.399M189.41 247.58L168.726 257.852L179.465 276.184L199.092 266.446L202.297 273.578M189.41 247.58L209.348 236.047M209.348 236.047L228.135 223.491M209.348 236.047L218 255.491L235.811 243.545L234.09 253.729M162.248 197.116L175.848 222.059L194.979 211.017M194.979 211.017L209.347 236.047M194.979 211.017L213.023 199.018M213.023 199.018L212.854 198.814L194.723 177.059M213.023 199.018L228.135 223.492M228.135 223.491L245.397 210.171M190.079 154.978L197.891 148.177L197.9 148.169L200.551 145.861M190.079 154.978L177.348 156.039M200.551 145.861L209.649 136.609M200.551 145.861L185.245 149.182M209.649 136.609L192.129 142.213" stroke="url(#paint0_linear_3059_2306)" stroke-miterlimit="10" stroke-linecap="round" stroke-linejoin="round"/>
</g>
<defs>
<linearGradient id="paint0_linear_3059_2306" x1="262.934" y1="63.2925" x2="47.487" y2="336.809" gradientUnits="userSpaceOnUse">
<stop stop-color="#E9EBF1"/>
<stop offset="1" stop-color="#E9EBF1" stop-opacity="0"/>
</linearGradient>
<clipPath id="clip0_3059_2306">
<rect width="308" height="308" fill="white" transform="translate(0 0.115479)"/>
</clipPath>
</defs>
</svg>
