<svg width="32" height="33" viewBox="0 0 32 33" fill="none" xmlns="http://www.w3.org/2000/svg">
<g clip-path="url(#clip0_3059_2012)">
<path d="M16.0001 27.1899C14.4972 27.1898 13.0291 26.7382 11.786 25.8937C10.5429 25.0491 9.5822 23.8506 9.02844 22.4535C8.47468 21.0564 8.35342 19.5251 8.68038 18.0583C9.00733 16.5914 9.76742 15.2566 10.8621 14.2269C12.2041 12.9639 15.5001 10.6899 15.0001 5.68994C21.0001 9.68994 24.0001 13.6899 18.0001 19.6899C19.0001 19.6899 20.5001 19.6899 23.0001 17.2199C23.2701 17.9929 23.5001 18.8239 23.5001 19.6899C23.5001 21.6791 22.7099 23.5867 21.3034 24.9932C19.8969 26.3998 17.9892 27.1899 16.0001 27.1899Z" fill="#6E51E0"/>
<path d="M16.0001 27.1899C14.4972 27.1898 13.0291 26.7382 11.786 25.8937C10.5429 25.0491 9.5822 23.8506 9.02844 22.4535C8.47468 21.0564 8.35342 19.5251 8.68038 18.0583C9.00733 16.5914 9.76742 15.2566 10.8621 14.2269C12.2041 12.9639 15.5001 10.6899 15.0001 5.68994C21.0001 9.68994 24.0001 13.6899 18.0001 19.6899C19.0001 19.6899 20.5001 19.6899 23.0001 17.2199C23.2701 17.9929 23.5001 18.8239 23.5001 19.6899C23.5001 21.6791 22.7099 23.5867 21.3034 24.9932C19.8969 26.3998 17.9892 27.1899 16.0001 27.1899Z" fill="url(#paint0_linear_3059_2012)" fill-opacity="0.24"/>
</g>
<defs>
<linearGradient id="paint0_linear_3059_2012" x1="16.0001" y1="5.68994" x2="16.0001" y2="27.1899" gradientUnits="userSpaceOnUse">
<stop stop-color="white"/>
<stop offset="1" stop-color="white" stop-opacity="0"/>
</linearGradient>
<clipPath id="clip0_3059_2012">
<rect width="32" height="32" fill="white" transform="translate(0 0.189941)"/>
</clipPath>
</defs>
</svg>
