<svg width="622" height="344" viewBox="0 0 622 344" fill="none" xmlns="http://www.w3.org/2000/svg">
<path d="M22 -4V454" stroke="#4B8BFF" stroke-miterlimit="10"/>
<path d="M262 230H622" stroke="#4B8BFF" stroke-miterlimit="10"/>
<path d="M262 310H622" stroke="#4B8BFF" stroke-miterlimit="10"/>
<path d="M262 270H622" stroke="#4B8BFF" stroke-miterlimit="10"/>
<path d="M262 190H622" stroke="#4B8BFF" stroke-miterlimit="10"/>
<path d="M262 190.06V396" stroke="#4B8BFF" stroke-miterlimit="10"/>
<path d="M382 190.06V396" stroke="#4B8BFF" stroke-miterlimit="10"/>
<path d="M502 190.06V396" stroke="#4B8BFF" stroke-miterlimit="10"/>
<path d="M502 -4V190" stroke="#4B8BFF" stroke-miterlimit="10"/>
<path d="M207 241.5C207 184.891 160.885 139 104 139C47.115 139 1 184.891 1 241.5C1 298.109 47.115 344 104 344C160.885 344 207 298.109 207 241.5Z" fill="#266DF0" stroke="#6B9FFF" stroke-width="0.8" stroke-miterlimit="10"/>
<path d="M329 321.916H176C162.745 321.916 152 332.661 152 345.916V385.916C152 399.171 162.745 409.916 176 409.916H329C342.255 409.916 353 399.171 353 385.916V345.916C353 332.661 342.255 321.916 329 321.916Z" fill="#266DF0" stroke="#6B9FFF" stroke-width="0.8" stroke-miterlimit="10"/>
<path d="M187.975 27.1151L118.267 53.5474C111.752 56.018 108.473 63.3026 110.943 69.818L137.375 139.525C139.846 146.041 147.131 149.32 153.646 146.849L223.354 120.417C229.869 117.946 233.148 110.662 230.677 104.146L204.245 34.439C201.775 27.9235 194.49 24.6445 187.975 27.1151Z" fill="#266DF0" stroke="#6B9FFF" stroke-width="0.8" stroke-miterlimit="10"/>
<path d="M588.823 48.3932C593.626 48.3932 597.52 44.4996 597.52 39.6966C597.52 34.8936 593.626 31 588.823 31C584.02 31 580.127 34.8936 580.127 39.6966C580.127 44.4996 584.02 48.3932 588.823 48.3932Z" fill="#266DF0" stroke="#6B9FFF" stroke-width="0.8" stroke-miterlimit="10"/>
<path d="M560.259 48.3932C565.062 48.3932 568.956 44.4996 568.956 39.6966C568.956 34.8936 565.062 31 560.259 31C555.456 31 551.562 34.8936 551.562 39.6966C551.562 44.4996 555.456 48.3932 560.259 48.3932Z" fill="#266DF0" stroke="#6B9FFF" stroke-width="0.8" stroke-miterlimit="10"/>
<path d="M531.697 48.3932C536.5 48.3932 540.393 44.4996 540.393 39.6966C540.393 34.8936 536.5 31 531.697 31C526.894 31 523 34.8936 523 39.6966C523 44.4996 526.894 48.3932 531.697 48.3932Z" fill="#266DF0" stroke="#6B9FFF" stroke-width="0.8" stroke-miterlimit="10"/>
<path d="M470.639 222.329C470.658 218.973 473.959 216.122 477.622 217.259L556.426 242.012C559.205 242.878 560.287 245.656 559.62 247.984L556.715 266.963C556.318 269.435 554.64 271.51 552.313 272.412L540.225 277.102L525.197 282.93C524.186 283.327 523.393 284.085 522.942 285.059L512.73 307.502C510.15 312.193 503.403 312.157 500.859 307.448L471.253 244.249C470.351 242.337 469.936 240.226 470.008 238.115L470.639 222.329Z" fill="#266DF0" stroke="#8FB7FF" stroke-width="1.8" stroke-miterlimit="10" stroke-linejoin="round"/>
<path d="M523.718 263.661L513.759 281.703C511.179 286.394 504.431 286.358 501.888 281.649L471.289 224.927C468.998 220.687 473.021 215.816 477.622 217.259L556.427 242.012C560.865 243.401 560.955 249.661 556.553 251.195L525.973 261.767C525.017 262.092 524.205 262.777 523.7 263.68L523.718 263.661Z" fill="#266DF0" stroke="#8FB7FF" stroke-width="1.8" stroke-miterlimit="10" stroke-linejoin="round"/>
<path d="M523.5 284.174L525.088 262.182" stroke="#8FB7FF" stroke-miterlimit="10" stroke-linejoin="round"/>
<path d="M512.748 307.483L515.869 277.751" stroke="#8FB7FF" stroke-miterlimit="10" stroke-linejoin="round"/>
<path d="M500.877 307.429L500.173 278.689" stroke="#8FB7FF" stroke-miterlimit="10" stroke-linejoin="round"/>
<path d="M515.098 141.137L488.703 182.935C485.919 187.389 481.037 190.101 475.77 190.101H421.382C416.114 190.115 411.232 187.389 408.448 182.935L382.325 141.137C379.227 136.184 379.227 129.917 382.311 124.978L408.705 83.1804C411.503 78.7123 416.371 76 421.624 76H476.027C481.294 76 486.176 78.7123 488.96 83.1518L515.083 124.978C518.181 129.917 518.181 136.198 515.098 141.137Z" fill="#266DF0" stroke="#8FB7FF" stroke-width="1.8" stroke-miterlimit="10"/>
<path d="M478.838 91.5166C479.766 90.0463 481.308 89.875 481.922 89.875C482.55 89.875 484.077 90.032 485.005 91.5166L486.761 94.3431V94.286L507.517 127.504C509.63 130.887 509.63 135.256 507.517 138.624L497.767 154.141L484.734 174.783C483.806 176.254 482.379 176.425 481.808 176.411C481.222 176.411 479.781 176.254 478.853 174.769L456.341 138.724C454.228 135.355 454.214 131.002 456.284 127.604L478.838 91.5166Z" fill="#266DF0" stroke="#8FB7FF" stroke-miterlimit="10"/>
<path d="M151.014 248.557C150.868 244.741 151.887 240.896 153.985 237.532L280.18 35.5623C283.791 29.7805 290.112 26.2852 296.928 26.2852H367.387C374.203 26.2852 380.538 29.795 384.15 35.5623L386.801 39.8149L387.747 41.3295L401.117 62.7091L417.996 89.7103C419.991 92.9143 420.996 96.5406 420.996 100.182C420.996 103.808 419.991 107.449 417.996 110.653L311.914 280.408L294.496 308.283L294.437 308.385L291.816 312.608C288.204 318.376 281.869 321.885 275.053 321.885H204.579C197.763 321.885 191.428 318.361 187.816 312.608L169.626 283.495L153.985 258.446C152.091 255.417 151.086 252.009 151.014 248.557Z" fill="#266DF0" stroke="#8FB7FF" stroke-width="1.8" stroke-linejoin="round"/>
<path d="M284.927 301.788C284.155 301.788 282.218 301.569 280.98 299.603L265.776 275.267L254.183 257.135L252.028 253.698C250.688 251.557 249.945 249.096 249.887 246.62C249.799 243.78 250.542 241.042 252.028 238.654L308.724 147.922L371.858 46.8056C373.096 44.8249 375.048 44.6064 375.819 44.6064C376.591 44.6064 378.543 44.8249 379.781 46.8056L380.698 48.2765L408.777 92.6814C411.632 97.2544 411.632 103.167 408.777 107.74L288.918 299.501L288.859 299.603C287.621 301.569 285.699 301.788 284.913 301.788H284.927Z" fill="#266DF0" stroke="#8FB7FF" stroke-miterlimit="10" stroke-linejoin="round"/>
</svg>
