<svg width="40" height="40" viewBox="0 0 40 40" fill="none" xmlns="http://www.w3.org/2000/svg">
<circle cx="20" cy="20" r="20" fill="white"/>
<path d="M18.674 4.56409C18.2612 4.67668 17.6982 4.88936 17.423 5.03949C16.6973 5.4148 15.6715 6.56577 15.2711 7.41648C14.9459 8.11707 14.9334 8.22966 14.8708 11.0195C14.8208 12.9211 14.7457 13.9845 14.6456 14.1596C14.3078 14.7601 14.0827 14.7977 11.1052 14.8602C7.96502 14.9353 7.52715 15.0354 6.32615 15.9611C3.69894 17.9753 3.68643 22.2039 6.30113 24.2056C8.22774 25.6693 11.1552 25.6192 12.9192 24.0679C13.6698 23.4049 14.1327 22.7043 14.4705 21.741C14.7082 21.0404 14.7332 20.7026 14.7332 18.3506C14.7332 14.6475 14.558 14.7977 18.7366 14.7101C21.614 14.6475 21.689 14.635 22.302 14.3098C24.3037 13.2589 25.3546 11.3948 25.2045 9.18046C25.0543 6.89104 23.5156 5.08953 21.2261 4.52656C20.2253 4.27635 19.6498 4.28886 18.674 4.56409Z" fill="#5865F2"/>
<path d="M29.1088 14.9989C28.696 15.1115 28.133 15.3241 27.8578 15.4743C27.1322 15.8496 26.1063 17.0005 25.706 17.8513C25.3807 18.5518 25.3682 18.6644 25.3056 21.4543C25.2556 23.3559 25.1805 24.4193 25.0804 24.5944C24.7427 25.1949 24.5175 25.2325 21.54 25.295C18.3998 25.3701 17.962 25.4702 16.761 26.3959C14.1338 28.4101 14.1212 32.6387 16.7359 34.6403C18.6626 36.1041 21.59 36.054 23.354 34.5027C24.1046 33.8397 24.5675 33.1391 24.9053 32.1758C25.143 31.4752 25.168 31.1374 25.168 28.7854C25.168 25.0823 24.9929 25.2325 29.1714 25.1449C32.0488 25.0823 32.1238 25.0698 32.7369 24.7445C34.7385 23.6937 35.7894 21.8296 35.6393 19.6152C35.4892 17.3258 33.9504 15.5243 31.661 14.9613C30.6601 14.7111 30.0846 14.7236 29.1088 14.9989Z" fill="#5865F2"/>
</svg>
