<svg width="1440" height="223" viewBox="0 0 1440 223" fill="none" xmlns="http://www.w3.org/2000/svg">
<path d="M1416.15 2.36249L1404.97 0.748535M1416.15 2.36249L1383.03 2.36249M1416.15 2.36249L1427.7 4.02975M1416.15 2.36249L1439.61 2.36249M1404.97 0.748535L1409.04 0.749164L1413.07 0.752659L1417.01 0.762485L1420.83 0.781836L1424.48 0.813239L1427.93 0.860509L1431.13 0.926172L1434.1 1.00991L1436.65 1.1257L1438.97 1.25988L1439.61 1.30687V2.36249M1404.97 0.748535L1372.38 0.748535M1372.38 0.748535L1339.79 0.748535M1372.38 0.748535L1383.03 2.36249M1339.79 0.748535L1307.19 0.748535M1339.79 0.748535L1349.9 2.36249M1307.19 0.748535L1274.6 0.748535M1307.19 0.748535L1316.77 2.36249M1274.6 0.748535L1242 0.748535M1274.6 0.748535L1283.65 2.36249M1242 0.748535L1209.41 0.748535M1242 0.748535L1250.52 2.36249M1209.41 0.748535L1176.82 0.748535M1209.41 0.748535L1217.39 2.36249M1176.82 0.748535L1144.22 0.748535M1176.82 0.748535L1184.27 2.36249M1144.22 0.748535L1111.63 0.748535M1144.22 0.748535L1151.14 2.36249M1111.63 0.748535L1079.03 0.748535M1111.63 0.748535L1118.02 2.36249M1079.03 0.748535L1046.44 0.748535M1079.03 0.748535L1084.89 2.36249M1046.44 0.748535L1013.85 0.748535M1046.44 0.748535L1051.76 2.36249M1013.85 0.748535L981.252 0.748535M1013.85 0.748535L1015.03 1.14726L1016.82 1.75092L1018.64 2.36249M981.252 0.748535L948.658 0.748535M981.252 0.748535L982.303 1.14726L985.51 2.36249M948.658 0.748535L916.064 0.748535M948.658 0.748535L952.384 2.36249M916.064 0.748535L883.47 0.748535M916.064 0.748535L917.249 1.34774L918.45 1.95393L918.853 2.15789L919.258 2.36249M883.47 0.748535L850.876 0.748535M883.47 0.748535L884.458 1.34774L884.79 1.54885L885.124 1.75092L886.132 2.36249M850.876 0.748535L818.282 0.748535M850.876 0.748535L853.005 2.36249M818.282 0.748535L818.479 0.94742L818.676 1.14726L819.676 2.15789L819.879 2.36249M818.282 0.748535L785.688 0.748535M785.688 0.748535L753.094 0.748535M785.688 0.748535L786.753 2.36249M753.094 0.748535L720.5 0.748535M753.094 0.748535L753.292 1.34774L753.626 2.36249M720.5 0.748535L687.906 0.748535M720.5 0.748535V2.36249M687.906 0.748535L655.312 0.748535M687.906 0.748535L687.708 1.34774L687.374 2.36249M655.312 0.748535L622.718 0.748535M655.312 0.748535L654.247 2.36249M622.718 0.748535L622.521 0.94742L622.324 1.14726L621.324 2.15789L621.121 2.36249M622.718 0.748535L590.124 0.748535M590.124 0.748535L557.53 0.748535M590.124 0.748535L588.265 2.15789L587.995 2.36249M557.53 0.748535L524.936 0.748535M557.53 0.748535L556.542 1.34774L556.21 1.54885L555.542 1.95393L555.206 2.15789L554.868 2.36249M524.936 0.748535L492.342 0.748535M524.936 0.748535L523.751 1.34774L522.55 1.95393L522.147 2.15789L521.742 2.36249M492.342 0.748535L459.748 0.748535M492.342 0.748535L488.616 2.36249M459.748 0.748535L427.154 0.748535M459.748 0.748535L458.697 1.14726L455.49 2.36249M427.154 0.748535L394.56 0.748535M427.154 0.748535L422.363 2.36249M394.56 0.748535L361.966 0.748535M394.56 0.748535L389.237 2.36249M361.966 0.748535L329.372 0.748535M361.966 0.748535L356.111 2.36249M329.372 0.748535L296.778 0.748535M329.372 0.748535L322.984 2.36249M296.778 0.748535L264.184 0.748535M296.778 0.748535L289.858 2.36249M264.184 0.748535L231.59 0.748535M264.184 0.748535L256.731 2.36249M231.59 0.748535L198.996 0.748535M231.59 0.748535L223.605 2.36249M198.996 0.748535L166.402 0.748535M198.996 0.748535L190.479 2.36249M166.402 0.748535L133.808 0.748535M166.402 0.748535L157.352 2.36249M133.808 0.748535L101.214 0.748535M133.808 0.748535L124.226 2.36249M101.214 0.748535L68.6198 0.748535M101.214 0.748535L91.1003 2.36249M68.6198 0.748535L36.026 0.748535M68.6198 0.748535L57.974 2.36249M36.026 0.748535L31.9586 0.749164L27.933 0.752659L23.9914 0.762485L20.1733 0.781836L16.5209 0.813239L13.0729 0.860509L9.87056 0.926172L6.89822 1.00991L4.34762 1.1257L2.02549 1.25988L1.38728 1.30688L1.38728 2.36249M36.026 0.748535L24.8476 2.36249M91.1003 2.36249L124.226 2.36249M91.1003 2.36249L57.974 2.36249M91.1003 2.36249L80.65 4.02975M124.226 2.36249L114.326 4.02975M124.226 2.36249L157.352 2.36249M223.605 2.36249L256.731 2.36249M223.605 2.36249L190.479 2.36249M223.605 2.36249L221.568 2.77423L215.356 4.02975M256.731 2.36249L249.032 4.02975M256.731 2.36249L289.858 2.36249M356.111 2.36249L389.237 2.36249M356.111 2.36249L322.984 2.36249M356.111 2.36249L354.617 2.77423L353.865 2.98105L350.06 4.02975M389.237 2.36249L388.559 2.56773L387.879 2.77423L383.737 4.02975M389.237 2.36249L422.363 2.36249M488.616 2.36249L488.141 2.56773L484.766 4.02975M488.616 2.36249L521.742 2.36249M488.616 2.36249L455.49 2.36249M521.742 2.36249L520.928 2.77423L520.517 2.98105L520.106 3.18914L518.442 4.02975M521.742 2.36249L554.868 2.36249M621.121 2.36249L654.247 2.36249M621.121 2.36249L587.995 2.36249M621.121 2.36249L619.471 4.02975M654.247 2.36249L654.112 2.56773L653.976 2.77423L653.839 2.98105L653.426 3.60754L653.148 4.02975M654.247 2.36249L687.374 2.36249M753.626 2.36249L786.753 2.36249M753.626 2.36249L720.5 2.36249M753.626 2.36249L754.176 4.02975M786.753 2.36249L786.888 2.56773L787.024 2.77423L787.161 2.98105L787.852 4.02975M786.753 2.36249L819.879 2.36249M886.132 2.36249L919.258 2.36249M886.132 2.36249L853.005 2.36249M886.132 2.36249L886.811 2.77423L888.186 3.60754L888.533 3.81817L888.882 4.02975M919.258 2.36249L920.073 2.77423L920.483 2.98105L920.894 3.18914L922.558 4.02975M919.258 2.36249L952.384 2.36249M1018.64 2.36249L1051.76 2.36249M1018.64 2.36249L985.51 2.36249M1018.64 2.36249L1019.86 2.77423L1020.47 2.98105L1023.59 4.02975M1051.76 2.36249L1052.44 2.56773L1053.12 2.77423L1057.26 4.02975M1051.76 2.36249L1084.89 2.36249M1151.14 2.36249L1184.27 2.36249M1151.14 2.36249L1118.02 2.36249M1151.14 2.36249L1152.91 2.77423L1153.8 2.98105L1158.29 4.02975M1184.27 2.36249L1191.97 4.02975M1184.27 2.36249L1217.39 2.36249M1283.65 2.36249L1316.77 2.36249M1283.65 2.36249L1250.52 2.36249M1283.65 2.36249L1293 4.02975M1316.77 2.36249L1326.67 4.02975M1316.77 2.36249L1349.9 2.36249M1.27117 17.4553H1.38728M34.6133 17.4553L47.2607 15.3253M34.6133 17.4553L21.4812 19.6669M34.6133 17.4553L72.718 17.4553M34.6133 17.4553L1.38728 17.4553M47.2607 15.3253L9.85857 15.3253M47.2607 15.3253L59.4504 13.2723M47.2607 15.3253L84.6628 15.3253M9.85857 15.3253L22.7254 13.2723M9.85857 15.3253L1.38728 15.3253M9.85857 15.3253L1.38728 16.6766M47.1094 9.38138L82.5511 9.38138M47.1094 9.38138L58.6736 7.53617M47.1094 9.38138L11.6683 9.38138M47.1094 9.38138L35.1339 11.2922M82.5511 9.38138L93.5071 7.53617M82.5511 9.38138L71.2064 11.2922M82.5511 9.38138L117.993 9.38138M58.6736 7.53617L93.5071 7.53617M58.6736 7.53617L69.8476 5.75346M58.6736 7.53617L23.8408 7.53617M93.5071 7.53617L128.34 7.53617M93.5071 7.53617L104.092 5.75346M1.02248 51.0763H1.38728M31.769 51.0763L48.0779 47.5448M31.769 51.0763L14.6497 54.7835M31.769 51.0763H80.9646M31.769 51.0763L1.38728 51.0763M48.0779 47.5448L63.6325 44.1767M48.0779 47.5448L96.1079 47.5448M48.0779 47.5448L1.38728 47.5448M16.7134 44.1767L63.6325 44.1767M16.7134 44.1767L32.6252 40.9608M16.7134 44.1767H1.38728M16.7134 44.1767L1.38728 47.2741M47.833 37.8871L92.6771 37.8871M47.833 37.8871L62.383 34.9465M47.833 37.8871L2.9888 37.8871M47.833 37.8871L32.6252 40.9608M92.6771 37.8871L106.258 34.9465M92.6771 37.8871L78.4829 40.9608M92.6771 37.8871H137.522M62.383 34.9465L106.258 34.9465M62.383 34.9465L18.5089 34.9465M62.383 34.9465L76.3173 32.1304M106.258 34.9465L119.263 32.1304M106.258 34.9465L150.132 34.9465M102.487 26.8412L143.688 26.8412M102.487 26.8412L114.791 24.3546M102.487 26.8412L61.2864 26.8412M102.487 26.8412L89.6734 29.4309M143.688 26.8412L155.171 24.3546M143.688 26.8412L131.729 29.4309M143.688 26.8412L184.889 26.8412M114.791 24.3546L155.171 24.3546M114.791 24.3546L74.4102 24.3546M114.791 24.3546L126.614 21.9651M155.171 24.3546L166.206 21.9651M155.171 24.3546L195.552 24.3546M148.927 17.4553L187.032 17.4553M148.927 17.4553L159.467 15.3253M148.927 17.4553L110.823 17.4553M148.927 17.4553L137.984 19.6669M187.032 17.4553L196.869 15.3253M187.032 17.4553L176.819 19.6669M187.032 17.4553L225.137 17.4553M159.467 15.3253L196.869 15.3253M159.467 15.3253L122.065 15.3253M159.467 15.3253L169.625 13.2723M196.869 15.3253L206.35 13.2723M196.869 15.3253L234.271 15.3253M188.876 9.38138L224.317 9.38138M188.876 9.38138L198.005 7.53617M188.876 9.38138L153.435 9.38138M188.876 9.38138L179.422 11.2922M224.317 9.38138L232.838 7.53617M224.317 9.38138L215.493 11.2922M224.317 9.38138L259.759 9.38138M198.005 7.53617L232.838 7.53617M198.005 7.53617L206.827 5.75346M198.005 7.53617L163.173 7.53617M232.838 7.53617L267.672 7.53617M232.838 7.53617L241.072 5.75346M26.5914 112.302L49.5446 105.344M26.5914 112.302L2.01126 119.754M26.5914 112.302L95.9821 112.302M26.5914 112.302H1.38728M49.5446 105.344L71.0288 98.8306M49.5446 105.344L116.64 105.344M49.5446 105.344H1.38728M49.0787 86.9803L110.117 86.9803M49.0787 86.9803L68.6932 81.5747M49.0787 86.9803L28.2469 92.7218M49.0787 86.9803H1.38728M110.117 86.9803L127.948 81.5747M110.117 86.9803L91.179 92.7218M110.117 86.9803H171.156M68.6932 81.5747H127.948M68.6932 81.5747L9.43834 81.5747M68.6932 81.5747L87.1947 76.4756M127.948 81.5747L144.768 76.4756M127.948 81.5747L187.204 81.5747M121.215 67.0995L175.696 67.0995M121.215 67.0995L136.891 62.7794M121.215 67.0995H66.7344M121.215 67.0995L104.674 71.6584M175.696 67.0995L189.946 62.7794M175.696 67.0995L160.658 71.6584M175.696 67.0995H230.176M136.891 62.7794L189.946 62.7794M136.891 62.7794L83.8351 62.7794M136.891 62.7794L151.766 58.6795M189.946 62.7794L203.47 58.6795M189.946 62.7794L243.001 62.7794M179.354 51.0763L228.55 51.0763M179.354 51.0763L192.169 47.5448M179.354 51.0763L130.159 51.0763M179.354 51.0763L165.904 54.7835M228.55 51.0763L240.199 47.5448M228.55 51.0763L216.321 54.7835M228.55 51.0763L277.745 51.0763M192.169 47.5448L240.199 47.5448M192.169 47.5448L144.139 47.5448M192.169 47.5448L204.39 44.1767M240.199 47.5448L251.309 44.1767M240.199 47.5448L288.229 47.5448M227.211 37.8871L272.055 37.8871M227.211 37.8871L237.881 34.9465M227.211 37.8871L182.366 37.8871M227.211 37.8871L216.058 40.9608M272.055 37.8871L281.756 34.9465M272.055 37.8871L261.917 40.9608M272.055 37.8871H316.9M237.881 34.9465L281.756 34.9465M237.881 34.9465L194.007 34.9465M237.881 34.9465L248.099 32.1304M281.756 34.9465L291.045 32.1304M281.756 34.9465L325.63 34.9465M267.29 26.8412L308.491 26.8412M267.29 26.8412L276.313 24.3546M267.29 26.8412L226.09 26.8412M267.29 26.8412L257.894 29.4309M308.491 26.8412L309.535 26.525L316.694 24.3546M308.491 26.8412L299.949 29.4309M308.491 26.8412L349.693 26.8412M276.313 24.3546L316.694 24.3546M276.313 24.3546L235.933 24.3546M276.313 24.3546L284.984 21.9651M316.694 24.3546L324.576 21.9651M316.694 24.3546L357.075 24.3546M301.346 17.4553L339.452 17.4553M301.346 17.4553L309.076 15.3253M301.346 17.4553L263.242 17.4553M301.346 17.4553L293.322 19.6669M339.452 17.4553L346.478 15.3253M339.452 17.4553L336.749 18.275L332.156 19.6669M339.452 17.4553L377.557 17.4553M309.076 15.3253L346.478 15.3253M309.076 15.3253L271.674 15.3253M309.076 15.3253L316.525 13.2723M346.478 15.3253L353.25 13.2723M346.478 15.3253L383.88 15.3253M330.642 9.38138L366.084 9.38138M330.642 9.38138L337.337 7.53617M330.642 9.38138L295.201 9.38138M330.642 9.38138L323.709 11.2922M366.084 9.38138L370.669 7.99169L371.421 7.76329L372.171 7.53617M366.084 9.38138L359.781 11.2922M366.084 9.38138L401.526 9.38138M337.337 7.53617L372.171 7.53617M337.337 7.53617L343.806 5.75346M337.337 7.53617L302.504 7.53617M372.171 7.53617L407.004 7.53617M372.171 7.53617L378.051 5.75346M51.7327 191.57L147.271 191.57M51.7327 191.57L81.8155 178.542M51.7327 191.57L18.6759 205.887M51.7327 191.57L1.38728 191.57M147.271 191.57L173.057 178.542M147.271 191.57L118.937 205.887M147.271 191.57H242.809M81.8155 178.542L173.057 178.542M81.8155 178.542L109.309 166.635M81.8155 178.542H1.38728M173.057 178.542L196.622 166.635M173.057 178.542H264.297M157.757 145.653H238.149M157.757 145.653L179.21 136.362M157.757 145.653L77.3653 145.653M157.757 145.653L134.533 155.711M238.149 145.653L256.537 136.362M238.149 145.653L218.242 155.711M238.149 145.653H318.541M179.21 136.362H256.537M179.21 136.362L101.883 136.362M179.21 136.362L199.089 127.753M256.537 136.362L273.576 127.753M256.537 136.362H333.865M234.764 112.302L304.155 112.302M234.764 112.302L250.832 105.344M234.764 112.302L165.373 112.302M234.764 112.302L217.558 119.754M304.155 112.302L317.927 105.344M304.155 112.302L289.407 119.754M304.155 112.302H373.545M250.832 105.344L317.927 105.344M250.832 105.344H183.736M250.832 105.344L265.87 98.8306M317.927 105.344L330.817 98.8306M317.927 105.344H385.023M293.232 86.9803H354.27M293.232 86.9803L305.714 81.5747M293.232 86.9803L232.194 86.9803M293.232 86.9803L279.975 92.7218M354.27 86.9803L364.969 81.5747M354.27 86.9803L342.907 92.7218M354.27 86.9803L415.309 86.9803M305.714 81.5747H364.969M305.714 81.5747L246.459 81.5747M305.714 81.5747L317.488 76.4756M364.969 81.5747L375.061 76.4756M364.969 81.5747L424.224 81.5747M339.137 67.0995H393.618M339.137 67.0995L349.112 62.7794M339.137 67.0995L284.656 67.0995M339.137 67.0995L328.611 71.6584M393.618 67.0995L402.168 62.7794M393.618 67.0995L384.595 71.6584M393.618 67.0995L448.098 67.0995M349.112 62.7794L402.168 62.7794M349.112 62.7794L296.056 62.7794M349.112 62.7794L358.579 58.6795M402.168 62.7794L410.282 58.6795M402.168 62.7794L455.223 62.7794M376.135 51.0763L425.33 51.0763M376.135 51.0763L384.289 47.5448M376.135 51.0763H326.939M376.135 51.0763L367.575 54.7835M425.33 51.0763L432.319 47.5448M425.33 51.0763L417.993 54.7835M425.33 51.0763L474.525 51.0763M384.289 47.5448H432.319M384.289 47.5448L336.259 47.5448M384.289 47.5448L392.066 44.1767M432.319 47.5448L438.985 44.1767M432.319 47.5448L480.349 47.5448M406.589 37.8871L451.434 37.8871M406.589 37.8871L413.379 34.9465M406.589 37.8871L361.744 37.8871M406.589 37.8871L399.492 40.9608M451.434 37.8871L457.253 34.9465M451.434 37.8871L445.35 40.9608M451.434 37.8871L496.278 37.8871M413.379 34.9465L457.253 34.9465M413.379 34.9465L369.504 34.9465M413.379 34.9465L419.882 32.1304M457.253 34.9465L462.827 32.1304M457.253 34.9465L501.128 34.9465M432.094 26.8412L473.295 26.8412M432.094 26.8412L437.836 24.3546M432.094 26.8412L390.893 26.8412M432.094 26.8412L426.114 29.4309M473.295 26.8412L472.665 27.1591L468.169 29.4309M473.295 26.8412L478.216 24.3546M473.295 26.8412L514.496 26.8412M437.836 24.3546L478.216 24.3546M437.836 24.3546L397.455 24.3546M437.836 24.3546L443.353 21.9651M478.216 24.3546L482.946 21.9651M478.216 24.3546L518.597 24.3546M453.766 17.4553L491.871 17.4553M453.766 17.4553L458.685 15.3253M453.766 17.4553L415.661 17.4553M453.766 17.4553L448.66 19.6669M491.871 17.4553L496.087 15.3253M491.871 17.4553L490.249 18.275L489.155 18.8279L487.494 19.6669M491.871 17.4553L529.976 17.4553M458.685 15.3253L496.087 15.3253M458.685 15.3253L421.282 15.3253M458.685 15.3253L463.425 13.2723M496.087 15.3253L497.628 14.5465L498.644 14.0332L500.15 13.2723M496.087 15.3253L533.489 15.3253M472.409 9.38138L507.85 9.38138M472.409 9.38138L475.618 7.99169L476.669 7.53617M472.409 9.38138L436.967 9.38138M472.409 9.38138L468.557 11.0496L467.997 11.2922M507.85 9.38138L510.602 7.99169L511.052 7.76329L511.503 7.53617M507.85 9.38138L505.976 10.3282L504.069 11.2922M507.85 9.38138L543.292 9.38138M476.669 7.53617L511.503 7.53617M476.669 7.53617L480.786 5.75346M476.669 7.53617L441.836 7.53617M511.503 7.53617L546.335 7.53617M511.503 7.53617L515.031 5.75346M433.886 191.57H529.424M433.886 191.57L446.778 178.542M433.886 191.57L338.348 191.57M433.886 191.57L419.718 205.887M529.424 191.57L538.019 178.542M529.424 191.57L519.979 205.887M529.424 191.57L624.962 191.57M446.778 178.542H538.019M446.778 178.542H355.538M446.778 178.542L458.561 166.635M538.019 178.542L545.874 166.635M538.019 178.542L629.26 178.542M479.325 145.653H559.716M479.325 145.653L488.519 136.362M479.325 145.653H398.932M479.325 145.653L469.371 155.711M559.716 145.653L565.846 136.362M559.716 145.653L553.081 155.711M559.716 145.653L640.109 145.653M488.519 136.362H565.846M488.519 136.362H411.192M488.519 136.362L497.038 127.753M565.846 136.362L571.525 127.753M565.846 136.362L643.173 136.362M512.327 112.302L581.718 112.302M512.327 112.302L519.214 105.344M512.327 112.302H442.937M512.327 112.302L504.953 119.754M581.718 112.302L586.309 105.344M581.718 112.302L576.803 119.754M581.718 112.302L651.109 112.302M519.214 105.344L586.309 105.344M519.214 105.344H452.118M519.214 105.344L525.659 98.8306M586.309 105.344L590.606 98.8306M586.309 105.344L653.405 105.344M537.385 86.9803H598.423M537.385 86.9803L542.735 81.5747M537.385 86.9803L476.347 86.9803M537.385 86.9803L531.704 92.7218M598.423 86.9803L601.99 81.5747M598.423 86.9803L594.636 92.7218M598.423 86.9803L659.462 86.9803M542.735 81.5747H601.99M542.735 81.5747L483.48 81.5747M542.735 81.5747L547.78 76.4756M601.99 81.5747L605.354 76.4756M601.99 81.5747L661.245 81.5747M557.058 67.0995H611.539M557.058 67.0995L561.333 62.7794M557.058 67.0995L502.578 67.0995M557.058 67.0995L552.548 71.6584M611.539 67.0995L614.389 62.7794M611.539 67.0995L608.532 71.6584M611.539 67.0995L666.02 67.0995M561.333 62.7794L614.389 62.7794M561.333 62.7794L508.279 62.7794M561.333 62.7794L565.391 58.6795M614.389 62.7794L617.094 58.6795M614.389 62.7794H667.445M572.915 51.0763L622.11 51.0763M572.915 51.0763L576.409 47.5448M572.915 51.0763L523.72 51.0763M572.915 51.0763L569.247 54.7835M622.11 51.0763L624.44 47.5448M622.11 51.0763L619.664 54.7835M622.11 51.0763L671.305 51.0763M576.409 47.5448L624.44 47.5448M576.409 47.5448L528.379 47.5448M576.409 47.5448L577.678 46.2633L579.743 44.1767M624.44 47.5448L626.662 44.1767M624.44 47.5448L672.47 47.5448M585.967 37.8871L630.811 37.8871M585.967 37.8871L588.877 34.9465M585.967 37.8871L541.122 37.8871M585.967 37.8871L583.699 40.1796L582.925 40.9608M630.811 37.8871L631.549 36.7692L632.751 34.9465M630.811 37.8871L628.783 40.9608M630.811 37.8871L675.656 37.8871M588.877 34.9465L589.231 34.5878L591.663 32.1304M588.877 34.9465L632.751 34.9465M588.877 34.9465L545.002 34.9465M632.751 34.9465L633.457 33.8763L633.69 33.5232L633.922 33.1724L634.609 32.1304M632.751 34.9465L676.626 34.9465M596.897 26.8412L638.098 26.8412M596.897 26.8412L598.14 25.5854L598.447 25.2755L598.752 24.9668L599.056 24.6601L599.358 24.3546M596.897 26.8412L555.697 26.8412M596.897 26.8412L594.335 29.4309M638.098 26.8412L639.335 24.9668L639.538 24.6601L639.738 24.3546M638.098 26.8412L636.39 29.4309M638.098 26.8412L679.299 26.8412M599.358 24.3546L639.738 24.3546M599.358 24.3546L558.978 24.3546M599.358 24.3546L600.847 22.8501L601.14 22.5535L601.723 21.9651M639.738 24.3546L640.731 22.8501L640.927 22.5535L641.121 22.2585L641.315 21.9651M639.738 24.3546L680.12 24.3546M606.186 17.4553L644.291 17.4553M606.186 17.4553L608.294 15.3253M606.186 17.4553L568.08 17.4553M606.186 17.4553L605.646 18.0003L604.827 18.8279L603.997 19.6669M644.291 17.4553L644.111 17.7272L643.016 19.3858L642.831 19.6669M644.291 17.4553L645.696 15.3253M644.291 17.4553L682.395 17.4553M608.294 15.3253L645.696 15.3253M608.294 15.3253L570.892 15.3253M608.294 15.3253L610.325 13.2723M645.696 15.3253L646.21 14.5465L646.379 14.2892L646.548 14.0332L647.05 13.2723M645.696 15.3253L683.098 15.3253M614.175 9.38138L649.617 9.38138M614.175 9.38138L615.551 7.99169L616.001 7.53617M614.175 9.38138L578.734 9.38138M614.175 9.38138L613.474 10.09L613.238 10.3282L613.001 10.5677L612.284 11.2922M649.617 9.38138L649.772 9.14728L650.078 8.68193L650.383 8.22072L650.834 7.53617M649.617 9.38138L648.992 10.3282L648.834 10.5677L648.516 11.0496L648.357 11.2922M649.617 9.38138L685.058 9.38138M616.001 7.53617L650.834 7.53617M616.001 7.53617L617.548 5.97297L617.766 5.75346M616.001 7.53617L581.168 7.53617M650.834 7.53617L650.984 7.31001L651.132 7.08478L651.28 6.86052L651.427 6.63721L651.865 5.97297L652.011 5.75346M650.834 7.53617L685.667 7.53617M816.038 191.57H911.576M816.038 191.57L811.74 178.542M816.038 191.57L720.5 191.57M816.038 191.57L820.761 205.887M911.576 191.57L902.982 178.542M911.576 191.57L921.021 205.887M911.576 191.57H1007.11M811.74 178.542L902.982 178.542M811.74 178.542H720.5M811.74 178.542L807.813 166.635M902.982 178.542L895.126 166.635M902.982 178.542H994.222M800.892 145.653L881.284 145.653M800.892 145.653L797.827 136.362M800.892 145.653H720.5M800.892 145.653L804.21 155.711M881.284 145.653L875.154 136.362M881.284 145.653L887.919 155.711M881.284 145.653H961.675M797.827 136.362L875.154 136.362M797.827 136.362H720.5M797.827 136.362L794.987 127.753M875.154 136.362L869.475 127.753M875.154 136.362H952.481M789.891 112.302H859.282M789.891 112.302L787.596 105.344M789.891 112.302L720.5 112.302M789.891 112.302L792.349 119.754M859.282 112.302L854.691 105.344M859.282 112.302L864.198 119.754M859.282 112.302L928.673 112.302M787.596 105.344H854.691M787.596 105.344L720.5 105.344M787.596 105.344L785.447 98.8306M854.691 105.344L850.394 98.8306M854.691 105.344L921.786 105.344M781.538 86.9803H842.577M781.538 86.9803L779.755 81.5747M781.538 86.9803L720.5 86.9803M781.538 86.9803L783.432 92.7218M842.577 86.9803L839.011 81.5747M842.577 86.9803L846.364 92.7218M842.577 86.9803L903.615 86.9803M779.755 81.5747H839.011M779.755 81.5747L720.5 81.5747M779.755 81.5747L778.073 76.4756M839.011 81.5747L835.646 76.4756M839.011 81.5747L898.265 81.5747M774.98 67.0995H829.461M774.98 67.0995L773.556 62.7794M774.98 67.0995L720.5 67.0995M774.98 67.0995L776.484 71.6584M829.461 67.0995L826.611 62.7794M829.461 67.0995L832.468 71.6584M829.461 67.0995L883.942 67.0995M773.556 62.7794L826.611 62.7794M773.556 62.7794L720.5 62.7794M773.556 62.7794L772.203 58.6795M826.611 62.7794L823.906 58.6795M826.611 62.7794L879.667 62.7794M769.695 51.0763L818.89 51.0763M769.695 51.0763L768.53 47.5448M769.695 51.0763L720.5 51.0763M769.695 51.0763L770.918 54.7835M818.89 51.0763L816.56 47.5448M818.89 51.0763L821.336 54.7835M818.89 51.0763L868.085 51.0763M768.53 47.5448L816.56 47.5448M768.53 47.5448L720.5 47.5448M768.53 47.5448L767.419 44.1767M816.56 47.5448L814.338 44.1767M816.56 47.5448L864.591 47.5448M765.344 37.8871L810.189 37.8871M765.344 37.8871L764.374 34.9465M765.344 37.8871L720.5 37.8871M765.344 37.8871L766.358 40.9608M810.189 37.8871L808.486 35.3072L808.249 34.9465M810.189 37.8871L812.217 40.9608M810.189 37.8871L855.033 37.8871M764.374 34.9465L764.257 34.5878L763.445 32.1304M764.374 34.9465L808.249 34.9465M764.374 34.9465L720.5 34.9465M808.249 34.9465L807.543 33.8763L807.31 33.5232L807.078 33.1724L806.391 32.1304M808.249 34.9465L852.123 34.9465M761.701 26.8412L802.902 26.8412M761.701 26.8412L760.88 24.3546M761.701 26.8412L720.5 26.8412M761.701 26.8412L762.017 27.7998L762.124 28.1227L762.23 28.4472L762.446 29.1013L762.555 29.4309M802.902 26.8412L801.665 24.9668L801.261 24.3546M802.902 26.8412L804.61 29.4309M802.902 26.8412L844.103 26.8412M760.88 24.3546L801.261 24.3546M760.88 24.3546L720.5 24.3546M760.88 24.3546L760.092 21.9651M801.261 24.3546L800.269 22.8501L800.073 22.5535L799.879 22.2585L799.685 21.9651M801.261 24.3546L841.642 24.3546M758.605 17.4553L796.71 17.4553M758.605 17.4553L757.902 15.3253M758.605 17.4553L720.5 17.4553M758.605 17.4553L759.334 19.6669M796.71 17.4553L796.889 17.7272L797.984 19.3858L798.169 19.6669M796.71 17.4553L795.304 15.3253M796.71 17.4553L834.814 17.4553M757.902 15.3253L795.304 15.3253M757.902 15.3253L720.5 15.3253M757.902 15.3253L757.225 13.2723M795.304 15.3253L794.79 14.5465L794.621 14.2892L794.452 14.0332L793.95 13.2723M795.304 15.3253L832.706 15.3253M755.942 9.38138L791.384 9.38138M755.942 9.38138L755.333 7.53617M755.942 9.38138L720.5 9.38138M755.942 9.38138L756.572 11.2922M791.384 9.38138L791.229 9.14728L790.921 8.68193L790.769 8.45068L790.466 7.99169L790.316 7.76329L790.166 7.53617M791.384 9.38138L792.008 10.3282L792.166 10.5677L792.484 11.0496L792.644 11.2922M791.384 9.38138L826.825 9.38138M755.333 7.53617L755.259 7.31001L755.184 7.08478L755.11 6.86052L754.745 5.75346M755.333 7.53617L790.166 7.53617M755.333 7.53617L720.5 7.53617M790.166 7.53617L824.999 7.53617M790.166 7.53617L789.868 7.08478L789.72 6.86052L789.573 6.63721L789.135 5.97297L788.99 5.75346M1198.19 191.57L1293.73 191.57M1198.19 191.57L1176.7 178.542M1198.19 191.57H1102.65M1198.19 191.57L1221.8 205.887M1293.73 191.57L1267.94 178.542M1293.73 191.57L1322.06 205.887M1293.73 191.57H1389.27M1176.7 178.542H1267.94M1176.7 178.542H1085.46M1176.7 178.542L1157.07 166.635M1267.94 178.542L1244.38 166.635M1267.94 178.542L1359.18 178.542M1122.46 145.653H1202.85M1122.46 145.653L1107.14 136.362M1122.46 145.653L1042.07 145.653M1122.46 145.653L1139.05 155.711M1202.85 145.653L1184.46 136.362M1202.85 145.653L1222.76 155.711M1202.85 145.653L1283.24 145.653M1107.14 136.362H1184.46M1107.14 136.362L1029.81 136.362M1107.14 136.362L1092.94 127.753M1184.46 136.362L1167.42 127.753M1184.46 136.362H1261.79M1067.45 112.302L1136.85 112.302M1067.45 112.302L1055.98 105.344M1067.45 112.302H998.063M1067.45 112.302L1079.74 119.754M1136.85 112.302L1123.07 105.344M1136.85 112.302L1151.59 119.754M1136.85 112.302H1206.24M1055.98 105.344L1123.07 105.344M1055.98 105.344H988.882M1055.98 105.344L1045.24 98.8306M1123.07 105.344L1110.18 98.8306M1123.07 105.344H1190.17M1025.69 86.9803H1086.73M1025.69 86.9803L1016.78 81.5747M1025.69 86.9803L964.653 86.9803M1025.69 86.9803L1035.16 92.7218M1086.73 86.9803L1076.03 81.5747M1086.73 86.9803L1098.09 92.7218M1086.73 86.9803L1147.77 86.9803M1016.78 81.5747H1076.03M1016.78 81.5747L957.52 81.5747M1016.78 81.5747L1008.37 76.4756M1076.03 81.5747L1065.94 76.4756M1076.03 81.5747L1135.29 81.5747M992.902 67.0995H1047.38M992.902 67.0995L985.777 62.7794M992.902 67.0995L938.422 67.0995M992.902 67.0995L1000.42 71.6584M1047.38 67.0995L1038.83 62.7794M1047.38 67.0995L1056.41 71.6584M1047.38 67.0995H1101.86M985.777 62.7794L1038.83 62.7794M985.777 62.7794L932.721 62.7794M985.777 62.7794L979.015 58.6795M1038.83 62.7794L1030.72 58.6795M1038.83 62.7794L1091.89 62.7794M966.476 51.0763H1015.67M966.476 51.0763L960.651 47.5448M966.476 51.0763L917.28 51.0763M966.476 51.0763L972.59 54.7835M1015.67 51.0763L1008.68 47.5448M1015.67 51.0763L1023.01 54.7835M1015.67 51.0763L1064.87 51.0763M960.651 47.5448H1008.68M960.651 47.5448L912.621 47.5448M960.651 47.5448L955.096 44.1767M1008.68 47.5448L1002.01 44.1767M1008.68 47.5448L1056.71 47.5448M944.722 37.8871L945.343 38.2639L945.969 38.6427L949.791 40.9608M944.722 37.8871L989.567 37.8871M944.722 37.8871L939.872 34.9465M944.722 37.8871L899.878 37.8871M989.567 37.8871L983.747 34.9465M989.567 37.8871L995.65 40.9608M989.567 37.8871L1034.41 37.8871M939.872 34.9465L983.747 34.9465M939.872 34.9465L895.998 34.9465M939.872 34.9465L935.228 32.1304M983.747 34.9465L978.173 32.1304M983.747 34.9465L1027.62 34.9465M926.504 26.8412L967.706 26.8412M926.504 26.8412L922.403 24.3546M926.504 26.8412L885.303 26.8412M926.504 26.8412L930.775 29.4309M967.706 26.8412L964.606 25.2755L962.784 24.3546M967.706 26.8412L972.831 29.4309M967.706 26.8412L1008.91 26.8412M922.403 24.3546L962.784 24.3546M922.403 24.3546L882.023 24.3546M922.403 24.3546L918.947 22.2585L918.462 21.9651M962.784 24.3546L958.054 21.9651M962.784 24.3546L1003.16 24.3546M911.024 17.4553L949.129 17.4553M911.024 17.4553L910.134 16.9151L907.511 15.3253M911.024 17.4553L872.92 17.4553M911.024 17.4553L911.923 18.0003L913.747 19.1061L914.672 19.6669M949.129 17.4553L944.913 15.3253M949.129 17.4553L950.751 18.275L951.845 18.8279L953.506 19.6669M949.129 17.4553L987.234 17.4553M907.511 15.3253L944.913 15.3253M907.511 15.3253L870.108 15.3253M907.511 15.3253L904.96 13.7782L904.125 13.2723M944.913 15.3253L943.372 14.5465L942.356 14.0332L940.85 13.2723M944.913 15.3253L982.315 15.3253M897.708 9.38138L933.15 9.38138M897.708 9.38138L895.793 8.22072L894.665 7.53617M897.708 9.38138L862.266 9.38138M897.708 9.38138L900.859 11.2922M933.15 9.38138L930.398 7.99169L929.948 7.76329L929.497 7.53617M933.15 9.38138L935.024 10.3282L936.931 11.2922M933.15 9.38138L968.591 9.38138M894.665 7.53617L929.497 7.53617M894.665 7.53617L893.182 6.63721L892.45 6.19342L892.086 5.97297L891.725 5.75346M894.665 7.53617L859.832 7.53617M929.497 7.53617L964.331 7.53617M929.497 7.53617L925.969 5.75346M1416.44 136.362H1339.12M1416.44 136.362L1390.89 127.753M1416.44 136.362H1439.61M1416.44 136.362L1439.61 144.166M1345.02 112.302H1414.41M1345.02 112.302L1324.36 105.344M1345.02 112.302L1275.63 112.302M1345.02 112.302L1367.14 119.754M1414.41 112.302L1391.46 105.344M1414.41 112.302L1438.99 119.754M1414.41 112.302H1439.61M1324.36 105.344L1391.46 105.344M1324.36 105.344H1257.26M1324.36 105.344L1305.02 98.8306M1391.46 105.344L1369.97 98.8306M1391.46 105.344H1439.61M1269.84 86.9803H1330.88M1269.84 86.9803L1253.8 81.5747M1269.84 86.9803L1208.81 86.9803M1269.84 86.9803L1286.89 92.7218M1330.88 86.9803L1313.05 81.5747M1330.88 86.9803L1349.82 92.7218M1330.88 86.9803L1391.92 86.9803M1253.8 81.5747H1313.05M1253.8 81.5747L1194.54 81.5747M1253.8 81.5747L1238.66 76.4756M1313.05 81.5747L1296.23 76.4756M1313.05 81.5747L1372.31 81.5747M1210.82 67.0995L1265.3 67.0995M1210.82 67.0995L1198 62.7794M1210.82 67.0995H1156.34M1210.82 67.0995L1224.36 71.6584M1265.3 67.0995L1251.05 62.7794M1265.3 67.0995L1280.34 71.6584M1265.3 67.0995H1319.79M1198 62.7794L1251.05 62.7794M1198 62.7794L1144.94 62.7794M1198 62.7794L1185.83 58.6795M1251.05 62.7794L1237.53 58.6795M1251.05 62.7794H1304.11M1163.26 51.0763L1212.45 51.0763M1163.26 51.0763L1152.77 47.5448M1163.26 51.0763L1114.06 51.0763M1163.26 51.0763L1174.26 54.7835M1212.45 51.0763L1200.8 47.5448M1212.45 51.0763L1224.68 54.7835M1212.45 51.0763L1261.65 51.0763M1152.77 47.5448L1200.8 47.5448M1152.77 47.5448L1104.74 47.5448M1152.77 47.5448L1142.77 44.1767M1200.8 47.5448L1189.69 44.1767M1200.8 47.5448L1248.83 47.5448M1124.1 37.8871L1168.94 37.8871M1124.1 37.8871L1115.37 34.9465M1124.1 37.8871H1079.26M1124.1 37.8871L1133.22 40.9608M1168.94 37.8871L1159.24 34.9465M1168.94 37.8871L1179.08 40.9608M1168.94 37.8871L1213.79 37.8871M1115.37 34.9465L1159.24 34.9465M1115.37 34.9465L1071.5 34.9465M1115.37 34.9465L1107.01 32.1304M1159.24 34.9465L1149.95 32.1304M1159.24 34.9465L1203.12 34.9465M1091.31 26.8412L1132.51 26.8412M1091.31 26.8412L1083.93 24.3546M1091.31 26.8412L1050.11 26.8412M1091.31 26.8412L1099 29.4309M1132.51 26.8412L1124.31 24.3546M1132.51 26.8412L1141.05 29.4309M1132.51 26.8412L1173.71 26.8412M1083.93 24.3546L1124.31 24.3546M1083.93 24.3546L1043.54 24.3546M1083.93 24.3546L1076.83 21.9651M1124.31 24.3546L1116.42 21.9651M1124.31 24.3546L1164.69 24.3546M1063.44 17.4553L1101.55 17.4553M1063.44 17.4553L1057.12 15.3253M1063.44 17.4553L1025.34 17.4553M1063.44 17.4553L1065.06 18.0003L1065.88 18.275L1070.01 19.6669M1101.55 17.4553L1094.52 15.3253M1101.55 17.4553L1108.84 19.6669M1101.55 17.4553L1139.65 17.4553M1057.12 15.3253L1094.52 15.3253M1057.12 15.3253L1019.72 15.3253M1057.12 15.3253L1051.03 13.2723M1094.52 15.3253L1087.75 13.2723M1094.52 15.3253L1131.92 15.3253M1039.47 9.38138L1074.92 9.38138M1039.47 9.38138L1034 7.53617M1039.47 9.38138L1004.03 9.38138M1039.47 9.38138L1045.15 11.2922M1074.92 9.38138L1070.33 7.99169L1069.58 7.76329L1068.83 7.53617M1074.92 9.38138L1081.22 11.2922M1074.92 9.38138L1110.36 9.38138M1034 7.53617L1068.83 7.53617M1034 7.53617L1029.36 5.97297L1028.7 5.75346M1034 7.53617L999.164 7.53617M1068.83 7.53617L1103.66 7.53617M1068.83 7.53617L1062.95 5.75346M1428.75 67.0995L1410.22 62.7794M1428.75 67.0995H1374.27M1428.75 67.0995L1439.61 69.6337M1428.75 67.0995H1439.61M1410.22 62.7794L1357.17 62.7794M1410.22 62.7794L1392.64 58.6795M1410.22 62.7794L1439.61 62.7794M1360.04 51.0763L1409.23 51.0763M1360.04 51.0763L1344.89 47.5448M1360.04 51.0763H1310.84M1360.04 51.0763L1375.93 54.7835M1409.23 51.0763L1392.92 47.5448M1409.23 51.0763L1426.35 54.7835M1409.23 51.0763L1439.61 51.0763M1344.89 47.5448L1392.92 47.5448M1344.89 47.5448L1296.86 47.5448M1344.89 47.5448L1330.45 44.1767M1392.92 47.5448L1377.37 44.1767M1392.92 47.5448L1439.61 47.5448M1303.48 37.8871L1348.32 37.8871M1303.48 37.8871L1290.87 34.9465M1303.48 37.8871H1258.63M1303.48 37.8871L1316.66 40.9608M1348.32 37.8871L1334.74 34.9465M1348.32 37.8871L1362.52 40.9608M1348.32 37.8871L1393.17 37.8871M1290.87 34.9465L1334.74 34.9465M1290.87 34.9465L1246.99 34.9465M1290.87 34.9465L1278.79 32.1304M1334.74 34.9465L1321.74 32.1304M1334.74 34.9465L1378.62 34.9465M1256.11 26.8412L1297.31 26.8412M1256.11 26.8412L1245.45 24.3546M1256.11 26.8412L1214.91 26.8412M1256.11 26.8412L1267.22 29.4309M1297.31 26.8412L1285.83 24.3546M1297.31 26.8412L1309.27 29.4309M1297.31 26.8412L1338.51 26.8412M1245.45 24.3546L1285.83 24.3546M1245.45 24.3546L1205.07 24.3546M1245.45 24.3546L1235.2 21.9651M1285.83 24.3546L1274.79 21.9651M1285.83 24.3546L1326.21 24.3546M1215.86 17.4553L1253.97 17.4553M1215.86 17.4553L1206.73 15.3253M1215.86 17.4553L1177.76 17.4553M1215.86 17.4553L1225.35 19.6669M1253.97 17.4553L1244.13 15.3253M1253.97 17.4553L1264.18 19.6669M1253.97 17.4553L1292.07 17.4553M1206.73 15.3253L1244.13 15.3253M1206.73 15.3253L1169.33 15.3253M1206.73 15.3253L1197.93 13.2723M1244.13 15.3253L1234.65 13.2723M1244.13 15.3253L1281.53 15.3253M1181.24 9.38138L1216.68 9.38138M1181.24 9.38138L1173.33 7.53617M1181.24 9.38138L1145.8 9.38138M1181.24 9.38138L1189.43 11.2922M1216.68 9.38138L1208.16 7.53617M1216.68 9.38138L1225.51 11.2922M1216.68 9.38138L1252.12 9.38138M1173.33 7.53617L1208.16 7.53617M1173.33 7.53617L1165.68 5.75346M1173.33 7.53617L1138.5 7.53617M1208.16 7.53617L1242.99 7.53617M1208.16 7.53617L1199.93 5.75346M1420.91 26.8412L1406.97 24.3546M1420.91 26.8412L1379.71 26.8412M1420.91 26.8412L1435.44 29.4309M1420.91 26.8412L1439.61 26.8412M1406.97 24.3546L1366.59 24.3546M1406.97 24.3546L1393.57 21.9651M1406.97 24.3546L1439.61 24.3546M1368.28 17.4553L1406.39 17.4553M1368.28 17.4553L1356.34 15.3253M1368.28 17.4553L1330.18 17.4553M1368.28 17.4553L1380.68 19.6669M1406.39 17.4553L1393.74 15.3253M1406.39 17.4553L1419.52 19.6669M1406.39 17.4553L1439.61 17.4553M1356.34 15.3253L1393.74 15.3253M1356.34 15.3253L1318.94 15.3253M1356.34 15.3253L1344.82 13.2723M1393.74 15.3253L1381.55 13.2723M1393.74 15.3253L1431.14 15.3253M1323.01 9.38138L1358.45 9.38138M1323.01 9.38138L1312.66 7.53617M1323.01 9.38138L1287.57 9.38138M1323.01 9.38138L1333.72 11.2922M1358.45 9.38138L1347.49 7.53617M1358.45 9.38138L1369.79 11.2922M1358.45 9.38138L1393.89 9.38138M1312.66 7.53617L1347.49 7.53617M1312.66 7.53617L1302.66 5.75346M1312.66 7.53617L1277.83 7.53617M1347.49 7.53617L1382.33 7.53617M1347.49 7.53617L1336.91 5.75346M1369.79 11.2922L1381.55 13.2723M1369.79 11.2922L1405.87 11.2922M1369.79 11.2922L1333.72 11.2922M1393.89 9.38138L1382.33 7.53617M1393.89 9.38138L1405.87 11.2922M1393.89 9.38138L1429.33 9.38138M1382.33 7.53617L1417.16 7.53617M1382.33 7.53617L1371.15 5.75346M1336.91 5.75346L1302.66 5.75346M1336.91 5.75346L1371.15 5.75346M1336.91 5.75346L1326.67 4.02975M1405.87 11.2922L1418.28 13.2723M1405.87 11.2922L1439.61 11.2922M1429.33 9.38138L1417.16 7.53617M1429.33 9.38138L1439.61 10.9397M1429.33 9.38138L1439.61 9.38138M1417.16 7.53617L1405.4 5.75346M1417.16 7.53617L1439.61 7.53617M1371.15 5.75346L1405.4 5.75346M1371.15 5.75346L1360.35 4.02975M1405.4 5.75346L1394.03 4.02975M1405.4 5.75346L1439.61 5.75346M1381.55 13.2723L1418.28 13.2723M1381.55 13.2723L1344.82 13.2723M1431.14 15.3253L1418.28 13.2723M1431.14 15.3253L1439.61 16.6766M1431.14 15.3253H1439.61M1418.28 13.2723L1439.61 13.2723M1344.82 13.2723L1308.1 13.2723M1344.82 13.2723L1333.72 11.2922M1333.72 11.2922L1297.65 11.2922M1419.52 19.6669L1433.16 21.9651M1419.52 19.6669L1380.68 19.6669M1419.52 19.6669L1439.61 19.6669M1439.73 17.4553H1439.61M1433.16 21.9651L1393.57 21.9651M1433.16 21.9651L1439.61 23.0512M1433.16 21.9651L1439.61 21.9651M1393.57 21.9651L1353.98 21.9651M1393.57 21.9651L1380.68 19.6669M1380.68 19.6669L1341.85 19.6669M1225.51 11.2922L1234.65 13.2723M1225.51 11.2922L1261.58 11.2922M1225.51 11.2922L1189.43 11.2922M1252.12 9.38138L1242.99 7.53617M1252.12 9.38138L1261.58 11.2922M1252.12 9.38138L1287.57 9.38138M1242.99 7.53617L1277.83 7.53617M1242.99 7.53617L1234.17 5.75346M1199.93 5.75346L1234.17 5.75346M1199.93 5.75346L1191.97 4.02975M1199.93 5.75346L1165.68 5.75346M1261.58 11.2922L1271.37 13.2723M1261.58 11.2922L1297.65 11.2922M1287.57 9.38138L1277.83 7.53617M1287.57 9.38138L1297.65 11.2922M1277.83 7.53617L1268.42 5.75346M1234.17 5.75346L1268.42 5.75346M1234.17 5.75346L1225.64 4.02975M1297.65 11.2922L1308.1 13.2723M1302.66 5.75346L1268.42 5.75346M1302.66 5.75346L1293 4.02975M1268.42 5.75346L1259.32 4.02975M1234.65 13.2723L1271.37 13.2723M1234.65 13.2723L1197.93 13.2723M1281.53 15.3253L1271.37 13.2723M1281.53 15.3253L1292.07 17.4553M1281.53 15.3253L1318.94 15.3253M1271.37 13.2723L1308.1 13.2723M1197.93 13.2723L1161.2 13.2723M1197.93 13.2723L1189.43 11.2922M1308.1 13.2723L1318.94 15.3253M1189.43 11.2922L1153.36 11.2922M1292.07 17.4553L1303.02 19.6669M1292.07 17.4553L1330.18 17.4553M1318.94 15.3253L1330.18 17.4553M1330.18 17.4553L1341.85 19.6669M1264.18 19.6669L1274.79 21.9651M1264.18 19.6669L1303.02 19.6669M1264.18 19.6669L1225.35 19.6669M1303.02 19.6669L1314.39 21.9651M1303.02 19.6669L1341.85 19.6669M1341.85 19.6669L1353.98 21.9651M1274.79 21.9651L1314.39 21.9651M1274.79 21.9651L1235.2 21.9651M1326.21 24.3546L1314.39 21.9651M1326.21 24.3546L1338.51 26.8412M1326.21 24.3546L1366.59 24.3546M1314.39 21.9651L1353.98 21.9651M1235.2 21.9651L1195.61 21.9651M1235.2 21.9651L1225.35 19.6669M1353.98 21.9651L1366.59 24.3546M1225.35 19.6669L1186.51 19.6669M1338.51 26.8412L1351.33 29.4309M1338.51 26.8412L1379.71 26.8412M1366.59 24.3546L1379.71 26.8412M1379.71 26.8412L1393.38 29.4309M1309.27 29.4309L1321.74 32.1304M1309.27 29.4309L1351.33 29.4309M1309.27 29.4309L1267.22 29.4309M1351.33 29.4309L1364.68 32.1304M1351.33 29.4309L1393.38 29.4309M1393.38 29.4309L1407.63 32.1304M1393.38 29.4309L1435.44 29.4309M1435.44 29.4309L1439.61 29.4309M1435.44 29.4309L1439.61 30.1755M1321.74 32.1304L1364.68 32.1304M1321.74 32.1304L1278.79 32.1304M1378.62 34.9465L1364.68 32.1304M1378.62 34.9465L1393.17 37.8871M1378.62 34.9465H1422.49M1364.68 32.1304H1407.63M1278.79 32.1304H1235.85M1278.79 32.1304L1267.22 29.4309M1407.63 32.1304L1422.49 34.9465M1407.63 32.1304L1439.61 32.1304M1267.22 29.4309L1225.16 29.4309M1393.17 37.8871L1408.37 40.9608M1393.17 37.8871L1438.01 37.8871M1422.49 34.9465L1438.01 37.8871M1422.49 34.9465L1439.61 34.9465M1439.84 32.1304H1439.61M1438.01 37.8871L1439.61 38.1905M1438.01 37.8871H1439.61M1362.52 40.9608L1377.37 44.1767M1362.52 40.9608L1408.37 40.9608M1362.52 40.9608H1316.66M1408.37 40.9608L1424.29 44.1767M1408.37 40.9608L1439.61 40.9608M1440 38.2639L1439.61 38.1905M1377.37 44.1767L1424.29 44.1767M1377.37 44.1767L1330.45 44.1767M1424.29 44.1767H1439.61M1424.29 44.1767L1439.61 47.2741M1330.45 44.1767L1283.53 44.1767M1330.45 44.1767L1316.66 40.9608M1316.66 40.9608L1270.8 40.9608M1426.35 54.7835L1375.93 54.7835M1426.35 54.7835L1439.61 57.6553M1426.35 54.7835H1439.61M1439.98 51.0763H1439.61M1375.93 54.7835L1325.51 54.7835M1375.93 54.7835L1392.64 58.6795M1439.76 57.687L1439.61 57.6553M1081.22 11.2922L1087.75 13.2723M1081.22 11.2922L1117.29 11.2922M1081.22 11.2922L1045.15 11.2922M1110.36 9.38138L1103.66 7.53617M1110.36 9.38138L1117.29 11.2922M1110.36 9.38138L1145.8 9.38138M1103.66 7.53617L1138.5 7.53617M1103.66 7.53617L1097.19 5.75346M1062.95 5.75346L1097.19 5.75346M1062.95 5.75346L1060.79 5.10033L1057.26 4.02975M1062.95 5.75346L1028.7 5.75346M1117.29 11.2922L1124.48 13.2723M1117.29 11.2922L1153.36 11.2922M1145.8 9.38138L1138.5 7.53617M1145.8 9.38138L1153.36 11.2922M1138.5 7.53617L1131.44 5.75346M1097.19 5.75346L1131.44 5.75346M1097.19 5.75346L1090.94 4.02975M1153.36 11.2922L1161.2 13.2723M1165.68 5.75346L1158.29 4.02975M1165.68 5.75346L1131.44 5.75346M1131.44 5.75346L1130.57 5.53458L1128.85 5.10033L1124.62 4.02975M1087.75 13.2723L1124.48 13.2723M1087.75 13.2723L1051.03 13.2723M1131.92 15.3253L1124.48 13.2723M1131.92 15.3253L1139.65 17.4553M1131.92 15.3253L1169.33 15.3253M1124.48 13.2723L1161.2 13.2723M1051.03 13.2723L1014.3 13.2723M1051.03 13.2723L1045.15 11.2922M1161.2 13.2723L1169.33 15.3253M1045.15 11.2922L1009.07 11.2922M1139.65 17.4553L1147.68 19.6669M1139.65 17.4553L1177.76 17.4553M1169.33 15.3253L1170.36 15.5869L1177.76 17.4553M1177.76 17.4553L1186.51 19.6669M1108.84 19.6669L1109.78 19.9495L1116.42 21.9651M1108.84 19.6669L1147.68 19.6669M1108.84 19.6669L1070.01 19.6669M1147.68 19.6669L1156.02 21.9651M1147.68 19.6669L1186.51 19.6669M1186.51 19.6669L1195.61 21.9651M1116.42 21.9651L1156.02 21.9651M1116.42 21.9651L1076.83 21.9651M1164.69 24.3546L1156.02 21.9651M1164.69 24.3546L1173.71 26.8412M1164.69 24.3546L1205.07 24.3546M1156.02 21.9651L1195.61 21.9651M1076.83 21.9651L1037.24 21.9651M1076.83 21.9651L1070.01 19.6669M1195.61 21.9651L1205.07 24.3546M1070.01 19.6669L1031.18 19.6669M1173.71 26.8412L1183.11 29.4309M1173.71 26.8412L1214.91 26.8412M1205.07 24.3546L1214.91 26.8412M1214.91 26.8412L1225.16 29.4309M1141.05 29.4309L1149.95 32.1304M1141.05 29.4309L1183.11 29.4309M1141.05 29.4309L1099 29.4309M1183.11 29.4309L1192.9 32.1304M1183.11 29.4309L1225.16 29.4309M1225.16 29.4309L1235.85 32.1304M1149.95 32.1304H1192.9M1149.95 32.1304L1107.01 32.1304M1203.12 34.9465L1192.9 32.1304M1203.12 34.9465L1213.79 37.8871M1203.12 34.9465H1246.99M1192.9 32.1304L1235.85 32.1304M1107.01 32.1304L1064.06 32.1304M1107.01 32.1304L1099 29.4309M1235.85 32.1304L1246.99 34.9465M1099 29.4309L1056.94 29.4309M1213.79 37.8871L1224.94 40.9608M1213.79 37.8871L1258.63 37.8871M1246.99 34.9465L1258.63 37.8871M1258.63 37.8871L1270.8 40.9608M1179.08 40.9608L1189.69 44.1767M1179.08 40.9608L1224.94 40.9608M1179.08 40.9608H1133.22M1224.94 40.9608L1236.61 44.1767M1224.94 40.9608L1270.8 40.9608M1270.8 40.9608L1283.53 44.1767M1189.69 44.1767L1236.61 44.1767M1189.69 44.1767H1142.77M1248.83 47.5448L1236.61 44.1767M1248.83 47.5448L1261.65 51.0763M1248.83 47.5448H1296.86M1236.61 44.1767L1283.53 44.1767M1142.77 44.1767L1095.85 44.1767M1142.77 44.1767L1133.22 40.9608M1283.53 44.1767L1296.86 47.5448M1133.22 40.9608L1087.37 40.9608M1261.65 51.0763L1275.1 54.7835M1261.65 51.0763L1310.84 51.0763M1296.86 47.5448L1310.84 51.0763M1310.84 51.0763L1325.51 54.7835M1224.68 54.7835L1237.53 58.6795M1224.68 54.7835L1275.1 54.7835M1224.68 54.7835L1174.26 54.7835M1275.1 54.7835L1289.23 58.6795M1275.1 54.7835L1325.51 54.7835M1325.51 54.7835L1340.94 58.6795M1237.53 58.6795L1289.23 58.6795M1237.53 58.6795L1185.83 58.6795M1304.11 62.7794L1289.23 58.6795M1304.11 62.7794L1319.79 67.0995M1304.11 62.7794L1357.17 62.7794M1289.23 58.6795L1340.94 58.6795M1185.83 58.6795H1134.12M1185.83 58.6795L1174.26 54.7835M1340.94 58.6795L1357.17 62.7794M1340.94 58.6795L1392.64 58.6795M1174.26 54.7835L1123.84 54.7835M1319.79 67.0995L1336.33 71.6584M1319.79 67.0995L1374.27 67.0995M1357.17 62.7794L1374.27 67.0995M1392.64 58.6795L1439.61 58.6795M1374.27 67.0995L1392.31 71.6584M1280.34 71.6584L1296.23 76.4756M1280.34 71.6584L1336.33 71.6584M1280.34 71.6584H1224.36M1336.33 71.6584L1353.81 76.4756M1336.33 71.6584H1392.31M1392.31 71.6584L1411.38 76.4756M1392.31 71.6584H1439.61M1296.23 76.4756L1353.81 76.4756M1296.23 76.4756H1238.66M1372.31 81.5747L1353.81 76.4756M1372.31 81.5747L1391.92 86.9803M1372.31 81.5747H1431.56M1353.81 76.4756H1411.38M1238.66 76.4756L1181.09 76.4756M1238.66 76.4756L1224.36 71.6584M1411.38 76.4756L1431.56 81.5747M1411.38 76.4756H1439.61M1224.36 71.6584L1168.37 71.6584M1391.92 86.9803L1412.75 92.7218M1391.92 86.9803H1439.61M1431.56 81.5747H1439.61M1431.56 81.5747L1439.61 83.6086M1349.82 92.7218L1369.97 98.8306M1349.82 92.7218H1412.75M1349.82 92.7218L1286.89 92.7218M1412.75 92.7218L1434.92 98.8306M1412.75 92.7218H1439.61M1369.97 98.8306H1434.92M1369.97 98.8306L1305.02 98.8306M1434.92 98.8306L1439.61 100.124M1434.92 98.8306H1439.61M1305.02 98.8306H1240.08M1305.02 98.8306L1286.89 92.7218M1286.89 92.7218H1223.96M1438.99 119.754H1367.14M1438.99 119.754H1439.61M1438.99 119.754L1439.61 119.943M1367.14 119.754L1295.29 119.754M1367.14 119.754L1390.89 127.753M936.931 11.2922L938.384 12.0263L938.873 12.2734L940.85 13.2723M936.931 11.2922L973.003 11.2922M936.931 11.2922L900.859 11.2922M968.591 9.38138L965.382 7.99169L964.331 7.53617M968.591 9.38138L972.443 11.0496L973.003 11.2922M968.591 9.38138L1004.03 9.38138M964.331 7.53617L999.164 7.53617M964.331 7.53617L960.214 5.75346M925.969 5.75346L960.214 5.75346M925.969 5.75346L924.676 5.10033L922.558 4.02975M925.969 5.75346L891.725 5.75346M973.003 11.2922L974.131 11.7804L977.575 13.2723M973.003 11.2922L1009.07 11.2922M1004.03 9.38138L999.164 7.53617M1004.03 9.38138L1009.07 11.2922M999.164 7.53617L995.62 6.19342L994.459 5.75346M960.214 5.75346L994.459 5.75346M960.214 5.75346L956.234 4.02975M1009.07 11.2922L1014.3 13.2723M1028.7 5.75346L1028.05 5.53458L1023.59 4.02975M1028.7 5.75346L994.459 5.75346M994.459 5.75346L992.735 5.10033L989.91 4.02975M940.85 13.2723L977.575 13.2723M940.85 13.2723L904.125 13.2723M982.315 15.3253L977.575 13.2723M982.315 15.3253L987.234 17.4553M982.315 15.3253L1019.72 15.3253M977.575 13.2723L1014.3 13.2723M904.125 13.2723L867.4 13.2723M904.125 13.2723L900.859 11.2922M1014.3 13.2723L1019.72 15.3253M900.859 11.2922L864.788 11.2922M987.234 17.4553L990.402 18.8279L991.046 19.1061L992.34 19.6669M987.234 17.4553L1025.34 17.4553M1019.72 15.3253L1025.34 17.4553M1025.34 17.4553L1031.18 19.6669M953.506 19.6669L958.054 21.9651M953.506 19.6669L992.34 19.6669M953.506 19.6669L914.672 19.6669M992.34 19.6669L997.647 21.9651M992.34 19.6669L1031.18 19.6669M1031.18 19.6669L1037.24 21.9651M958.054 21.9651L997.647 21.9651M958.054 21.9651L918.462 21.9651M1003.16 24.3546L999.69 22.8501L999.006 22.5535L997.647 21.9651M1003.16 24.3546L1008.91 26.8412M1003.16 24.3546L1043.54 24.3546M997.647 21.9651L1037.24 21.9651M918.462 21.9651L878.87 21.9651M918.462 21.9651L914.672 19.6669M1037.24 21.9651L1043.54 24.3546M914.672 19.6669L875.837 19.6669M1008.91 26.8412L1014.89 29.4309M1008.91 26.8412L1050.11 26.8412M1043.54 24.3546L1050.11 26.8412M1050.11 26.8412L1056.94 29.4309M972.831 29.4309L975.474 30.7664L976.143 31.1048L978.173 32.1304M972.831 29.4309L1014.89 29.4309M972.831 29.4309L930.775 29.4309M1014.89 29.4309L1021.12 32.1304M1014.89 29.4309L1056.94 29.4309M1056.94 29.4309L1064.06 32.1304M978.173 32.1304L1021.12 32.1304M978.173 32.1304L935.228 32.1304M1027.62 34.9465L1021.12 32.1304M1027.62 34.9465L1034.41 37.8871M1027.62 34.9465H1071.5M1021.12 32.1304H1064.06M935.228 32.1304H892.282M935.228 32.1304L934.097 31.4449L930.775 29.4309M1064.06 32.1304L1071.5 34.9465M930.775 29.4309L888.721 29.4309M1034.41 37.8871L1041.51 40.9608M1034.41 37.8871L1079.26 37.8871M1071.5 34.9465L1079.26 37.8871M1079.26 37.8871L1087.37 40.9608M995.65 40.9608L1002.01 44.1767M995.65 40.9608L1041.51 40.9608M995.65 40.9608L949.791 40.9608M1041.51 40.9608L1048.93 44.1767M1041.51 40.9608L1087.37 40.9608M1087.37 40.9608L1095.85 44.1767M1002.01 44.1767L1048.93 44.1767M1002.01 44.1767L955.096 44.1767M1056.71 47.5448L1048.93 44.1767M1056.71 47.5448L1064.87 51.0763M1056.71 47.5448L1104.74 47.5448M1048.93 44.1767L1095.85 44.1767M955.096 44.1767H908.176M955.096 44.1767L949.791 40.9608M1095.85 44.1767L1104.74 47.5448M949.791 40.9608H903.934M1064.87 51.0763L1073.42 54.7835M1064.87 51.0763L1114.06 51.0763M1104.74 47.5448L1114.06 51.0763M1114.06 51.0763L1123.84 54.7835M1023.01 54.7835L1030.72 58.6795M1023.01 54.7835H1073.42M1023.01 54.7835L972.59 54.7835M1073.42 54.7835L1082.42 58.6795M1073.42 54.7835L1123.84 54.7835M1123.84 54.7835L1134.12 58.6795M1030.72 58.6795L1082.42 58.6795M1030.72 58.6795L979.015 58.6795M1091.89 62.7794L1082.42 58.6795M1091.89 62.7794L1101.86 67.0995M1091.89 62.7794L1144.94 62.7794M1082.42 58.6795L1134.12 58.6795M979.015 58.6795L927.312 58.6795M979.015 58.6795L972.59 54.7835M1134.12 58.6795L1144.94 62.7794M972.59 54.7835L922.171 54.7835M1101.86 67.0995L1112.39 71.6584M1101.86 67.0995L1156.34 67.0995M1144.94 62.7794L1156.34 67.0995M1156.34 67.0995L1168.37 71.6584M1056.41 71.6584L1065.94 76.4756M1056.41 71.6584L1112.39 71.6584M1056.41 71.6584H1000.42M1112.39 71.6584L1123.51 76.4756M1112.39 71.6584H1168.37M1168.37 71.6584L1181.09 76.4756M1065.94 76.4756L1123.51 76.4756M1065.94 76.4756H1008.37M1135.29 81.5747L1123.51 76.4756M1135.29 81.5747L1147.77 86.9803M1135.29 81.5747H1194.54M1123.51 76.4756H1181.09M1008.37 76.4756L950.793 76.4756M1008.37 76.4756L1000.42 71.6584M1181.09 76.4756L1194.54 81.5747M1000.42 71.6584L944.437 71.6584M1147.77 86.9803L1161.02 92.7218M1147.77 86.9803H1208.81M1194.54 81.5747L1208.81 86.9803M1208.81 86.9803L1223.96 92.7218M1098.09 92.7218L1110.18 98.8306M1098.09 92.7218L1161.02 92.7218M1098.09 92.7218H1035.16M1161.02 92.7218L1175.13 98.8306M1161.02 92.7218L1223.96 92.7218M1223.96 92.7218L1240.08 98.8306M1110.18 98.8306H1175.13M1110.18 98.8306L1045.24 98.8306M1190.17 105.344L1175.13 98.8306M1190.17 105.344L1206.24 112.302M1190.17 105.344L1257.26 105.344M1175.13 98.8306L1240.08 98.8306M1045.24 98.8306L980.288 98.8306M1045.24 98.8306L1035.16 92.7218M1240.08 98.8306L1257.26 105.344M1035.16 92.7218L972.228 92.7218M1206.24 112.302L1223.44 119.754M1206.24 112.302L1275.63 112.302M1257.26 105.344L1275.63 112.302M1275.63 112.302L1295.29 119.754M1151.59 119.754L1167.42 127.753M1151.59 119.754L1223.44 119.754M1151.59 119.754L1079.74 119.754M1223.44 119.754L1241.91 127.753M1223.44 119.754H1295.29M1295.29 119.754L1316.4 127.753M1167.42 127.753L1241.91 127.753M1167.42 127.753L1092.94 127.753M1261.79 136.362L1241.91 127.753M1261.79 136.362L1283.24 145.653M1261.79 136.362L1339.12 136.362M1241.91 127.753H1316.4M1092.94 127.753H1018.45M1092.94 127.753L1079.74 119.754M1316.4 127.753L1339.12 136.362M1316.4 127.753L1390.89 127.753M1079.74 119.754H1007.9M1283.24 145.653L1306.47 155.711M1283.24 145.653H1363.63M1339.12 136.362L1363.63 145.653M1390.89 127.753H1439.61M1363.63 145.653L1390.18 155.711M1363.63 145.653H1439.61M1222.76 155.711L1244.38 166.635M1222.76 155.711L1306.47 155.711M1222.76 155.711H1139.05M1306.47 155.711L1331.69 166.635M1306.47 155.711H1390.18M1390.18 155.711L1419 166.635M1390.18 155.711H1439.61M1244.38 166.635L1331.69 166.635M1244.38 166.635H1157.07M1359.18 178.542L1331.69 166.635M1359.18 178.542L1389.27 191.57M1359.18 178.542H1439.61M1331.69 166.635H1419M1157.07 166.635H1069.75M1157.07 166.635L1139.05 155.711M1419 166.635H1439.61M1419 166.635L1439.61 174.445M1139.05 155.711H1055.34M1389.27 191.57L1422.32 205.887M1389.27 191.57H1439.61M1322.06 205.887L1353.34 221.692M1322.06 205.887H1422.32M1322.06 205.887L1221.8 205.887M1422.32 205.887L1439.61 213.374M1422.32 205.887H1439.61M1353.34 221.692L1247.87 221.692M1353.34 221.692L1439.61 221.692M1247.87 221.692H1142.4M1247.87 221.692L1221.8 205.887M1221.8 205.887H1121.54M792.644 11.2922L792.805 11.5359L792.966 11.7804L793.128 12.0263L793.291 12.2734L793.784 13.0207L793.95 13.2723M792.644 11.2922L828.716 11.2922M792.644 11.2922L756.572 11.2922M826.825 9.38138L825.449 7.99169L824.999 7.53617M826.825 9.38138L827.999 10.5677L828.716 11.2922M826.825 9.38138L862.266 9.38138M824.999 7.53617L859.832 7.53617M824.999 7.53617L823.67 6.19342L823.234 5.75346M788.99 5.75346L788.846 5.53458L788.275 4.66924L787.852 4.02975M788.99 5.75346L823.234 5.75346M788.99 5.75346L754.745 5.75346M828.716 11.2922L828.956 11.5359L829.199 11.7804L829.442 12.0263L829.687 12.2734L830.675 13.2723M828.716 11.2922L864.788 11.2922M862.266 9.38138L860.433 7.99169L859.832 7.53617M862.266 9.38138L864.788 11.2922M859.832 7.53617L858.645 6.63721L857.769 5.97297L857.48 5.75346M823.234 5.75346L823.018 5.53458L822.589 5.10033L822.162 4.66924L821.95 4.45512L821.529 4.02975M823.234 5.75346L857.48 5.75346M864.788 11.2922L866.738 12.7704L867.4 13.2723M891.725 5.75346L889.584 4.45512L888.882 4.02975M891.725 5.75346L857.48 5.75346M857.48 5.75346L855.486 4.24196L855.205 4.02975M793.95 13.2723L830.675 13.2723M793.95 13.2723L757.225 13.2723M832.706 15.3253L830.675 13.2723M832.706 15.3253L834.814 17.4553M832.706 15.3253L870.108 15.3253M830.675 13.2723L867.4 13.2723M757.225 13.2723L720.5 13.2723M757.225 13.2723L756.572 11.2922M867.4 13.2723L870.108 15.3253M756.572 11.2922L720.5 11.2922M834.814 17.4553L835.354 18.0003L836.173 18.8279L837.003 19.6669M834.814 17.4553L872.92 17.4553M870.108 15.3253L870.455 15.5869L872.92 17.4553M872.92 17.4553L873.278 17.7272L873.639 18.0003L874.001 18.275L875.837 19.6669M798.169 19.6669L799.685 21.9651M798.169 19.6669L837.003 19.6669M798.169 19.6669L759.334 19.6669M837.003 19.6669L839.277 21.9651M837.003 19.6669L875.837 19.6669M875.837 19.6669L878.1 21.382L878.485 21.6729L878.87 21.9651M799.685 21.9651L839.277 21.9651M799.685 21.9651L760.092 21.9651M841.642 24.3546L841.944 24.6601L842.248 24.9668L842.553 25.2755L844.103 26.8412M841.642 24.3546L840.448 23.1479L840.153 22.8501L839.86 22.5535L839.277 21.9651M841.642 24.3546L882.023 24.3546M839.277 21.9651L878.87 21.9651M760.092 21.9651L720.5 21.9651M760.092 21.9651L759.334 19.6669M878.87 21.9651L882.023 24.3546M759.334 19.6669L720.5 19.6669M844.103 26.8412L846.34 29.1013L846.665 29.4309M844.103 26.8412L885.303 26.8412M882.023 24.3546L882.831 24.9668L885.303 26.8412M885.303 26.8412L886.569 27.7998L888.721 29.4309M804.61 29.4309L805.492 30.7664L805.714 31.1048L806.391 32.1304M804.61 29.4309L846.665 29.4309M804.61 29.4309L762.555 29.4309M846.665 29.4309L849.337 32.1304M846.665 29.4309L888.721 29.4309M888.721 29.4309L892.282 32.1304M806.391 32.1304H849.337M806.391 32.1304L763.445 32.1304M852.123 34.9465L849.337 32.1304M852.123 34.9465L855.033 37.8871M852.123 34.9465H895.998M849.337 32.1304L892.282 32.1304M763.445 32.1304L720.5 32.1304M763.445 32.1304L763.219 31.4449L762.774 30.0951L762.555 29.4309M892.282 32.1304L895.998 34.9465M762.555 29.4309L720.5 29.4309M855.033 37.8871L857.301 40.1796L858.075 40.9608M855.033 37.8871H899.878M895.998 34.9465L899.878 37.8871M899.878 37.8871L901.883 39.4068L903.934 40.9608M812.217 40.9608L814.338 44.1767M812.217 40.9608L858.075 40.9608M812.217 40.9608L766.358 40.9608M858.075 40.9608L861.257 44.1767M858.075 40.9608L903.934 40.9608M903.934 40.9608L908.176 44.1767M814.338 44.1767L861.257 44.1767M814.338 44.1767L767.419 44.1767M864.591 47.5448L863.742 46.688L861.257 44.1767M864.591 47.5448L868.085 51.0763M864.591 47.5448L912.621 47.5448M861.257 44.1767L908.176 44.1767M767.419 44.1767L720.5 44.1767M767.419 44.1767L766.358 40.9608M908.176 44.1767L912.621 47.5448M766.358 40.9608L720.5 40.9608M868.085 51.0763L871.753 54.7835M868.085 51.0763L917.28 51.0763M912.621 47.5448L917.28 51.0763M917.28 51.0763L922.171 54.7835M821.336 54.7835L823.906 58.6795M821.336 54.7835L871.753 54.7835M821.336 54.7835L770.918 54.7835M871.753 54.7835L875.609 58.6795M871.753 54.7835L922.171 54.7835M922.171 54.7835L927.312 58.6795M823.906 58.6795L875.609 58.6795M823.906 58.6795L772.203 58.6795M879.667 62.7794L875.609 58.6795M879.667 62.7794L883.942 67.0995M879.667 62.7794L932.721 62.7794M875.609 58.6795L927.312 58.6795M772.203 58.6795L720.5 58.6795M772.203 58.6795L771.075 55.26L770.918 54.7835M927.312 58.6795L932.721 62.7794M770.918 54.7835L720.5 54.7835M883.942 67.0995L888.453 71.6584M883.942 67.0995H938.422M932.721 62.7794L936.968 65.9981L938.422 67.0995M938.422 67.0995L944.437 71.6584M832.468 71.6584L835.646 76.4756M832.468 71.6584L888.453 71.6584M832.468 71.6584H776.484M888.453 71.6584L893.22 76.4756M888.453 71.6584H944.437M944.437 71.6584L950.793 76.4756M835.646 76.4756L893.22 76.4756M835.646 76.4756H778.073M898.265 81.5747L893.22 76.4756M898.265 81.5747L903.615 86.9803M898.265 81.5747H957.52M893.22 76.4756H950.793M778.073 76.4756L720.5 76.4756M778.073 76.4756L776.484 71.6584M950.793 76.4756L957.52 81.5747M776.484 71.6584L720.5 71.6584M903.615 86.9803L909.296 92.7218M903.615 86.9803H964.653M957.52 81.5747L964.653 86.9803M964.653 86.9803L972.228 92.7218M846.364 92.7218L850.394 98.8306M846.364 92.7218L909.296 92.7218M846.364 92.7218H783.432M909.296 92.7218L915.341 98.8306M909.296 92.7218H972.228M972.228 92.7218L980.288 98.8306M850.394 98.8306L915.341 98.8306M850.394 98.8306H785.447M921.786 105.344L915.341 98.8306M921.786 105.344L928.673 112.302M921.786 105.344L988.882 105.344M915.341 98.8306H980.288M785.447 98.8306L720.5 98.8306M785.447 98.8306L783.432 92.7218M980.288 98.8306L988.882 105.344M783.432 92.7218L720.5 92.7218M928.673 112.302L936.047 119.754M928.673 112.302L998.063 112.302M988.882 105.344L998.063 112.302M998.063 112.302L1007.9 119.754M864.198 119.754L869.475 127.753M864.198 119.754L936.047 119.754M864.198 119.754H792.349M936.047 119.754L943.962 127.753M936.047 119.754L1007.9 119.754M1007.9 119.754L1018.45 127.753M869.475 127.753L943.962 127.753M869.475 127.753H794.987M952.481 136.362L943.962 127.753M952.481 136.362L961.675 145.653M952.481 136.362H1029.81M943.962 127.753L1018.45 127.753M794.987 127.753L720.5 127.753M794.987 127.753L792.349 119.754M1018.45 127.753L1029.81 136.362M792.349 119.754L720.5 119.754M961.675 145.653L971.629 155.711M961.675 145.653H1042.07M1029.81 136.362L1042.07 145.653M1042.07 145.653L1055.34 155.711M887.919 155.711L895.126 166.635M887.919 155.711H971.629M887.919 155.711L804.21 155.711M971.629 155.711L982.439 166.635M971.629 155.711L1055.34 155.711M1055.34 155.711L1069.75 166.635M895.126 166.635H982.439M895.126 166.635L807.813 166.635M994.222 178.542L982.439 166.635M994.222 178.542L1007.11 191.57M994.222 178.542L1085.46 178.542M982.439 166.635L1069.75 166.635M807.813 166.635H720.5M807.813 166.635L804.21 155.711M1069.75 166.635L1085.46 178.542M804.21 155.711H720.5M1007.11 191.57L1021.28 205.887M1007.11 191.57L1102.65 191.57M1085.46 178.542L1102.65 191.57M1102.65 191.57L1121.54 205.887M921.021 205.887L931.448 221.692M921.021 205.887H1021.28M921.021 205.887H820.761M1021.28 205.887L1036.92 221.692M1021.28 205.887L1121.54 205.887M1121.54 205.887L1142.4 221.692M1036.92 221.692H931.448M1036.92 221.692L1142.4 221.692M931.448 221.692H825.974M825.974 221.692L720.5 221.692M825.974 221.692L820.761 205.887M820.761 205.887L720.5 205.887M648.357 11.2922L648.195 11.5359L648.034 11.7804L647.872 12.0263L647.709 12.2734L647.381 12.7704L647.216 13.0207L647.05 13.2723M648.357 11.2922L684.428 11.2922M648.357 11.2922L612.284 11.2922M685.058 9.38138L685.667 7.53617M685.058 9.38138L684.428 11.2922M685.058 9.38138L720.5 9.38138M685.667 7.53617L685.741 7.31001L685.816 7.08478L685.89 6.86052L686.255 5.75346M685.667 7.53617L720.5 7.53617M652.011 5.75346L652.154 5.53458L652.725 4.66924L653.148 4.02975M652.011 5.75346L686.255 5.75346M652.011 5.75346L617.766 5.75346M684.428 11.2922L684.347 11.5359L684.267 11.7804L684.186 12.0263L683.775 13.2723M684.428 11.2922L720.5 11.2922M720.5 9.38138V7.53617M720.5 9.38138V11.2922M720.5 7.53617V5.75346M686.255 5.75346L720.5 5.75346M686.255 5.75346L686.47 5.10033L686.542 4.88431L686.824 4.02975M720.5 11.2922V13.2723M754.745 5.75346L754.53 5.10033L754.458 4.88431L754.388 4.66924L754.316 4.45512L754.247 4.24196L754.176 4.02975M754.745 5.75346L720.5 5.75346M720.5 5.75346V4.02975M647.05 13.2723L683.775 13.2723M647.05 13.2723L610.325 13.2723M683.098 15.3253L683.011 15.5869L682.925 15.8502L682.395 17.4553M683.098 15.3253L683.775 13.2723M683.098 15.3253L720.5 15.3253M683.775 13.2723L720.5 13.2723M610.325 13.2723L573.6 13.2723M610.325 13.2723L610.821 12.7704L611.068 12.5214L611.313 12.2734L611.558 12.0263L611.801 11.7804L612.044 11.5359L612.284 11.2922M720.5 13.2723V15.3253M612.284 11.2922L576.212 11.2922M682.395 17.4553L681.666 19.6669M682.395 17.4553L720.5 17.4553M720.5 15.3253V17.4553M720.5 17.4553V19.6669M642.831 19.6669L641.315 21.9651M642.831 19.6669L681.666 19.6669M642.831 19.6669L603.997 19.6669M681.666 19.6669L680.908 21.9651M681.666 19.6669L720.5 19.6669M720.5 19.6669V21.9651M641.315 21.9651L680.908 21.9651M641.315 21.9651L601.723 21.9651M680.12 24.3546L680.908 21.9651M680.12 24.3546L679.299 26.8412M680.12 24.3546L720.5 24.3546M680.908 21.9651L720.5 21.9651M601.723 21.9651L562.13 21.9651M601.723 21.9651L603.997 19.6669M720.5 21.9651V24.3546M603.997 19.6669L565.163 19.6669M679.299 26.8412L678.983 27.7998L678.662 28.7733L678.445 29.4309M679.299 26.8412L720.5 26.8412M720.5 24.3546V26.8412M720.5 26.8412V29.4309M636.39 29.4309L635.508 30.7664L635.286 31.1048L634.609 32.1304M636.39 29.4309L678.445 29.4309M636.39 29.4309L594.335 29.4309M678.445 29.4309L678.226 30.0951L677.781 31.4449L677.555 32.1304M678.445 29.4309L720.5 29.4309M720.5 29.4309V32.1304M634.609 32.1304L677.555 32.1304M634.609 32.1304L591.663 32.1304M676.626 34.9465L676.744 34.5878L677.555 32.1304M676.626 34.9465L675.656 37.8871M676.626 34.9465H720.5M677.555 32.1304H720.5M591.663 32.1304H548.718M591.663 32.1304L594.335 29.4309M720.5 32.1304V34.9465M594.335 29.4309L552.279 29.4309M675.656 37.8871L674.642 40.9608M675.656 37.8871H720.5M720.5 34.9465V37.8871M720.5 37.8871V40.9608M628.783 40.9608L626.662 44.1767M628.783 40.9608L674.642 40.9608M628.783 40.9608L582.925 40.9608M674.642 40.9608L673.581 44.1767M674.642 40.9608H720.5M720.5 40.9608V44.1767M626.662 44.1767L673.581 44.1767M626.662 44.1767L579.743 44.1767M672.47 47.5448L673.581 44.1767M672.47 47.5448L671.305 51.0763M672.47 47.5448H720.5M673.581 44.1767H720.5M579.743 44.1767L532.824 44.1767M579.743 44.1767L582.925 40.9608M720.5 44.1767V47.5448M582.925 40.9608L537.066 40.9608M671.305 51.0763L670.082 54.7835M671.305 51.0763H720.5M720.5 47.5448V51.0763M720.5 51.0763V54.7835M619.664 54.7835L617.094 58.6795M619.664 54.7835L670.082 54.7835M619.664 54.7835L569.247 54.7835M670.082 54.7835L668.797 58.6795M670.082 54.7835H720.5M720.5 54.7835V58.6795M617.094 58.6795L668.797 58.6795M617.094 58.6795L565.391 58.6795M667.445 62.7794L668.797 58.6795M667.445 62.7794L666.02 67.0995M667.445 62.7794L720.5 62.7794M668.797 58.6795H720.5M565.391 58.6795L513.688 58.6795M565.391 58.6795L569.247 54.7835M720.5 58.6795V62.7794M569.247 54.7835L518.829 54.7835M666.02 67.0995L664.516 71.6584M666.02 67.0995H720.5M720.5 62.7794V67.0995M720.5 67.0995V71.6584M608.532 71.6584L605.354 76.4756M608.532 71.6584L664.516 71.6584M608.532 71.6584H552.548M664.516 71.6584L662.927 76.4756M664.516 71.6584H720.5M720.5 71.6584V76.4756M605.354 76.4756L662.927 76.4756M605.354 76.4756H547.78M661.245 81.5747L662.927 76.4756M661.245 81.5747L659.462 86.9803M661.245 81.5747H720.5M662.927 76.4756H720.5M547.78 76.4756L490.207 76.4756M547.78 76.4756L552.548 71.6584M720.5 76.4756V81.5747M552.548 71.6584L496.563 71.6584M659.462 86.9803L657.568 92.7218M659.462 86.9803H720.5M720.5 81.5747V86.9803M720.5 86.9803V92.7218M594.636 92.7218L590.606 98.8306M594.636 92.7218L657.568 92.7218M594.636 92.7218H531.704M657.568 92.7218L655.553 98.8306M657.568 92.7218H720.5M720.5 92.7218V98.8306M590.606 98.8306L655.553 98.8306M590.606 98.8306H525.659M653.405 105.344L655.553 98.8306M653.405 105.344L651.109 112.302M653.405 105.344H720.5M655.553 98.8306H720.5M525.659 98.8306L460.712 98.8306M525.659 98.8306L531.704 92.7218M720.5 98.8306V105.344M531.704 92.7218L468.772 92.7218M651.109 112.302L648.651 119.754M651.109 112.302H720.5M720.5 105.344V112.302M720.5 112.302V119.754M576.803 119.754L571.525 127.753M576.803 119.754L648.651 119.754M576.803 119.754L504.953 119.754M648.651 119.754L646.013 127.753M648.651 119.754H720.5M720.5 119.754V127.753M571.525 127.753L646.013 127.753M571.525 127.753L497.038 127.753M643.173 136.362L646.013 127.753M643.173 136.362L640.109 145.653M643.173 136.362H720.5M646.013 127.753H720.5M497.038 127.753H422.551M497.038 127.753L504.953 119.754M720.5 127.753V136.362M504.953 119.754H433.104M640.109 145.653L636.79 155.711M640.109 145.653H720.5M720.5 136.362V145.653M720.5 145.653V155.711M553.081 155.711L545.874 166.635M553.081 155.711L636.79 155.711M553.081 155.711H469.371M636.79 155.711L633.187 166.635M636.79 155.711H720.5M720.5 155.711V166.635M545.874 166.635L633.187 166.635M545.874 166.635H458.561M629.26 178.542L633.187 166.635M629.26 178.542L624.962 191.57M629.26 178.542H720.5M633.187 166.635H720.5M458.561 166.635H371.248M458.561 166.635L469.371 155.711M720.5 166.635V178.542M469.371 155.711H385.662M624.962 191.57L620.239 205.887M624.962 191.57H720.5M720.5 178.542V191.57M720.5 191.57V205.887M519.979 205.887L509.552 221.692M519.979 205.887L620.239 205.887M519.979 205.887H419.718M620.239 205.887L615.026 221.692M620.239 205.887H720.5M720.5 205.887V221.692M615.026 221.692L509.552 221.692M615.026 221.692H720.5M509.552 221.692H404.078M404.078 221.692L298.603 221.692M404.078 221.692L419.718 205.887M419.718 205.887L319.458 205.887M504.069 11.2922L502.127 12.2734L500.15 13.2723M504.069 11.2922L540.141 11.2922M504.069 11.2922L467.997 11.2922M543.292 9.38138L546.335 7.53617M543.292 9.38138L540.141 11.2922M543.292 9.38138L578.734 9.38138M546.335 7.53617L581.168 7.53617M546.335 7.53617L548.55 6.19342L549.276 5.75346M515.031 5.75346L549.276 5.75346M515.031 5.75346L516.324 5.10033L518.442 4.02975M515.031 5.75346L480.786 5.75346M540.141 11.2922L536.875 13.2723M540.141 11.2922L576.212 11.2922M578.734 9.38138L581.168 7.53617M578.734 9.38138L576.212 11.2922M581.168 7.53617L582.355 6.63721L583.231 5.97297L583.52 5.75346M549.276 5.75346L583.52 5.75346M549.276 5.75346L551.416 4.45512L552.118 4.02975M576.212 11.2922L574.262 12.7704L573.6 13.2723M617.766 5.75346L617.982 5.53458L618.411 5.10033L619.05 4.45512L619.471 4.02975M617.766 5.75346L583.52 5.75346M583.52 5.75346L583.809 5.53458L584.383 5.10033L585.795 4.02975M500.15 13.2723L536.875 13.2723M500.15 13.2723L463.425 13.2723M533.489 15.3253L533.919 15.0645L534.347 14.8047L536.04 13.7782L536.875 13.2723M533.489 15.3253L530.866 16.9151L529.976 17.4553M533.489 15.3253L570.892 15.3253M536.875 13.2723L573.6 13.2723M463.425 13.2723L426.7 13.2723M463.425 13.2723L466.869 11.7804L467.997 11.2922M573.6 13.2723L570.892 15.3253M467.997 11.2922L431.925 11.2922M529.976 17.4553L529.528 17.7272L529.077 18.0003L527.713 18.8279L527.253 19.1061L526.328 19.6669M529.976 17.4553L568.08 17.4553M570.892 15.3253L570.546 15.5869L568.08 17.4553M568.08 17.4553L567.722 17.7272L567.361 18.0003L566.999 18.275L565.163 19.6669M487.494 19.6669L482.946 21.9651M487.494 19.6669L526.328 19.6669M487.494 19.6669L448.66 19.6669M526.328 19.6669L522.538 21.9651M526.328 19.6669L565.163 19.6669M565.163 19.6669L562.13 21.9651M482.946 21.9651L522.538 21.9651M482.946 21.9651L443.353 21.9651M518.597 24.3546L522.538 21.9651M518.597 24.3546L514.496 26.8412M518.597 24.3546L558.978 24.3546M522.538 21.9651L562.13 21.9651M443.353 21.9651L403.761 21.9651M443.353 21.9651L448.66 19.6669M562.13 21.9651L558.978 24.3546M448.66 19.6669L409.825 19.6669M514.496 26.8412L510.225 29.4309M514.496 26.8412L555.697 26.8412M558.978 24.3546L558.169 24.9668L555.697 26.8412M555.697 26.8412L554.431 27.7998L553.147 28.7733L552.279 29.4309M468.169 29.4309L465.526 30.7664L462.827 32.1304M468.169 29.4309L510.225 29.4309M468.169 29.4309L426.114 29.4309M510.225 29.4309L505.772 32.1304M510.225 29.4309L552.279 29.4309M552.279 29.4309L548.718 32.1304M462.827 32.1304H505.772M462.827 32.1304L419.882 32.1304M501.128 34.9465L505.772 32.1304M501.128 34.9465L496.278 37.8871M501.128 34.9465H545.002M505.772 32.1304L548.718 32.1304M419.882 32.1304L376.936 32.1304M419.882 32.1304L426.114 29.4309M548.718 32.1304L545.002 34.9465M426.114 29.4309L384.059 29.4309M496.278 37.8871L495.031 38.6427L491.209 40.9608M496.278 37.8871H541.122M545.002 34.9465L541.122 37.8871M541.122 37.8871L540.625 38.2639L539.117 39.4068L537.066 40.9608M445.35 40.9608L438.985 44.1767M445.35 40.9608H491.209M445.35 40.9608L399.492 40.9608M491.209 40.9608L485.905 44.1767M491.209 40.9608L537.066 40.9608M537.066 40.9608L532.824 44.1767M438.985 44.1767H485.905M438.985 44.1767L392.066 44.1767M480.349 47.5448L483.852 45.4214L485.905 44.1767M480.349 47.5448L474.525 51.0763M480.349 47.5448L528.379 47.5448M485.905 44.1767L532.824 44.1767M392.066 44.1767L345.147 44.1767M392.066 44.1767L399.492 40.9608M532.824 44.1767L528.379 47.5448M399.492 40.9608L353.633 40.9608M474.525 51.0763L468.411 54.7835M474.525 51.0763L523.72 51.0763M528.379 47.5448L523.72 51.0763M523.72 51.0763L518.829 54.7835M417.993 54.7835L410.282 58.6795M417.993 54.7835L468.411 54.7835M417.993 54.7835L367.575 54.7835M468.411 54.7835L461.985 58.6795M468.411 54.7835L518.829 54.7835M518.829 54.7835L513.688 58.6795M410.282 58.6795L461.985 58.6795M410.282 58.6795L358.579 58.6795M455.223 62.7794L461.985 58.6795M455.223 62.7794L448.098 67.0995M455.223 62.7794L508.279 62.7794M461.985 58.6795L513.688 58.6795M358.579 58.6795L306.876 58.6795M358.579 58.6795L367.575 54.7835M513.688 58.6795L508.279 62.7794M367.575 54.7835L317.157 54.7835M448.098 67.0995L440.579 71.6584M448.098 67.0995H502.578M508.279 62.7794L502.578 67.0995M502.578 67.0995L496.563 71.6584M384.595 71.6584L375.061 76.4756M384.595 71.6584L440.579 71.6584M384.595 71.6584H328.611M440.579 71.6584L432.634 76.4756M440.579 71.6584H496.563M496.563 71.6584L490.207 76.4756M375.061 76.4756L432.634 76.4756M375.061 76.4756H317.488M424.224 81.5747L432.634 76.4756M424.224 81.5747L415.309 86.9803M424.224 81.5747H483.48M432.634 76.4756H490.207M317.488 76.4756L259.914 76.4756M317.488 76.4756L328.611 71.6584M490.207 76.4756L483.48 81.5747M328.611 71.6584L272.627 71.6584M415.309 86.9803L405.84 92.7218M415.309 86.9803H476.347M483.48 81.5747L476.347 86.9803M476.347 86.9803L468.772 92.7218M342.907 92.7218L330.817 98.8306M342.907 92.7218H405.84M342.907 92.7218L279.975 92.7218M405.84 92.7218L395.764 98.8306M405.84 92.7218L468.772 92.7218M468.772 92.7218L460.712 98.8306M330.817 98.8306H395.764M330.817 98.8306L265.87 98.8306M385.023 105.344L395.764 98.8306M385.023 105.344L373.545 112.302M385.023 105.344L452.118 105.344M395.764 98.8306L460.712 98.8306M265.87 98.8306H200.923M265.87 98.8306L279.975 92.7218M460.712 98.8306L452.118 105.344M279.975 92.7218H217.043M373.545 112.302L361.256 119.754M373.545 112.302L442.937 112.302M452.118 105.344L442.937 112.302M442.937 112.302L433.104 119.754M289.407 119.754L273.576 127.753M289.407 119.754L361.256 119.754M289.407 119.754H217.558M361.256 119.754L348.063 127.753M361.256 119.754L433.104 119.754M433.104 119.754L422.551 127.753M273.576 127.753L348.063 127.753M273.576 127.753H199.089M333.865 136.362L348.063 127.753M333.865 136.362L318.541 145.653M333.865 136.362L411.192 136.362M348.063 127.753L422.551 127.753M199.089 127.753L124.601 127.753M199.089 127.753L217.558 119.754M422.551 127.753L411.192 136.362M217.558 119.754L145.709 119.754M318.541 145.653L301.952 155.711M318.541 145.653L398.932 145.653M411.192 136.362L398.932 145.653M398.932 145.653L385.662 155.711M218.242 155.711L196.622 166.635M218.242 155.711H301.952M218.242 155.711H134.533M301.952 155.711L283.935 166.635M301.952 155.711L385.662 155.711M385.662 155.711L371.248 166.635M196.622 166.635H283.935M196.622 166.635L109.309 166.635M264.297 178.542L283.935 166.635M264.297 178.542L242.809 191.57M264.297 178.542L355.538 178.542M283.935 166.635L371.248 166.635M109.309 166.635H21.9958M109.309 166.635L134.533 155.711M371.248 166.635L355.538 178.542M134.533 155.711L50.8233 155.711M242.809 191.57L219.198 205.887M242.809 191.57H338.348M355.538 178.542L338.348 191.57M338.348 191.57L319.458 205.887M118.937 205.887L87.6553 221.692M118.937 205.887H219.198M118.937 205.887L18.6759 205.887M219.198 205.887L193.13 221.692M219.198 205.887H319.458M319.458 205.887L298.603 221.692M193.13 221.692L87.6553 221.692M193.13 221.692H298.603M87.6553 221.692L1.38728 221.692M18.6759 205.887L1.38728 213.374M18.6759 205.887H1.38728M359.781 11.2922L353.25 13.2723M359.781 11.2922L395.853 11.2922M359.781 11.2922L323.709 11.2922M401.526 9.38138L407.004 7.53617M401.526 9.38138L395.853 11.2922M401.526 9.38138L436.967 9.38138M407.004 7.53617L441.836 7.53617M407.004 7.53617L412.297 5.75346M378.051 5.75346L412.297 5.75346M378.051 5.75346L380.206 5.10033L383.737 4.02975M378.051 5.75346L343.806 5.75346M395.853 11.2922L389.975 13.2723M395.853 11.2922L431.925 11.2922M436.967 9.38138L441.836 7.53617M436.967 9.38138L431.925 11.2922M441.836 7.53617L445.38 6.19342L446.541 5.75346M412.297 5.75346L412.945 5.53458L417.413 4.02975M412.297 5.75346L446.541 5.75346M431.925 11.2922L426.7 13.2723M480.786 5.75346L484.766 4.02975M480.786 5.75346L446.541 5.75346M446.541 5.75346L448.265 5.10033L451.09 4.02975M353.25 13.2723L389.975 13.2723M353.25 13.2723L316.525 13.2723M383.88 15.3253L389.975 13.2723M383.88 15.3253L377.557 17.4553M383.88 15.3253L421.282 15.3253M389.975 13.2723L426.7 13.2723M316.525 13.2723L279.8 13.2723M316.525 13.2723L323.709 11.2922M426.7 13.2723L421.282 15.3253M323.709 11.2922L287.638 11.2922M377.557 17.4553L375.938 18.0003L370.99 19.6669M377.557 17.4553L415.661 17.4553M421.282 15.3253L415.661 17.4553M415.661 17.4553L409.825 19.6669M332.156 19.6669L331.225 19.9495L324.576 21.9651M332.156 19.6669L370.99 19.6669M332.156 19.6669L293.322 19.6669M370.99 19.6669L364.168 21.9651M370.99 19.6669L409.825 19.6669M409.825 19.6669L409.08 19.9495L403.761 21.9651M324.576 21.9651L364.168 21.9651M324.576 21.9651L284.984 21.9651M357.075 24.3546L364.168 21.9651M357.075 24.3546L349.693 26.8412M357.075 24.3546L397.455 24.3546M364.168 21.9651L403.761 21.9651M284.984 21.9651L245.391 21.9651M284.984 21.9651L293.322 19.6669M403.761 21.9651L397.455 24.3546M293.322 19.6669L254.487 19.6669M349.693 26.8412L342.004 29.4309M349.693 26.8412L390.893 26.8412M397.455 24.3546L390.893 26.8412M390.893 26.8412L384.059 29.4309M299.949 29.4309L291.045 32.1304M299.949 29.4309L342.004 29.4309M299.949 29.4309L257.894 29.4309M342.004 29.4309L333.99 32.1304M342.004 29.4309L384.059 29.4309M384.059 29.4309L376.936 32.1304M291.045 32.1304L333.99 32.1304M291.045 32.1304L248.099 32.1304M325.63 34.9465L333.99 32.1304M325.63 34.9465L316.9 37.8871M325.63 34.9465H369.504M333.99 32.1304H376.936M248.099 32.1304H205.154M248.099 32.1304L257.894 29.4309M376.936 32.1304L369.504 34.9465M257.894 29.4309L215.839 29.4309M316.9 37.8871L307.775 40.9608M316.9 37.8871L361.744 37.8871M369.504 34.9465L361.744 37.8871M361.744 37.8871L353.633 40.9608M261.917 40.9608L251.309 44.1767M261.917 40.9608L307.775 40.9608M261.917 40.9608H216.058M307.775 40.9608L298.228 44.1767M307.775 40.9608L353.633 40.9608M353.633 40.9608L345.147 44.1767M251.309 44.1767L298.228 44.1767M251.309 44.1767H204.39M288.229 47.5448L298.228 44.1767M288.229 47.5448L277.745 51.0763M288.229 47.5448L336.259 47.5448M298.228 44.1767L345.147 44.1767M204.39 44.1767L157.471 44.1767M204.39 44.1767L216.058 40.9608M345.147 44.1767L336.259 47.5448M216.058 40.9608L170.2 40.9608M277.745 51.0763L266.739 54.7835M277.745 51.0763L326.939 51.0763M336.259 47.5448L326.939 51.0763M326.939 51.0763L317.157 54.7835M216.321 54.7835L203.47 58.6795M216.321 54.7835L266.739 54.7835M216.321 54.7835L165.904 54.7835M266.739 54.7835L255.173 58.6795M266.739 54.7835H317.157M317.157 54.7835L306.876 58.6795M203.47 58.6795L255.173 58.6795M203.47 58.6795H151.766M243.001 62.7794L255.173 58.6795M243.001 62.7794L230.176 67.0995M243.001 62.7794L296.056 62.7794M255.173 58.6795L306.876 58.6795M151.766 58.6795L100.064 58.6795M151.766 58.6795L165.904 54.7835M306.876 58.6795L296.056 62.7794M165.904 54.7835L115.486 54.7835M230.176 67.0995L216.642 71.6584M230.176 67.0995H284.656M296.056 62.7794L284.656 67.0995M284.656 67.0995L272.627 71.6584M160.658 71.6584L144.768 76.4756M160.658 71.6584L216.642 71.6584M160.658 71.6584H104.674M216.642 71.6584L202.341 76.4756M216.642 71.6584H272.627M272.627 71.6584L259.914 76.4756M144.768 76.4756L202.341 76.4756M144.768 76.4756H87.1947M187.204 81.5747L202.341 76.4756M187.204 81.5747L171.156 86.9803M187.204 81.5747H246.459M202.341 76.4756H259.914M87.1947 76.4756L29.6214 76.4756M87.1947 76.4756L104.674 71.6584M259.914 76.4756L246.459 81.5747M104.674 71.6584L48.6899 71.6584M171.156 86.9803L154.111 92.7218M171.156 86.9803L232.194 86.9803M246.459 81.5747L232.194 86.9803M232.194 86.9803L217.043 92.7218M91.179 92.7218L71.0288 98.8306M91.179 92.7218H154.111M91.179 92.7218L28.2469 92.7218M154.111 92.7218L135.976 98.8306M154.111 92.7218L217.043 92.7218M217.043 92.7218L200.923 98.8306M71.0288 98.8306H135.976M71.0288 98.8306L6.08173 98.8306M116.64 105.344L135.976 98.8306M116.64 105.344L95.9821 112.302M116.64 105.344L183.736 105.344M135.976 98.8306L200.923 98.8306M6.08173 98.8306L28.2469 92.7218M6.08173 98.8306H1.38728M6.08173 98.8306L1.38728 100.124M200.923 98.8306L183.736 105.344M28.2469 92.7218H1.38728M95.9821 112.302L73.8604 119.754M95.9821 112.302H165.373M183.736 105.344L165.373 112.302M165.373 112.302L145.709 119.754M2.01126 119.754L73.8604 119.754M2.01126 119.754H1.38728M2.01126 119.754L1.38728 119.943M73.8604 119.754L50.1132 127.753M73.8604 119.754H145.709M145.709 119.754L124.601 127.753M24.5562 136.362L50.1132 127.753M24.5562 136.362H101.883M24.5562 136.362H1.38728M24.5562 136.362L1.38728 144.166M50.1132 127.753L124.601 127.753M50.1132 127.753H1.38728M124.601 127.753L101.883 136.362M101.883 136.362L77.3653 145.653M77.3653 145.653L50.8233 155.711M77.3653 145.653H1.38728M50.8233 155.711L21.9958 166.635M50.8233 155.711H1.38728M21.9958 166.635H1.38728M21.9958 166.635L1.38728 174.445M215.493 11.2922L206.35 13.2723M215.493 11.2922L251.566 11.2922M215.493 11.2922L179.422 11.2922M259.759 9.38138L267.672 7.53617M259.759 9.38138L251.566 11.2922M259.759 9.38138L295.201 9.38138M267.672 7.53617L302.504 7.53617M267.672 7.53617L275.317 5.75346M241.072 5.75346L275.317 5.75346M241.072 5.75346L249.032 4.02975M241.072 5.75346L206.827 5.75346M251.566 11.2922L243.075 13.2723M251.566 11.2922L287.638 11.2922M295.201 9.38138L302.504 7.53617M295.201 9.38138L287.638 11.2922M302.504 7.53617L309.562 5.75346M275.317 5.75346L276.254 5.53458L282.708 4.02975M275.317 5.75346L309.562 5.75346M287.638 11.2922L279.8 13.2723M343.806 5.75346L350.06 4.02975M343.806 5.75346L309.562 5.75346M309.562 5.75346L310.427 5.53458L316.384 4.02975M206.35 13.2723L243.075 13.2723M206.35 13.2723L169.625 13.2723M234.271 15.3253L243.075 13.2723M234.271 15.3253L225.137 17.4553M234.271 15.3253L271.674 15.3253M243.075 13.2723L279.8 13.2723M169.625 13.2723L132.9 13.2723M169.625 13.2723L179.422 11.2922M279.8 13.2723L271.674 15.3253M179.422 11.2922L143.35 11.2922M225.137 17.4553L215.653 19.6669M225.137 17.4553L263.242 17.4553M271.674 15.3253L270.637 15.5869L263.242 17.4553M263.242 17.4553L254.487 19.6669M176.819 19.6669L166.206 21.9651M176.819 19.6669L215.653 19.6669M176.819 19.6669L137.984 19.6669M215.653 19.6669L205.799 21.9651M215.653 19.6669L254.487 19.6669M254.487 19.6669L245.391 21.9651M166.206 21.9651L205.799 21.9651M166.206 21.9651L126.614 21.9651M195.552 24.3546L205.799 21.9651M195.552 24.3546L184.889 26.8412M195.552 24.3546L235.933 24.3546M205.799 21.9651L245.391 21.9651M126.614 21.9651L87.0216 21.9651M126.614 21.9651L137.984 19.6669M245.391 21.9651L235.933 24.3546M137.984 19.6669L99.1499 19.6669M184.889 26.8412L173.784 29.4309M184.889 26.8412L226.09 26.8412M235.933 24.3546L226.09 26.8412M226.09 26.8412L215.839 29.4309M131.729 29.4309L119.263 32.1304M131.729 29.4309L173.784 29.4309M131.729 29.4309L89.6734 29.4309M173.784 29.4309L162.209 32.1304M173.784 29.4309L215.839 29.4309M215.839 29.4309L205.154 32.1304M119.263 32.1304L162.209 32.1304M119.263 32.1304H76.3173M150.132 34.9465L162.209 32.1304M150.132 34.9465L137.522 37.8871M150.132 34.9465H194.007M162.209 32.1304L205.154 32.1304M76.3173 32.1304L33.3721 32.1304M76.3173 32.1304L89.6734 29.4309M205.154 32.1304L194.007 34.9465M89.6734 29.4309L47.6187 29.4309M137.522 37.8871L124.341 40.9608M137.522 37.8871L182.366 37.8871M194.007 34.9465L182.366 37.8871M182.366 37.8871L170.2 40.9608M78.4829 40.9608L63.6325 44.1767M78.4829 40.9608L124.341 40.9608M78.4829 40.9608H32.6252M124.341 40.9608L110.552 44.1767M124.341 40.9608L170.2 40.9608M170.2 40.9608L157.471 44.1767M63.6325 44.1767L110.552 44.1767M96.1079 47.5448L110.552 44.1767M96.1079 47.5448L80.9646 51.0763M96.1079 47.5448H144.139M110.552 44.1767L157.471 44.1767M157.471 44.1767L144.139 47.5448M32.6252 40.9608L1.38728 40.9608M80.9646 51.0763L65.0677 54.7835M80.9646 51.0763L130.159 51.0763M144.139 47.5448L130.159 51.0763M130.159 51.0763L115.486 54.7835M14.6497 54.7835L65.0677 54.7835M14.6497 54.7835H1.38728M14.6497 54.7835L1.38728 57.6553M65.0677 54.7835L48.3603 58.6795M65.0677 54.7835L115.486 54.7835M115.486 54.7835L100.064 58.6795M30.7795 62.7794L48.3603 58.6795M30.7795 62.7794L12.2541 67.0995M30.7795 62.7794H83.8351M30.7795 62.7794L1.38728 62.7794M48.3603 58.6795L100.064 58.6795M48.3603 58.6795L1.38728 58.6795M100.064 58.6795L83.8351 62.7794M1.24121 57.687L1.38728 57.6553M12.2541 67.0995L66.7344 67.0995M12.2541 67.0995H1.38728M12.2541 67.0995L1.38728 69.6337M83.8351 62.7794L66.7344 67.0995M66.7344 67.0995L48.6899 71.6584M48.6899 71.6584L29.6214 76.4756M48.6899 71.6584H1.38728M9.43834 81.5747L29.6214 76.4756M9.43834 81.5747H1.38728M9.43834 81.5747L1.38728 83.6086M29.6214 76.4756H1.38728M71.2064 11.2922L59.4504 13.2723M71.2064 11.2922L107.278 11.2922M71.2064 11.2922L35.1339 11.2922M117.993 9.38138L128.34 7.53617M117.993 9.38138L107.278 11.2922M117.993 9.38138L153.435 9.38138M128.34 7.53617L163.173 7.53617M128.34 7.53617L138.337 5.75346M104.092 5.75346L138.337 5.75346M104.092 5.75346L114.326 4.02975M104.092 5.75346L69.8476 5.75346M107.278 11.2922L96.1753 13.2723M107.278 11.2922L143.35 11.2922M153.435 9.38138L163.173 7.53617M153.435 9.38138L143.35 11.2922M163.173 7.53617L172.582 5.75346M138.337 5.75346L172.582 5.75346M138.337 5.75346L148.003 4.02975M143.35 11.2922L132.9 13.2723M206.827 5.75346L215.356 4.02975M206.827 5.75346L172.582 5.75346M172.582 5.75346L181.679 4.02975M59.4504 13.2723L96.1753 13.2723M59.4504 13.2723L22.7254 13.2723M84.6628 15.3253L96.1753 13.2723M84.6628 15.3253L72.718 17.4553M84.6628 15.3253L122.065 15.3253M96.1753 13.2723L132.9 13.2723M22.7254 13.2723L35.1339 11.2922M22.7254 13.2723L1.38728 13.2723M132.9 13.2723L122.065 15.3253M35.1339 11.2922L1.38728 11.2922M72.718 17.4553L60.3156 19.6669M72.718 17.4553L110.823 17.4553M122.065 15.3253L110.823 17.4553M110.823 17.4553L99.1499 19.6669M21.4812 19.6669L7.83681 21.9651M21.4812 19.6669L60.3156 19.6669M21.4812 19.6669L1.38728 19.6669M60.3156 19.6669L47.4292 21.9651M60.3156 19.6669L99.1499 19.6669M99.1499 19.6669L87.0216 21.9651M34.0297 24.3546L47.4292 21.9651M34.0297 24.3546L20.0857 26.8412M34.0297 24.3546L74.4102 24.3546M34.0297 24.3546L1.38728 24.3546M47.4292 21.9651L7.83681 21.9651M47.4292 21.9651L87.0216 21.9651M7.83681 21.9651L1.38728 23.0512M7.83681 21.9651H1.38728M87.0216 21.9651L74.4102 24.3546M20.0857 26.8412L5.56337 29.4309M20.0857 26.8412L61.2864 26.8412M20.0857 26.8412L1.38728 26.8412M74.4102 24.3546L61.2864 26.8412M61.2864 26.8412L47.6187 29.4309M5.56337 29.4309L47.6187 29.4309M5.56337 29.4309L1.38728 30.1755M5.56337 29.4309H1.38728M47.6187 29.4309L33.3721 32.1304M18.5089 34.9465L33.3721 32.1304M18.5089 34.9465L2.9888 37.8871M18.5089 34.9465H1.38728M33.3721 32.1304H1.38728M1.16255 32.1304H1.38728M2.9888 37.8871H1.38728M2.9888 37.8871L1.38728 38.1905M1 38.2639L1.38728 38.1905M11.6683 9.38138L23.8408 7.53617M11.6683 9.38138L1.38728 9.38138M11.6683 9.38138L1.38728 10.9397M23.8408 7.53617L35.6028 5.75346M23.8408 7.53617L1.38728 7.53617M69.8476 5.75346L80.65 4.02975M69.8476 5.75346L35.6028 5.75346M35.6028 5.75346L46.9738 4.02975M35.6028 5.75346L1.38728 5.75346M1191.97 4.02975L1225.64 4.02975M1191.97 4.02975L1158.29 4.02975M1217.39 2.36249L1219.43 2.77423L1225.64 4.02975M1217.39 2.36249L1250.52 2.36249M1225.64 4.02975L1259.32 4.02975M1250.52 2.36249L1252.69 2.77423L1253.79 2.98105L1259.32 4.02975M1259.32 4.02975L1293 4.02975M1293 4.02975L1326.67 4.02975M1158.29 4.02975L1124.62 4.02975M1326.67 4.02975L1360.35 4.02975M1360.35 4.02975L1349.9 2.36249M1360.35 4.02975L1394.03 4.02975M1349.9 2.36249L1383.03 2.36249M1057.26 4.02975L1090.94 4.02975M1057.26 4.02975L1023.59 4.02975M1084.89 2.36249L1086.38 2.77423L1087.14 2.98105L1090.94 4.02975M1084.89 2.36249L1118.02 2.36249M1090.94 4.02975L1124.62 4.02975M1118.02 2.36249L1124.62 4.02975M1023.59 4.02975L989.91 4.02975M922.558 4.02975L956.234 4.02975M922.558 4.02975L888.882 4.02975M952.384 2.36249L952.859 2.56773L953.334 2.77423L953.813 2.98105L956.234 4.02975M952.384 2.36249L985.51 2.36249M956.234 4.02975L989.91 4.02975M985.51 2.36249L989.91 4.02975M888.882 4.02975L855.205 4.02975M787.852 4.02975L821.529 4.02975M787.852 4.02975L754.176 4.02975M819.879 2.36249L821.529 4.02975M819.879 2.36249L853.005 2.36249M821.529 4.02975L855.205 4.02975M853.005 2.36249L853.277 2.56773L853.549 2.77423L853.822 2.98105L855.205 4.02975M754.176 4.02975L720.5 4.02975M653.148 4.02975L686.824 4.02975M653.148 4.02975L619.471 4.02975M687.374 2.36249L686.824 4.02975M687.374 2.36249L720.5 2.36249M686.824 4.02975L720.5 4.02975M720.5 2.36249V4.02975M619.471 4.02975L585.795 4.02975M518.442 4.02975L552.118 4.02975M518.442 4.02975L484.766 4.02975M554.868 2.36249L554.19 2.77423L552.814 3.60754L552.118 4.02975M554.868 2.36249L587.995 2.36249M552.118 4.02975L585.795 4.02975M587.995 2.36249L587.723 2.56773L587.451 2.77423L587.178 2.98105L585.795 4.02975M484.766 4.02975L451.09 4.02975M383.737 4.02975L417.413 4.02975M383.737 4.02975L350.06 4.02975M422.363 2.36249L421.141 2.77423L420.526 2.98105L417.413 4.02975M422.363 2.36249L455.49 2.36249M417.413 4.02975L451.09 4.02975M455.49 2.36249L454.947 2.56773L451.09 4.02975M350.06 4.02975L316.384 4.02975M249.032 4.02975L282.708 4.02975M249.032 4.02975L215.356 4.02975M289.858 2.36249L288.092 2.77423L287.204 2.98105L282.708 4.02975M289.858 2.36249L322.984 2.36249M282.708 4.02975L316.384 4.02975M322.984 2.36249L322.171 2.56773L316.384 4.02975M215.356 4.02975L181.679 4.02975M114.326 4.02975L148.003 4.02975M114.326 4.02975L80.65 4.02975M157.352 2.36249L148.003 4.02975M157.352 2.36249L190.479 2.36249M148.003 4.02975L181.679 4.02975M190.479 2.36249L188.306 2.77423L187.213 2.98105L181.679 4.02975M80.65 4.02975L46.9738 4.02975M24.8476 2.36249L13.2976 4.02975M24.8476 2.36249L57.974 2.36249M24.8476 2.36249L1.38728 2.36249M13.2976 4.02975L46.9738 4.02975M13.2976 4.02975L1.38728 5.74924M13.2976 4.02975L1.38728 4.02975M57.974 2.36249L55.2578 2.77423L46.9738 4.02975M1383.03 2.36249L1385.74 2.77423L1394.03 4.02975M1394.03 4.02975L1427.7 4.02975M1427.7 4.02975L1439.61 5.74925M1427.7 4.02975L1439.61 4.02975M1439.61 83.6086V81.5747M1439.61 83.6086V86.9803M1439.61 81.5747V76.4756M1439.61 86.9803V87.9879V92.7218M1439.61 92.7218V98.8306M1439.61 44.1767V40.9608M1439.61 44.1767V47.2741M1439.61 2.36249V4.02975M1439.61 4.02975V5.74925M1439.61 5.74925L1439.64 5.75346H1439.61M1439.61 5.74925V5.75346M1439.61 5.75346V7.53617M1439.61 7.53617V9.38138M1439.61 9.38138V10.9397M1439.61 10.9397V11.2922M1439.61 11.2922V13.2723M1439.61 13.2723V15.3253M1439.61 15.3253V16.6766M1439.61 16.6766V17.4553M1439.61 17.4553V19.6669M1439.61 19.6669V21.9651M1439.61 21.9651V23.0512M1439.61 23.0512V24.3546M1439.61 24.3546V26.8412M1439.61 26.8412V29.4309M1439.61 29.4309V30.1755M1439.61 30.1755V32.1304M1439.61 32.1304V34.9465M1439.61 34.9465V37.8871M1439.61 37.8871V38.1905M1439.61 38.1905V40.9608M1439.61 47.5448V51.0763M1439.61 47.5448V47.2741M1439.61 51.0763V54.7835M1439.61 54.7835V57.6553M1439.61 57.6553V58.6795M1439.61 58.6795V62.7794M1439.61 62.7794V67.0995M1439.61 67.0995V69.6337M1439.61 69.6337V71.6584M1439.61 71.6584V76.4756M1439.61 98.8306V100.124M1439.61 100.124V105.344M1439.61 105.344V112.302M1439.61 112.302V119.754M1439.61 119.754V119.943M1439.61 119.943V127.753M1439.61 127.753V136.362M1439.61 136.362V144.166M1439.61 144.166V145.653M1439.61 145.653V155.711M1439.61 155.711V166.635M1439.61 166.635V174.445M1439.61 174.445V178.542M1439.61 178.542V191.57M1439.61 191.57V205.887M1439.61 205.887V213.374M1439.61 213.374V221.692M1439.61 221.692V221.749L1.38728 221.749V221.692M1.38728 47.5448L1.38728 51.0763M1.38728 47.5448V47.2741M1.38728 47.2741L1.38728 44.1767M1.38728 44.1767L1.38728 40.9608M1.38728 40.9608L1.38728 38.1905M1.38728 38.1905L1.38728 37.8871M1.38728 37.8871L1.38728 34.9465M1.38728 34.9465L1.38728 32.1304M1.38728 32.1304L1.38728 30.1755M1.38728 30.1755V29.4309M1.38728 29.4309L1.38728 26.8412M1.38728 26.8412L1.38728 24.3546M1.38728 24.3546L1.38728 23.0512M1.38728 23.0512V21.9651M1.38728 21.9651L1.38728 19.6669M1.38728 19.6669L1.38728 17.4553M1.38728 17.4553V16.6766M1.38728 16.6766L1.38728 15.3253M1.38728 15.3253L1.38728 13.2723M1.38728 13.2723L1.38728 11.2922M1.38728 11.2922V10.9397M1.38728 10.9397L1.38728 9.38138M1.38728 9.38138L1.38728 7.53617M1.38728 7.53617L1.38728 5.75346M1.38728 5.75346H1.35806L1.38728 5.74924M1.38728 5.75346V5.74924M1.38728 5.74924L1.38728 4.02975M1.38728 4.02975L1.38728 2.36249M1.38728 221.692L1.38728 213.374M1.38728 213.374L1.38728 205.887M1.38728 205.887L1.38728 191.57M1.38728 191.57L1.38728 178.542M1.38728 178.542L1.38728 174.445M1.38728 174.445L1.38728 166.635M1.38728 166.635L1.38728 155.711M1.38728 155.711L1.38728 145.653M1.38728 145.653L1.38728 144.166M1.38728 144.166L1.38728 136.362M1.38728 136.362L1.38728 127.753M1.38728 127.753L1.38728 119.943M1.38728 119.943V119.754M1.38728 119.754L1.38728 112.302M1.38728 112.302L1.38728 105.344M1.38728 105.344L1.38728 100.124M1.38728 100.124L1.38728 98.8306M1.38728 98.8306L1.38728 92.7218M1.38728 92.7218L1.38728 86.9803M1.38728 86.9803L1.38728 83.6086M1.38728 83.6086L1.38728 81.5747M1.38728 81.5747L1.38728 76.4756M1.38728 76.4756L1.38728 71.6584M1.38728 71.6584L1.38728 69.6337M1.38728 69.6337L1.38728 67.0995M1.38728 67.0995L1.38728 62.7794M1.38728 62.7794L1.38728 58.6795M1.38728 58.6795V57.6553M1.38728 57.6553L1.38728 54.7835M1.38728 54.7835L1.38728 51.0763" stroke="url(#paint0_radial_3059_1956)" stroke-opacity="0.4" stroke-miterlimit="10" stroke-linecap="round" stroke-linejoin="round"/>
<defs>
<radialGradient id="paint0_radial_3059_1956" cx="0" cy="0" r="1" gradientUnits="userSpaceOnUse" gradientTransform="translate(720.5 222.969) rotate(-90) scale(355.313 1113.87)">
<stop stop-color="#B0D3ED"/>
<stop offset="0.741828" stop-color="#B0D3ED" stop-opacity="0"/>
</radialGradient>
</defs>
</svg>
