<svg width="32" height="33" viewBox="0 0 32 33" fill="none" xmlns="http://www.w3.org/2000/svg">
<g clip-path="url(#clip0_3059_2288)">
<g clip-path="url(#clip1_3059_2288)">
<path d="M12.498 24.5153H19.502C18.8404 26.0977 17.5823 27.3558 16 28.0173C14.4177 27.3558 13.1596 26.0977 12.498 24.5153ZM22 19.3203L24 21.5883V23.5153H8V21.5883L10 19.3203V13.5153C10 10.0323 12.504 7.06834 16 5.97034C19.496 7.06834 22 10.0323 22 13.5153V19.3203ZM16 15.5153C16.5304 15.5153 17.0391 15.3046 17.4142 14.9296C17.7893 14.5545 18 14.0458 18 13.5153C18 12.9849 17.7893 12.4762 17.4142 12.1011C17.0391 11.7261 16.5304 11.5153 16 11.5153C15.4696 11.5153 14.9609 11.7261 14.5858 12.1011C14.2107 12.4762 14 12.9849 14 13.5153C14 14.0458 14.2107 14.5545 14.5858 14.9296C14.9609 15.3046 15.4696 15.5153 16 15.5153Z" fill="#6E51E0"/>
<path d="M12.498 24.5153H19.502C18.8404 26.0977 17.5823 27.3558 16 28.0173C14.4177 27.3558 13.1596 26.0977 12.498 24.5153ZM22 19.3203L24 21.5883V23.5153H8V21.5883L10 19.3203V13.5153C10 10.0323 12.504 7.06834 16 5.97034C19.496 7.06834 22 10.0323 22 13.5153V19.3203ZM16 15.5153C16.5304 15.5153 17.0391 15.3046 17.4142 14.9296C17.7893 14.5545 18 14.0458 18 13.5153C18 12.9849 17.7893 12.4762 17.4142 12.1011C17.0391 11.7261 16.5304 11.5153 16 11.5153C15.4696 11.5153 14.9609 11.7261 14.5858 12.1011C14.2107 12.4762 14 12.9849 14 13.5153C14 14.0458 14.2107 14.5545 14.5858 14.9296C14.9609 15.3046 15.4696 15.5153 16 15.5153Z" fill="url(#paint0_linear_3059_2288)" fill-opacity="0.24"/>
</g>
</g>
<defs>
<linearGradient id="paint0_linear_3059_2288" x1="16" y1="5.97034" x2="16" y2="28.0173" gradientUnits="userSpaceOnUse">
<stop stop-color="white"/>
<stop offset="1" stop-color="white" stop-opacity="0"/>
</linearGradient>
<clipPath id="clip0_3059_2288">
<rect width="32" height="32" fill="white" transform="translate(0 0.515381)"/>
</clipPath>
<clipPath id="clip1_3059_2288">
<rect width="32" height="32" fill="white" transform="translate(0 0.515381)"/>
</clipPath>
</defs>
</svg>
